<svg xmlns="http://www.w3.org/2000/svg" xmlns:xlink="http://www.w3.org/1999/xlink" width="1920" zoomAndPan="magnify" viewBox="0 0 1440 675.000002" height="900" preserveAspectRatio="xMidYMid meet" version="1.0"><defs><g/><clipPath id="54a7a77df3"><path d="M 1.066406 0 L 1438.933594 0 L 1438.933594 674 L 1.066406 674 Z M 1.066406 0 " clip-rule="nonzero"/></clipPath><clipPath id="47e00fb811"><path d="M 1.066406 63.421875 L 577 63.421875 L 577 136.8125 L 1.066406 136.8125 Z M 1.066406 63.421875 " clip-rule="nonzero"/></clipPath><clipPath id="c5b306fd93"><path d="M 567 127 L 577 127 L 577 136.8125 L 567 136.8125 Z M 567 127 " clip-rule="nonzero"/></clipPath><clipPath id="9d8ef43ec4"><path d="M 612 118 L 631 118 L 631 136.8125 L 612 136.8125 Z M 612 118 " clip-rule="nonzero"/></clipPath><clipPath id="90f5df0d18"><path d="M 603 63.421875 L 613 63.421875 L 613 73 L 603 73 Z M 603 63.421875 " clip-rule="nonzero"/></clipPath><clipPath id="3107c00aee"><path d="M 621 63.421875 L 631 63.421875 L 631 73 L 621 73 Z M 621 63.421875 " clip-rule="nonzero"/></clipPath><clipPath id="02cfb7b7ee"><path d="M 648 63.421875 L 667 63.421875 L 667 73 L 648 73 Z M 648 63.421875 " clip-rule="nonzero"/></clipPath><clipPath id="23a46bd1a7"><path d="M 99.71875 69.546875 L 154.386719 69.546875 L 154.386719 116 L 99.71875 116 Z M 99.71875 69.546875 " clip-rule="nonzero"/></clipPath><clipPath id="84dd101a4a"><path d="M 119 69.546875 L 154.386719 69.546875 L 154.386719 128.707031 L 119 128.707031 Z M 119 69.546875 " clip-rule="nonzero"/></clipPath><clipPath id="64f6866ec6"><path d="M 104.410156 459.308594 L 520.042969 459.308594 L 520.042969 529.703125 L 104.410156 529.703125 Z M 104.410156 459.308594 " clip-rule="nonzero"/></clipPath><clipPath id="522ec39d82"><path d="M 950 212.675781 L 1081 212.675781 L 1081 354 L 950 354 Z M 950 212.675781 " clip-rule="nonzero"/></clipPath><clipPath id="16ce0b3620"><path d="M 1082 368 L 1393 368 L 1393 529.457031 L 1082 529.457031 Z M 1082 368 " clip-rule="nonzero"/></clipPath></defs><g clip-path="url(#54a7a77df3)"><path fill="#ffffff" d="M 1.066406 0 L 1438.933594 0 L 1438.933594 681.492188 L 1.066406 681.492188 Z M 1.066406 0 " fill-opacity="1" fill-rule="nonzero"/><path fill="#ffffff" d="M 1.066406 0 L 1438.933594 0 L 1438.933594 674 L 1.066406 674 Z M 1.066406 0 " fill-opacity="1" fill-rule="nonzero"/><path fill="#141414" d="M 1.066406 0 L 1438.933594 0 L 1438.933594 674 L 1.066406 674 Z M 1.066406 0 " fill-opacity="1" fill-rule="nonzero"/></g><g clip-path="url(#47e00fb811)"><path fill="#9f0000" d="M 549.15625 118.265625 L 540.050781 118.265625 L 540.050781 109.152344 L 549.15625 109.152344 Z M 530.941406 100.042969 L 530.941406 90.933594 L 540.050781 90.933594 L 540.050781 100.042969 Z M 521.835938 100.042969 L 512.734375 100.042969 L 512.734375 90.933594 L 521.835938 90.933594 Z M 521.835938 118.265625 L 503.628906 118.265625 L 503.628906 109.152344 L 494.621094 109.152344 L 494.621094 100.042969 L 503.628906 100.042969 L 503.628906 109.152344 L 521.835938 109.152344 Z M 558.257812 118.265625 L 558.257812 100.042969 L 567.363281 100.042969 L 567.363281 81.820312 L 576.46875 81.820312 L 576.46875 63.597656 L 567.363281 63.597656 L 567.363281 72.714844 L 558.257812 72.714844 L 558.257812 63.597656 L 549.15625 63.597656 L 549.15625 81.820312 L 558.257812 81.820312 L 558.257812 90.933594 L 549.15625 90.933594 L 549.15625 81.820312 L 540.050781 81.820312 L 540.050781 72.714844 L 530.941406 72.714844 L 530.941406 63.597656 L 512.734375 63.597656 L 512.734375 72.714844 L 521.835938 72.714844 L 521.835938 81.820312 L 503.628906 81.820312 L 503.628906 63.597656 L -6.902344 63.597656 L -63.921875 136.488281 L 503.628906 136.488281 L 503.628906 127.375 L 512.734375 127.375 L 512.734375 136.488281 L 530.941406 136.488281 L 530.941406 127.375 L 540.050781 127.375 L 540.050781 136.488281 L 549.15625 136.488281 L 549.15625 127.375 L 558.257812 127.375 L 558.257812 127.378906 L 567.363281 127.378906 L 567.363281 118.265625 L 558.257812 118.265625 " fill-opacity="1" fill-rule="nonzero"/></g><g clip-path="url(#c5b306fd93)"><path fill="#9f0000" d="M 567.363281 136.488281 L 576.46875 136.488281 L 576.46875 127.378906 L 567.363281 127.378906 L 567.363281 136.488281 " fill-opacity="1" fill-rule="nonzero"/></g><path fill="#9f0000" d="M 585.570312 81.820312 L 603.082031 81.984375 L 603.082031 72.878906 L 585.570312 72.714844 L 585.570312 81.820312 " fill-opacity="1" fill-rule="nonzero"/><g clip-path="url(#9d8ef43ec4)"><path fill="#9f0000" d="M 621.292969 118.429688 L 612.1875 118.429688 L 612.1875 136.65625 L 630.394531 136.65625 L 630.394531 127.539062 L 621.292969 127.539062 L 621.292969 118.429688 " fill-opacity="1" fill-rule="nonzero"/></g><g clip-path="url(#90f5df0d18)"><path fill="#9f0000" d="M 612.1875 63.765625 L 603.082031 63.765625 L 603.082031 72.878906 L 612.1875 72.878906 L 612.1875 63.765625 " fill-opacity="1" fill-rule="nonzero"/></g><g clip-path="url(#3107c00aee)"><path fill="#9f0000" d="M 621.292969 63.765625 L 621.292969 72.878906 L 630.394531 72.878906 L 630.394531 63.765625 L 621.292969 63.765625 " fill-opacity="1" fill-rule="nonzero"/></g><g clip-path="url(#02cfb7b7ee)"><path fill="#9f0000" d="M 666.816406 63.765625 L 648.609375 63.765625 L 648.609375 72.878906 L 666.816406 72.878906 L 666.816406 63.765625 " fill-opacity="1" fill-rule="nonzero"/></g><path fill="#9f0000" d="M 648.609375 91.101562 L 657.714844 91.101562 L 657.714844 81.984375 L 648.609375 81.984375 L 648.609375 91.101562 " fill-opacity="1" fill-rule="nonzero"/><path fill="#9f0000" d="M 621.292969 91.101562 L 621.292969 100.210938 L 639.503906 100.210938 L 639.503906 91.101562 L 621.292969 91.101562 " fill-opacity="1" fill-rule="nonzero"/><path fill="#9f0000" d="M 648.609375 127.375 L 657.714844 127.375 L 657.714844 118.265625 L 648.609375 118.265625 L 648.609375 127.375 " fill-opacity="1" fill-rule="nonzero"/><path fill="#9f0000" d="M 593.976562 109.152344 L 585.570312 109.152344 L 585.570312 100.042969 L 594.679688 100.042969 L 594.679688 90.933594 L 576.46875 90.933594 L 576.46875 109.152344 L 567.363281 109.152344 L 567.363281 118.265625 L 576.46875 118.265625 L 576.46875 127.378906 L 585.570312 127.378906 L 585.570312 118.265625 L 594.679688 118.265625 L 594.679688 109.320312 L 603.082031 109.320312 L 603.082031 100.210938 L 593.976562 100.210938 L 593.976562 109.152344 " fill-opacity="1" fill-rule="nonzero"/><path fill="#9f0000" d="M 612.1875 109.320312 L 621.292969 109.320312 L 621.292969 100.210938 L 612.1875 100.210938 L 612.1875 109.320312 " fill-opacity="1" fill-rule="nonzero"/><path fill="#9f0000" d="M 612.1875 81.984375 L 612.1875 91.101562 L 621.292969 91.101562 L 621.292969 81.984375 L 612.1875 81.984375 " fill-opacity="1" fill-rule="nonzero"/><path fill="#9f0000" d="M 666.816406 91.101562 L 666.816406 100.210938 L 675.921875 100.210938 L 675.921875 91.101562 L 666.816406 91.101562 " fill-opacity="1" fill-rule="nonzero"/><path fill="#9f0000" d="M 630.394531 81.984375 L 639.503906 81.984375 L 639.503906 72.878906 L 630.394531 72.878906 L 630.394531 81.984375 " fill-opacity="1" fill-rule="nonzero"/><path fill="#9f0000" d="M 630.394531 127.539062 L 639.503906 127.539062 L 639.503906 118.429688 L 630.394531 118.429688 L 630.394531 127.539062 " fill-opacity="1" fill-rule="nonzero"/><g fill="#ffffff" fill-opacity="1"><g transform="translate(99.718225, 400.309147)"><g><path d="M 6.4375 -70.59375 L 52.453125 -70.59375 L 52.453125 -64.453125 L 13.1875 -64.453125 L 13.1875 -40.859375 L 48.28125 -40.859375 L 48.28125 -34.703125 L 13.1875 -34.703125 L 13.1875 0 L 6.4375 0 Z M 6.4375 -70.59375 "/></g></g></g><g fill="#ffffff" fill-opacity="1"><g transform="translate(154.844275, 400.309147)"><g><path d="M 3.265625 -23.796875 C 3.265625 -27.828125 3.828125 -31.410156 4.953125 -34.546875 C 6.078125 -37.691406 7.613281 -40.304688 9.5625 -42.390625 C 11.519531 -44.472656 13.800781 -46.054688 16.40625 -47.140625 C 19.019531 -48.234375 21.8125 -48.78125 24.78125 -48.78125 C 27.757812 -48.78125 30.550781 -48.234375 33.15625 -47.140625 C 35.769531 -46.054688 38.050781 -44.472656 40 -42.390625 C 41.957031 -40.304688 43.5 -37.691406 44.625 -34.546875 C 45.75 -31.410156 46.3125 -27.828125 46.3125 -23.796875 C 46.3125 -19.703125 45.75 -16.097656 44.625 -12.984375 C 43.5 -9.878906 41.957031 -7.285156 40 -5.203125 C 38.050781 -3.117188 35.769531 -1.53125 33.15625 -0.4375 C 30.550781 0.644531 27.757812 1.1875 24.78125 1.1875 C 21.8125 1.1875 19.019531 0.644531 16.40625 -0.4375 C 13.800781 -1.53125 11.519531 -3.117188 9.5625 -5.203125 C 7.613281 -7.285156 6.078125 -9.878906 4.953125 -12.984375 C 3.828125 -16.097656 3.265625 -19.703125 3.265625 -23.796875 Z M 24.78125 -43.234375 C 22.601562 -43.234375 20.554688 -42.785156 18.640625 -41.890625 C 16.722656 -41.003906 15.066406 -39.734375 13.671875 -38.078125 C 12.285156 -36.421875 11.195312 -34.382812 10.40625 -31.96875 C 9.613281 -29.5625 9.21875 -26.835938 9.21875 -23.796875 C 9.21875 -20.691406 9.613281 -17.945312 10.40625 -15.5625 C 11.195312 -13.1875 12.285156 -11.15625 13.671875 -9.46875 C 15.066406 -7.78125 16.722656 -6.503906 18.640625 -5.640625 C 20.554688 -4.785156 22.601562 -4.359375 24.78125 -4.359375 C 26.96875 -4.359375 29.019531 -4.785156 30.9375 -5.640625 C 32.851562 -6.503906 34.503906 -7.78125 35.890625 -9.46875 C 37.285156 -11.15625 38.378906 -13.1875 39.171875 -15.5625 C 39.960938 -17.945312 40.359375 -20.691406 40.359375 -23.796875 C 40.359375 -26.835938 39.960938 -29.5625 39.171875 -31.96875 C 38.378906 -34.382812 37.285156 -36.421875 35.890625 -38.078125 C 34.503906 -39.734375 32.851562 -41.003906 30.9375 -41.890625 C 29.019531 -42.785156 26.96875 -43.234375 24.78125 -43.234375 Z M 24.78125 -43.234375 "/></g></g></g><g fill="#ffffff" fill-opacity="1"><g transform="translate(204.418056, 400.309147)"><g><path d="M 7.140625 -47.59375 L 13.09375 -47.59375 L 13.09375 -40.953125 L 13.28125 -40.953125 C 14.9375 -43.460938 16.722656 -45.394531 18.640625 -46.75 C 20.554688 -48.101562 23.066406 -48.78125 26.171875 -48.78125 C 26.960938 -48.78125 27.6875 -48.765625 28.34375 -48.734375 C 29.007812 -48.703125 29.707031 -48.65625 30.4375 -48.59375 L 30.4375 -43.4375 C 29.1875 -43.695312 27.863281 -43.828125 26.46875 -43.828125 C 21.84375 -43.828125 18.457031 -42.304688 16.3125 -39.265625 C 14.164062 -36.222656 13.09375 -32.253906 13.09375 -27.359375 L 13.09375 0 L 7.140625 0 Z M 7.140625 -47.59375 "/></g></g></g><g fill="#ffffff" fill-opacity="1"><g transform="translate(233.765739, 400.309147)"><g/></g></g><g fill="#ffffff" fill-opacity="1"><g transform="translate(261.328764, 400.309147)"><g><path d="M 26.875 -29.453125 L 0.296875 -70.59375 L 8.421875 -70.59375 L 30.4375 -35.703125 L 52.453125 -70.59375 L 60.1875 -70.59375 L 33.609375 -29.453125 L 33.609375 0 L 26.875 0 Z M 26.875 -29.453125 "/></g></g></g><g fill="#ffffff" fill-opacity="1"><g transform="translate(321.808776, 400.309147)"><g><path d="M 3.265625 -23.796875 C 3.265625 -27.828125 3.828125 -31.410156 4.953125 -34.546875 C 6.078125 -37.691406 7.613281 -40.304688 9.5625 -42.390625 C 11.519531 -44.472656 13.800781 -46.054688 16.40625 -47.140625 C 19.019531 -48.234375 21.8125 -48.78125 24.78125 -48.78125 C 27.757812 -48.78125 30.550781 -48.234375 33.15625 -47.140625 C 35.769531 -46.054688 38.050781 -44.472656 40 -42.390625 C 41.957031 -40.304688 43.5 -37.691406 44.625 -34.546875 C 45.75 -31.410156 46.3125 -27.828125 46.3125 -23.796875 C 46.3125 -19.703125 45.75 -16.097656 44.625 -12.984375 C 43.5 -9.878906 41.957031 -7.285156 40 -5.203125 C 38.050781 -3.117188 35.769531 -1.53125 33.15625 -0.4375 C 30.550781 0.644531 27.757812 1.1875 24.78125 1.1875 C 21.8125 1.1875 19.019531 0.644531 16.40625 -0.4375 C 13.800781 -1.53125 11.519531 -3.117188 9.5625 -5.203125 C 7.613281 -7.285156 6.078125 -9.878906 4.953125 -12.984375 C 3.828125 -16.097656 3.265625 -19.703125 3.265625 -23.796875 Z M 24.78125 -43.234375 C 22.601562 -43.234375 20.554688 -42.785156 18.640625 -41.890625 C 16.722656 -41.003906 15.066406 -39.734375 13.671875 -38.078125 C 12.285156 -36.421875 11.195312 -34.382812 10.40625 -31.96875 C 9.613281 -29.5625 9.21875 -26.835938 9.21875 -23.796875 C 9.21875 -20.691406 9.613281 -17.945312 10.40625 -15.5625 C 11.195312 -13.1875 12.285156 -11.15625 13.671875 -9.46875 C 15.066406 -7.78125 16.722656 -6.503906 18.640625 -5.640625 C 20.554688 -4.785156 22.601562 -4.359375 24.78125 -4.359375 C 26.96875 -4.359375 29.019531 -4.785156 30.9375 -5.640625 C 32.851562 -6.503906 34.503906 -7.78125 35.890625 -9.46875 C 37.285156 -11.15625 38.378906 -13.1875 39.171875 -15.5625 C 39.960938 -17.945312 40.359375 -20.691406 40.359375 -23.796875 C 40.359375 -26.835938 39.960938 -29.5625 39.171875 -31.96875 C 38.378906 -34.382812 37.285156 -36.421875 35.890625 -38.078125 C 34.503906 -39.734375 32.851562 -41.003906 30.9375 -41.890625 C 29.019531 -42.785156 26.96875 -43.234375 24.78125 -43.234375 Z M 24.78125 -43.234375 "/></g></g></g><g fill="#ffffff" fill-opacity="1"><g transform="translate(371.382545, 400.309147)"><g><path d="M 37.375 -6.9375 L 37.1875 -6.9375 C 35.664062 -3.96875 33.613281 -1.867188 31.03125 -0.640625 C 28.457031 0.578125 25.78125 1.1875 23 1.1875 C 17.113281 1.1875 12.847656 -0.347656 10.203125 -3.421875 C 7.566406 -6.492188 6.25 -10.476562 6.25 -15.375 L 6.25 -47.59375 L 12.203125 -47.59375 L 12.203125 -17.15625 C 12.203125 -12.332031 13.191406 -8.992188 15.171875 -7.140625 C 17.148438 -5.285156 20.023438 -4.359375 23.796875 -4.359375 C 25.578125 -4.359375 27.296875 -4.65625 28.953125 -5.25 C 30.609375 -5.84375 32.046875 -6.785156 33.265625 -8.078125 C 34.484375 -9.367188 35.472656 -10.972656 36.234375 -12.890625 C 36.992188 -14.804688 37.375 -17.117188 37.375 -19.828125 L 37.375 -47.59375 L 43.328125 -47.59375 L 43.328125 0 L 37.375 0 Z M 37.375 -6.9375 "/></g></g></g><g fill="#ffffff" fill-opacity="1"><g transform="translate(420.956315, 400.309147)"><g><path d="M 7.140625 -47.59375 L 13.09375 -47.59375 L 13.09375 -40.953125 L 13.28125 -40.953125 C 14.9375 -43.460938 16.722656 -45.394531 18.640625 -46.75 C 20.554688 -48.101562 23.066406 -48.78125 26.171875 -48.78125 C 26.960938 -48.78125 27.6875 -48.765625 28.34375 -48.734375 C 29.007812 -48.703125 29.707031 -48.65625 30.4375 -48.59375 L 30.4375 -43.4375 C 29.1875 -43.695312 27.863281 -43.828125 26.46875 -43.828125 C 21.84375 -43.828125 18.457031 -42.304688 16.3125 -39.265625 C 14.164062 -36.222656 13.09375 -32.253906 13.09375 -27.359375 L 13.09375 0 L 7.140625 0 Z M 7.140625 -47.59375 "/></g></g></g><g fill="#ffffff" fill-opacity="1"><g transform="translate(450.303998, 400.309147)"><g/></g></g><g fill="#ffffff" fill-opacity="1"><g transform="translate(477.867023, 400.309147)"><g><path d="M 13.1875 -40.859375 L 34.796875 -40.859375 C 39.953125 -40.859375 43.953125 -41.863281 46.796875 -43.875 C 49.640625 -45.894531 51.0625 -48.851562 51.0625 -52.75 C 51.0625 -57.113281 49.769531 -60.15625 47.1875 -61.875 C 44.613281 -63.59375 40.6875 -64.453125 35.40625 -64.453125 L 13.1875 -64.453125 Z M 6.4375 -70.59375 L 36.78125 -70.59375 C 41.414062 -70.59375 45.117188 -69.914062 47.890625 -68.5625 C 50.671875 -67.207031 52.800781 -65.617188 54.28125 -63.796875 C 55.769531 -61.984375 56.726562 -60.148438 57.15625 -58.296875 C 57.59375 -56.453125 57.8125 -55.035156 57.8125 -54.046875 C 57.8125 -49.410156 56.785156 -45.835938 54.734375 -43.328125 C 52.679688 -40.816406 49.410156 -39.132812 44.921875 -38.28125 L 44.921875 -38.078125 C 47.492188 -37.804688 49.753906 -37.140625 51.703125 -36.078125 C 53.660156 -35.023438 55.28125 -33.65625 56.5625 -31.96875 C 57.851562 -30.289062 58.8125 -28.394531 59.4375 -26.28125 C 60.070312 -24.164062 60.390625 -21.953125 60.390625 -19.640625 C 60.390625 -17.054688 59.957031 -14.585938 59.09375 -12.234375 C 58.238281 -9.890625 56.882812 -7.804688 55.03125 -5.984375 C 53.175781 -4.171875 50.796875 -2.71875 47.890625 -1.625 C 44.984375 -0.539062 41.515625 0 37.484375 0 L 6.4375 0 Z M 13.1875 -6.140625 L 37.578125 -6.140625 C 40.421875 -6.140625 42.863281 -6.519531 44.90625 -7.28125 C 46.957031 -8.039062 48.628906 -9.066406 49.921875 -10.359375 C 51.210938 -11.648438 52.15625 -13.085938 52.75 -14.671875 C 53.34375 -16.265625 53.640625 -17.921875 53.640625 -19.640625 C 53.640625 -24.128906 52.066406 -27.757812 48.921875 -30.53125 C 45.785156 -33.3125 41.210938 -34.703125 35.203125 -34.703125 L 13.1875 -34.703125 Z M 13.1875 -6.140625 "/></g></g></g><g fill="#ffffff" fill-opacity="1"><g transform="translate(542.114646, 400.309147)"><g><path d="M 37.375 -6.9375 L 37.1875 -6.9375 C 35.664062 -3.96875 33.613281 -1.867188 31.03125 -0.640625 C 28.457031 0.578125 25.78125 1.1875 23 1.1875 C 17.113281 1.1875 12.847656 -0.347656 10.203125 -3.421875 C 7.566406 -6.492188 6.25 -10.476562 6.25 -15.375 L 6.25 -47.59375 L 12.203125 -47.59375 L 12.203125 -17.15625 C 12.203125 -12.332031 13.191406 -8.992188 15.171875 -7.140625 C 17.148438 -5.285156 20.023438 -4.359375 23.796875 -4.359375 C 25.578125 -4.359375 27.296875 -4.65625 28.953125 -5.25 C 30.609375 -5.84375 32.046875 -6.785156 33.265625 -8.078125 C 34.484375 -9.367188 35.472656 -10.972656 36.234375 -12.890625 C 36.992188 -14.804688 37.375 -17.117188 37.375 -19.828125 L 37.375 -47.59375 L 43.328125 -47.59375 L 43.328125 0 L 37.375 0 Z M 37.375 -6.9375 "/></g></g></g><g fill="#ffffff" fill-opacity="1"><g transform="translate(591.688415, 400.309147)"><g><path d="M 8.234375 -13.1875 C 9.554688 -9.75 11.238281 -7.316406 13.28125 -5.890625 C 15.332031 -4.472656 18.242188 -3.765625 22.015625 -3.765625 C 23.203125 -3.765625 24.488281 -3.894531 25.875 -4.15625 C 27.269531 -4.425781 28.523438 -4.925781 29.640625 -5.65625 C 30.765625 -6.382812 31.707031 -7.375 32.46875 -8.625 C 33.226562 -9.882812 33.609375 -11.503906 33.609375 -13.484375 C 33.609375 -15.867188 32.914062 -17.617188 31.53125 -18.734375 C 30.144531 -19.859375 28.410156 -20.71875 26.328125 -21.3125 C 24.242188 -21.914062 21.976562 -22.414062 19.53125 -22.8125 C 17.082031 -23.207031 14.816406 -23.832031 12.734375 -24.6875 C 10.660156 -25.550781 8.925781 -26.804688 7.53125 -28.453125 C 6.144531 -30.109375 5.453125 -32.523438 5.453125 -35.703125 C 5.453125 -37.421875 5.796875 -39.070312 6.484375 -40.65625 C 7.179688 -42.238281 8.222656 -43.625 9.609375 -44.8125 C 11.003906 -46.007812 12.707031 -46.96875 14.71875 -47.6875 C 16.738281 -48.414062 19.070312 -48.78125 21.71875 -48.78125 C 26.40625 -48.78125 30.285156 -47.988281 33.359375 -46.40625 C 36.441406 -44.820312 38.539062 -42.015625 39.65625 -37.984375 L 34.015625 -36.59375 C 32.953125 -39.5625 31.476562 -41.507812 29.59375 -42.4375 C 27.707031 -43.363281 25.378906 -43.828125 22.609375 -43.828125 C 20.359375 -43.828125 18.503906 -43.609375 17.046875 -43.171875 C 15.597656 -42.742188 14.457031 -42.164062 13.625 -41.4375 C 12.800781 -40.71875 12.222656 -39.84375 11.890625 -38.8125 C 11.566406 -37.789062 11.40625 -36.6875 11.40625 -35.5 C 11.40625 -33.445312 12.097656 -31.925781 13.484375 -30.9375 C 14.867188 -29.945312 16.601562 -29.15625 18.6875 -28.5625 C 20.769531 -27.96875 23.035156 -27.4375 25.484375 -26.96875 C 27.929688 -26.507812 30.195312 -25.800781 32.28125 -24.84375 C 34.363281 -23.882812 36.097656 -22.507812 37.484375 -20.71875 C 38.867188 -18.9375 39.5625 -16.457031 39.5625 -13.28125 C 39.5625 -11.300781 39.164062 -9.4375 38.375 -7.6875 C 37.582031 -5.9375 36.390625 -4.398438 34.796875 -3.078125 C 33.210938 -1.753906 31.28125 -0.710938 29 0.046875 C 26.71875 0.804688 24.09375 1.1875 21.125 1.1875 C 19.332031 1.1875 17.5625 1.019531 15.8125 0.6875 C 14.0625 0.363281 12.390625 -0.242188 10.796875 -1.140625 C 9.210938 -2.035156 7.710938 -3.304688 6.296875 -4.953125 C 4.878906 -6.609375 3.609375 -8.757812 2.484375 -11.40625 Z M 8.234375 -13.1875 "/></g></g></g><g fill="#ffffff" fill-opacity="1"><g transform="translate(635.709952, 400.309147)"><g><path d="M 6.25 -47.59375 L 12.203125 -47.59375 L 12.203125 0 L 6.25 0 Z M 6.25 -67.234375 L 12.203125 -67.234375 L 12.203125 -57.90625 L 6.25 -57.90625 Z M 6.25 -67.234375 "/></g></g></g><g fill="#ffffff" fill-opacity="1"><g transform="translate(654.151427, 400.309147)"><g><path d="M 6.25 -47.59375 L 12.203125 -47.59375 L 12.203125 -40.65625 L 12.390625 -40.65625 C 13.910156 -43.625 15.957031 -45.71875 18.53125 -46.9375 C 21.113281 -48.164062 23.796875 -48.78125 26.578125 -48.78125 C 29.484375 -48.78125 31.992188 -48.382812 34.109375 -47.59375 C 36.222656 -46.800781 37.957031 -45.675781 39.3125 -44.21875 C 40.664062 -42.769531 41.671875 -41.019531 42.328125 -38.96875 C 42.992188 -36.914062 43.328125 -34.664062 43.328125 -32.21875 L 43.328125 0 L 37.375 0 L 37.375 -30.4375 C 37.375 -35.257812 36.382812 -38.597656 34.40625 -40.453125 C 32.425781 -42.304688 29.550781 -43.234375 25.78125 -43.234375 C 24 -43.234375 22.28125 -42.9375 20.625 -42.34375 C 18.96875 -41.75 17.53125 -40.804688 16.3125 -39.515625 C 15.09375 -38.222656 14.101562 -36.601562 13.34375 -34.65625 C 12.582031 -32.707031 12.203125 -30.410156 12.203125 -27.765625 L 12.203125 0 L 6.25 0 Z M 6.25 -47.59375 "/></g></g></g><g fill="#ffffff" fill-opacity="1"><g transform="translate(703.725197, 400.309147)"><g><path d="M 39.5625 -28.953125 C 39.226562 -30.671875 38.726562 -32.390625 38.0625 -34.109375 C 37.40625 -35.828125 36.515625 -37.363281 35.390625 -38.71875 C 34.273438 -40.070312 32.835938 -41.160156 31.078125 -41.984375 C 29.328125 -42.816406 27.226562 -43.234375 24.78125 -43.234375 C 22.664062 -43.234375 20.75 -42.851562 19.03125 -42.09375 C 17.3125 -41.332031 15.820312 -40.304688 14.5625 -39.015625 C 13.3125 -37.722656 12.304688 -36.21875 11.546875 -34.5 C 10.785156 -32.78125 10.273438 -30.929688 10.015625 -28.953125 Z M 10.015625 -24 L 10.015625 -22.703125 C 10.015625 -20.054688 10.3125 -17.609375 10.90625 -15.359375 C 11.5 -13.117188 12.421875 -11.1875 13.671875 -9.5625 C 14.929688 -7.945312 16.519531 -6.675781 18.4375 -5.75 C 20.351562 -4.820312 22.632812 -4.359375 25.28125 -4.359375 C 29.445312 -4.359375 32.703125 -5.25 35.046875 -7.03125 C 37.398438 -8.820312 39.300781 -11.304688 40.75 -14.484375 L 46.3125 -12.984375 C 44.519531 -8.554688 41.804688 -5.085938 38.171875 -2.578125 C 34.535156 -0.0664062 30.070312 1.1875 24.78125 1.1875 C 21.8125 1.1875 19.019531 0.644531 16.40625 -0.4375 C 13.800781 -1.53125 11.519531 -3.117188 9.5625 -5.203125 C 7.613281 -7.285156 6.078125 -9.878906 4.953125 -12.984375 C 3.828125 -16.097656 3.265625 -19.703125 3.265625 -23.796875 C 3.265625 -27.828125 3.828125 -31.410156 4.953125 -34.546875 C 6.078125 -37.691406 7.613281 -40.304688 9.5625 -42.390625 C 11.519531 -44.472656 13.800781 -46.054688 16.40625 -47.140625 C 19.019531 -48.234375 21.8125 -48.78125 24.78125 -48.78125 C 28.289062 -48.78125 31.367188 -48.148438 34.015625 -46.890625 C 36.660156 -45.640625 38.875 -43.90625 40.65625 -41.6875 C 42.4375 -39.476562 43.789062 -36.851562 44.71875 -33.8125 C 45.644531 -30.769531 46.175781 -27.5 46.3125 -24 Z M 10.015625 -24 "/></g></g></g><g fill="#ffffff" fill-opacity="1"><g transform="translate(753.298966, 400.309147)"><g><path d="M 8.234375 -13.1875 C 9.554688 -9.75 11.238281 -7.316406 13.28125 -5.890625 C 15.332031 -4.472656 18.242188 -3.765625 22.015625 -3.765625 C 23.203125 -3.765625 24.488281 -3.894531 25.875 -4.15625 C 27.269531 -4.425781 28.523438 -4.925781 29.640625 -5.65625 C 30.765625 -6.382812 31.707031 -7.375 32.46875 -8.625 C 33.226562 -9.882812 33.609375 -11.503906 33.609375 -13.484375 C 33.609375 -15.867188 32.914062 -17.617188 31.53125 -18.734375 C 30.144531 -19.859375 28.410156 -20.71875 26.328125 -21.3125 C 24.242188 -21.914062 21.976562 -22.414062 19.53125 -22.8125 C 17.082031 -23.207031 14.816406 -23.832031 12.734375 -24.6875 C 10.660156 -25.550781 8.925781 -26.804688 7.53125 -28.453125 C 6.144531 -30.109375 5.453125 -32.523438 5.453125 -35.703125 C 5.453125 -37.421875 5.796875 -39.070312 6.484375 -40.65625 C 7.179688 -42.238281 8.222656 -43.625 9.609375 -44.8125 C 11.003906 -46.007812 12.707031 -46.96875 14.71875 -47.6875 C 16.738281 -48.414062 19.070312 -48.78125 21.71875 -48.78125 C 26.40625 -48.78125 30.285156 -47.988281 33.359375 -46.40625 C 36.441406 -44.820312 38.539062 -42.015625 39.65625 -37.984375 L 34.015625 -36.59375 C 32.953125 -39.5625 31.476562 -41.507812 29.59375 -42.4375 C 27.707031 -43.363281 25.378906 -43.828125 22.609375 -43.828125 C 20.359375 -43.828125 18.503906 -43.609375 17.046875 -43.171875 C 15.597656 -42.742188 14.457031 -42.164062 13.625 -41.4375 C 12.800781 -40.71875 12.222656 -39.84375 11.890625 -38.8125 C 11.566406 -37.789062 11.40625 -36.6875 11.40625 -35.5 C 11.40625 -33.445312 12.097656 -31.925781 13.484375 -30.9375 C 14.867188 -29.945312 16.601562 -29.15625 18.6875 -28.5625 C 20.769531 -27.96875 23.035156 -27.4375 25.484375 -26.96875 C 27.929688 -26.507812 30.195312 -25.800781 32.28125 -24.84375 C 34.363281 -23.882812 36.097656 -22.507812 37.484375 -20.71875 C 38.867188 -18.9375 39.5625 -16.457031 39.5625 -13.28125 C 39.5625 -11.300781 39.164062 -9.4375 38.375 -7.6875 C 37.582031 -5.9375 36.390625 -4.398438 34.796875 -3.078125 C 33.210938 -1.753906 31.28125 -0.710938 29 0.046875 C 26.71875 0.804688 24.09375 1.1875 21.125 1.1875 C 19.332031 1.1875 17.5625 1.019531 15.8125 0.6875 C 14.0625 0.363281 12.390625 -0.242188 10.796875 -1.140625 C 9.210938 -2.035156 7.710938 -3.304688 6.296875 -4.953125 C 4.878906 -6.609375 3.609375 -8.757812 2.484375 -11.40625 Z M 8.234375 -13.1875 "/></g></g></g><g fill="#ffffff" fill-opacity="1"><g transform="translate(797.320503, 400.309147)"><g><path d="M 8.234375 -13.1875 C 9.554688 -9.75 11.238281 -7.316406 13.28125 -5.890625 C 15.332031 -4.472656 18.242188 -3.765625 22.015625 -3.765625 C 23.203125 -3.765625 24.488281 -3.894531 25.875 -4.15625 C 27.269531 -4.425781 28.523438 -4.925781 29.640625 -5.65625 C 30.765625 -6.382812 31.707031 -7.375 32.46875 -8.625 C 33.226562 -9.882812 33.609375 -11.503906 33.609375 -13.484375 C 33.609375 -15.867188 32.914062 -17.617188 31.53125 -18.734375 C 30.144531 -19.859375 28.410156 -20.71875 26.328125 -21.3125 C 24.242188 -21.914062 21.976562 -22.414062 19.53125 -22.8125 C 17.082031 -23.207031 14.816406 -23.832031 12.734375 -24.6875 C 10.660156 -25.550781 8.925781 -26.804688 7.53125 -28.453125 C 6.144531 -30.109375 5.453125 -32.523438 5.453125 -35.703125 C 5.453125 -37.421875 5.796875 -39.070312 6.484375 -40.65625 C 7.179688 -42.238281 8.222656 -43.625 9.609375 -44.8125 C 11.003906 -46.007812 12.707031 -46.96875 14.71875 -47.6875 C 16.738281 -48.414062 19.070312 -48.78125 21.71875 -48.78125 C 26.40625 -48.78125 30.285156 -47.988281 33.359375 -46.40625 C 36.441406 -44.820312 38.539062 -42.015625 39.65625 -37.984375 L 34.015625 -36.59375 C 32.953125 -39.5625 31.476562 -41.507812 29.59375 -42.4375 C 27.707031 -43.363281 25.378906 -43.828125 22.609375 -43.828125 C 20.359375 -43.828125 18.503906 -43.609375 17.046875 -43.171875 C 15.597656 -42.742188 14.457031 -42.164062 13.625 -41.4375 C 12.800781 -40.71875 12.222656 -39.84375 11.890625 -38.8125 C 11.566406 -37.789062 11.40625 -36.6875 11.40625 -35.5 C 11.40625 -33.445312 12.097656 -31.925781 13.484375 -30.9375 C 14.867188 -29.945312 16.601562 -29.15625 18.6875 -28.5625 C 20.769531 -27.96875 23.035156 -27.4375 25.484375 -26.96875 C 27.929688 -26.507812 30.195312 -25.800781 32.28125 -24.84375 C 34.363281 -23.882812 36.097656 -22.507812 37.484375 -20.71875 C 38.867188 -18.9375 39.5625 -16.457031 39.5625 -13.28125 C 39.5625 -11.300781 39.164062 -9.4375 38.375 -7.6875 C 37.582031 -5.9375 36.390625 -4.398438 34.796875 -3.078125 C 33.210938 -1.753906 31.28125 -0.710938 29 0.046875 C 26.71875 0.804688 24.09375 1.1875 21.125 1.1875 C 19.332031 1.1875 17.5625 1.019531 15.8125 0.6875 C 14.0625 0.363281 12.390625 -0.242188 10.796875 -1.140625 C 9.210938 -2.035156 7.710938 -3.304688 6.296875 -4.953125 C 4.878906 -6.609375 3.609375 -8.757812 2.484375 -11.40625 Z M 8.234375 -13.1875 "/></g></g></g><path stroke-linecap="butt" transform="matrix(11.980059, 0, 0, 12.233123, 99.718225, 430.823235)" fill="none" stroke-linejoin="miter" d="M 0.0000438057 0.000080445 L 74.826537 0.000080445 " stroke="#9f0000" stroke-width="1" stroke-opacity="1" stroke-miterlimit="4"/><g clip-path="url(#23a46bd1a7)"><path fill="#ffffff" d="M 99.726562 78.613281 L 115.125 109.945312 L 113.261719 115.714844 L 154.378906 69.546875 L 122.640625 99.027344 L 112.691406 78.613281 Z M 99.726562 78.613281 " fill-opacity="1" fill-rule="evenodd"/></g><g clip-path="url(#84dd101a4a)"><path fill="#ffffff" d="M 154.378906 69.546875 L 119.953125 119.320312 L 124.773438 128.707031 Z M 154.378906 69.546875 " fill-opacity="1" fill-rule="evenodd"/></g><g clip-path="url(#64f6866ec6)"><path fill="#9f0000" d="M 139.699219 459.308594 L 484.753906 459.308594 C 494.113281 459.308594 503.085938 463.015625 509.703125 469.617188 C 516.320312 476.21875 520.039062 485.171875 520.039062 494.503906 C 520.039062 503.839844 516.320312 512.792969 509.703125 519.394531 C 503.085938 525.996094 494.113281 529.703125 484.753906 529.703125 L 139.699219 529.703125 C 130.34375 529.703125 121.367188 525.996094 114.75 519.394531 C 108.132812 512.792969 104.417969 503.839844 104.417969 494.503906 C 104.417969 485.171875 108.132812 476.21875 114.75 469.617188 C 121.367188 463.015625 130.34375 459.308594 139.699219 459.308594 " fill-opacity="1" fill-rule="nonzero"/></g><path fill="#9f0000" d="M 1249.050781 301.039062 C 1248.574219 278.550781 1238.148438 258.03125 1220.382812 244.375 L 1211.117188 254.832031 C 1226 265.898438 1234.738281 282.785156 1235.140625 301.335938 C 1235.53125 319.878906 1227.519531 337.121094 1213.148438 348.824219 L 1222.839844 358.871094 C 1240.007812 344.472656 1249.53125 323.523438 1249.050781 301.039062 " fill-opacity="1" fill-rule="nonzero"/><path fill="#ffffff" d="M 1249.050781 301.039062 L 1250.910156 300.996094 C 1250.421875 277.957031 1239.722656 256.890625 1221.515625 242.90625 C 1220.738281 242.308594 1219.632812 242.410156 1218.988281 243.144531 L 1209.726562 253.601562 C 1209.382812 253.992188 1209.214844 254.511719 1209.273438 255.027344 C 1209.324219 255.539062 1209.589844 256.015625 1210.007812 256.324219 C 1224.4375 267.058594 1232.890625 283.386719 1233.28125 301.375 C 1233.285156 301.800781 1233.292969 302.222656 1233.292969 302.648438 C 1233.285156 320.136719 1225.578125 336.292969 1211.972656 347.382812 C 1211.570312 347.710938 1211.320312 348.195312 1211.289062 348.710938 C 1211.261719 349.230469 1211.449219 349.738281 1211.808594 350.109375 L 1221.503906 360.15625 C 1222.175781 360.863281 1223.285156 360.921875 1224.035156 360.292969 C 1241.207031 345.898438 1250.929688 325.054688 1250.925781 302.644531 C 1250.925781 302.097656 1250.917969 301.546875 1250.910156 301 L 1250.910156 300.996094 L 1249.050781 301.039062 L 1247.195312 301.070312 C 1247.203125 301.597656 1247.207031 302.121094 1247.207031 302.644531 C 1247.207031 323.984375 1237.984375 343.734375 1221.644531 357.449219 L 1222.839844 358.871094 L 1224.175781 357.582031 L 1214.484375 347.53125 L 1213.148438 348.824219 L 1214.320312 350.265625 C 1228.777344 338.496094 1237.011719 321.242188 1237.007812 302.648438 C 1237.007812 302.199219 1237.003906 301.75 1236.992188 301.292969 C 1236.589844 282.183594 1227.558594 264.738281 1212.226562 253.34375 L 1211.117188 254.832031 L 1212.507812 256.0625 L 1221.769531 245.601562 L 1220.382812 244.375 L 1219.246094 245.84375 C 1236.582031 259.171875 1246.71875 279.140625 1247.195312 301.078125 L 1247.195312 301.070312 L 1249.050781 301.039062 " fill-opacity="1" fill-rule="nonzero"/><path fill="#9f0000" d="M 1227.058594 301.507812 C 1226.714844 285.269531 1218.8125 270.339844 1205.753906 260.898438 L 1196.316406 271.570312 C 1206.464844 278.359375 1212.648438 289.578125 1212.914062 301.816406 C 1213.171875 314.046875 1207.472656 325.503906 1197.640625 332.734375 L 1207.523438 342.988281 C 1220.152344 332.988281 1227.40625 317.746094 1227.058594 301.507812 " fill-opacity="1" fill-rule="nonzero"/><path fill="#ffffff" d="M 1227.058594 301.507812 L 1228.917969 301.46875 C 1228.5625 284.648438 1220.371094 269.171875 1206.847656 259.390625 C 1206.070312 258.828125 1205 258.949219 1204.363281 259.664062 L 1194.925781 270.339844 C 1194.566406 270.742188 1194.402344 271.273438 1194.472656 271.808594 C 1194.542969 272.34375 1194.835938 272.8125 1195.28125 273.113281 C 1204.9375 279.574219 1210.800781 290.214844 1211.058594 301.855469 C 1211.0625 302.101562 1211.0625 302.351562 1211.066406 302.605469 C 1211.0625 313.949219 1205.6875 324.507812 1196.539062 331.234375 C 1196.105469 331.554688 1195.835938 332.039062 1195.789062 332.574219 C 1195.742188 333.113281 1195.929688 333.632812 1196.304688 334.019531 L 1206.183594 344.277344 C 1206.851562 344.96875 1207.925781 345.035156 1208.675781 344.445312 C 1221.460938 334.324219 1228.933594 319.003906 1228.925781 302.617188 C 1228.925781 302.230469 1228.921875 301.851562 1228.917969 301.46875 L 1225.199219 301.546875 C 1225.207031 301.902344 1225.210938 302.261719 1225.210938 302.617188 C 1225.210938 317.871094 1218.273438 332.105469 1206.367188 341.53125 L 1207.523438 342.988281 L 1208.863281 341.699219 L 1198.980469 331.445312 L 1197.640625 332.734375 L 1198.742188 334.230469 C 1208.832031 326.8125 1214.78125 315.128906 1214.78125 302.605469 C 1214.777344 302.328125 1214.777344 302.054688 1214.773438 301.777344 C 1214.496094 288.929688 1208 277.144531 1197.347656 270.027344 L 1196.316406 271.570312 L 1197.707031 272.796875 L 1207.148438 262.125 L 1205.753906 260.898438 L 1204.664062 262.402344 C 1217.253906 271.507812 1224.867188 285.886719 1225.199219 301.546875 L 1227.058594 301.507812 " fill-opacity="1" fill-rule="nonzero"/><path fill="#9f0000" d="M 1205.828125 301.957031 C 1205.609375 291.59375 1200.160156 282.265625 1191.574219 276.925781 L 1182.125 287.613281 C 1187.960938 290.1875 1191.78125 295.84375 1191.917969 302.269531 C 1192.054688 308.664062 1188.484375 314.492188 1182.765625 317.300781 L 1192.667969 327.574219 C 1201.007812 321.863281 1206.050781 312.324219 1205.828125 301.957031 " fill-opacity="1" fill-rule="nonzero"/><path fill="#ffffff" d="M 1205.828125 301.957031 L 1207.679688 301.917969 C 1207.453125 290.921875 1201.664062 281.019531 1192.558594 275.351562 C 1191.785156 274.867188 1190.78125 275.015625 1190.183594 275.695312 L 1180.730469 286.382812 C 1180.339844 286.820312 1180.179688 287.433594 1180.304688 288.011719 C 1180.4375 288.585938 1180.832031 289.074219 1181.375 289.3125 C 1186.558594 291.597656 1189.9375 296.605469 1190.0625 302.308594 L 1190.0625 302.304688 L 1190.066406 302.613281 C 1190.0625 308.164062 1186.925781 313.179688 1181.945312 315.636719 C 1181.414062 315.898438 1181.039062 316.402344 1180.9375 316.980469 C 1180.832031 317.5625 1181.019531 318.164062 1181.429688 318.589844 L 1191.328125 328.867188 C 1191.964844 329.519531 1192.96875 329.621094 1193.71875 329.109375 C 1202.375 323.179688 1207.6875 313.34375 1207.6875 302.625 C 1207.6875 302.386719 1207.683594 302.148438 1207.679688 301.917969 L 1205.828125 301.957031 L 1203.96875 301.996094 C 1203.96875 302.203125 1203.972656 302.414062 1203.972656 302.625 C 1203.972656 312.109375 1199.28125 320.796875 1191.621094 326.042969 L 1192.667969 327.574219 L 1194.011719 326.289062 L 1184.105469 316.011719 L 1182.765625 317.300781 L 1183.585938 318.96875 C 1189.828125 315.898438 1193.78125 309.578125 1193.78125 302.613281 C 1193.78125 302.484375 1193.777344 302.359375 1193.777344 302.230469 L 1193.777344 302.226562 C 1193.621094 295.085938 1189.363281 288.769531 1182.871094 285.910156 L 1182.125 287.613281 L 1183.515625 288.84375 L 1192.964844 278.15625 L 1191.574219 276.925781 L 1190.59375 278.5 C 1198.652344 283.519531 1203.761719 292.265625 1203.96875 301.996094 L 1205.828125 301.957031 " fill-opacity="1" fill-rule="nonzero"/><path fill="#9f0000" d="M 1049.105469 325.539062 L 1120.789062 413.488281 " fill-opacity="1" fill-rule="nonzero"/><path fill="#ffffff" d="M 1047.667969 326.714844 L 1119.351562 414.664062 C 1120 415.457031 1121.171875 415.578125 1121.964844 414.929688 C 1122.757812 414.28125 1122.878906 413.113281 1122.230469 412.3125 L 1050.546875 324.363281 C 1049.898438 323.570312 1048.730469 323.449219 1047.9375 324.097656 C 1047.136719 324.746094 1047.019531 325.917969 1047.667969 326.714844 " fill-opacity="1" fill-rule="nonzero"/><path fill="#9f0000" d="M 1173.613281 522.242188 L 1091.355469 421.324219 L 1135.394531 385.472656 L 1217.65625 486.398438 L 1173.613281 522.242188 " fill-opacity="1" fill-rule="nonzero"/><path fill="#ffffff" d="M 1173.613281 522.242188 L 1175.050781 521.070312 L 1093.96875 421.589844 L 1135.125 388.082031 L 1215.039062 486.132812 L 1172.4375 520.804688 L 1173.613281 522.242188 L 1175.050781 521.070312 L 1173.613281 522.242188 L 1174.785156 523.683594 L 1218.828125 487.839844 C 1219.210938 487.527344 1219.453125 487.082031 1219.503906 486.589844 C 1219.554688 486.09375 1219.410156 485.613281 1219.09375 485.226562 L 1136.835938 384.296875 C 1136.1875 383.503906 1135.015625 383.382812 1134.222656 384.03125 L 1090.179688 419.882812 C 1089.386719 420.53125 1089.265625 421.695312 1089.914062 422.492188 L 1172.171875 523.417969 C 1172.820312 524.214844 1173.988281 524.332031 1174.785156 523.683594 L 1173.613281 522.242188 " fill-opacity="1" fill-rule="nonzero"/><path fill="#9f0000" d="M 1153.097656 410.289062 L 1112.09375 443.664062 " fill-opacity="1" fill-rule="nonzero"/><path fill="#ffffff" d="M 1151.921875 408.847656 L 1110.917969 442.226562 C 1110.125 442.875 1110.003906 444.046875 1110.652344 444.839844 C 1111.300781 445.632812 1112.472656 445.753906 1113.269531 445.105469 L 1154.273438 411.730469 C 1155.066406 411.082031 1155.1875 409.910156 1154.539062 409.113281 C 1153.890625 408.320312 1152.71875 408.199219 1151.921875 408.847656 " fill-opacity="1" fill-rule="nonzero"/><path fill="#9f0000" d="M 1175.257812 436.964844 L 1133.746094 470.753906 " fill-opacity="1" fill-rule="nonzero"/><path fill="#ffffff" d="M 1174.089844 435.523438 L 1132.578125 469.3125 C 1131.777344 469.960938 1131.65625 471.128906 1132.304688 471.921875 C 1132.953125 472.71875 1134.125 472.839844 1134.917969 472.191406 L 1176.429688 438.40625 C 1177.230469 437.757812 1177.351562 436.589844 1176.703125 435.796875 C 1176.054688 434.996094 1174.882812 434.875 1174.089844 435.523438 " fill-opacity="1" fill-rule="nonzero"/><path fill="#9f0000" d="M 1197.164062 463.84375 L 1155.65625 497.628906 " fill-opacity="1" fill-rule="nonzero"/><path fill="#ffffff" d="M 1195.988281 462.402344 L 1154.480469 496.191406 C 1153.6875 496.839844 1153.566406 498.011719 1154.214844 498.804688 C 1154.863281 499.601562 1156.035156 499.71875 1156.828125 499.070312 L 1198.339844 465.28125 C 1199.132812 464.636719 1199.253906 463.464844 1198.605469 462.671875 C 1197.957031 461.875 1196.789062 461.753906 1195.988281 462.402344 " fill-opacity="1" fill-rule="nonzero"/><path fill="#9f0000" d="M 1113.066406 403.015625 L 1195.941406 504.703125 " fill-opacity="1" fill-rule="nonzero"/><path fill="#ffffff" d="M 1111.625 404.191406 L 1194.5 505.871094 C 1195.148438 506.671875 1196.316406 506.785156 1197.113281 506.140625 C 1197.910156 505.492188 1198.03125 504.320312 1197.382812 503.527344 L 1114.503906 401.84375 C 1113.855469 401.050781 1112.683594 400.929688 1111.890625 401.578125 C 1111.09375 402.226562 1110.976562 403.390625 1111.625 404.191406 " fill-opacity="1" fill-rule="nonzero"/><path fill="#9f0000" d="M 1034.441406 351.488281 L 952.183594 250.570312 L 996.226562 214.722656 L 1078.484375 315.640625 L 1034.441406 351.488281 " fill-opacity="1" fill-rule="nonzero"/><g clip-path="url(#522ec39d82)"><path fill="#ffffff" d="M 1034.441406 351.488281 L 1035.882812 350.316406 L 954.804688 250.835938 L 995.960938 217.332031 L 1075.871094 315.375 L 1033.269531 350.050781 L 1034.441406 351.488281 L 1035.882812 350.316406 L 1034.441406 351.488281 L 1035.617188 352.929688 L 1079.652344 317.082031 C 1080.042969 316.769531 1080.277344 316.324219 1080.332031 315.835938 C 1080.378906 315.335938 1080.238281 314.851562 1079.925781 314.472656 L 997.671875 213.546875 C 997.023438 212.75 995.851562 212.632812 995.058594 213.28125 L 951.015625 249.128906 C 950.214844 249.777344 950.101562 250.945312 950.75 251.738281 L 1033.003906 352.664062 C 1033.308594 353.039062 1033.769531 353.285156 1034.257812 353.339844 C 1034.742188 353.386719 1035.238281 353.238281 1035.617188 352.929688 L 1034.441406 351.488281 " fill-opacity="1" fill-rule="nonzero"/></g><path fill="#9f0000" d="M 1013.941406 239.542969 L 972.929688 272.917969 " fill-opacity="1" fill-rule="nonzero"/><path fill="#ffffff" d="M 1012.765625 238.101562 L 971.753906 271.476562 C 970.960938 272.125 970.839844 273.296875 971.488281 274.09375 C 972.136719 274.886719 973.308594 275.007812 974.101562 274.359375 L 1015.113281 240.984375 C 1015.90625 240.335938 1016.027344 239.167969 1015.378906 238.375 C 1014.730469 237.574219 1013.5625 237.453125 1012.765625 238.101562 " fill-opacity="1" fill-rule="nonzero"/><path fill="#9f0000" d="M 1036.09375 266.214844 L 994.582031 300.007812 " fill-opacity="1" fill-rule="nonzero"/><path fill="#ffffff" d="M 1034.925781 264.777344 L 993.40625 298.566406 C 992.609375 299.214844 992.492188 300.386719 993.140625 301.179688 C 993.789062 301.972656 994.960938 302.09375 995.753906 301.445312 L 1037.265625 267.652344 C 1038.066406 267.003906 1038.1875 265.839844 1037.539062 265.042969 C 1036.890625 264.25 1035.71875 264.128906 1034.925781 264.777344 " fill-opacity="1" fill-rule="nonzero"/><path fill="#9f0000" d="M 973.902344 232.265625 L 1056.777344 333.953125 " fill-opacity="1" fill-rule="nonzero"/><path fill="#ffffff" d="M 972.460938 233.4375 L 1055.335938 335.128906 C 1055.984375 335.921875 1057.152344 336.042969 1057.953125 335.394531 C 1058.746094 334.746094 1058.867188 333.578125 1058.21875 332.777344 L 975.339844 231.097656 C 974.691406 230.296875 973.519531 230.175781 972.726562 230.824219 C 971.925781 231.472656 971.8125 232.644531 972.460938 233.4375 " fill-opacity="1" fill-rule="nonzero"/><path fill="#9f0000" d="M 1115.535156 348.664062 L 1109.359375 341.085938 L 1134.535156 320.59375 L 1140.714844 328.171875 L 1115.535156 348.664062 " fill-opacity="1" fill-rule="nonzero"/><path fill="#ffffff" d="M 1115.535156 348.664062 L 1116.976562 347.492188 L 1111.96875 341.351562 L 1134.265625 323.207031 L 1138.101562 327.902344 L 1114.363281 347.226562 L 1115.535156 348.664062 L 1116.976562 347.492188 L 1115.535156 348.664062 L 1116.707031 350.105469 L 1141.886719 329.609375 C 1142.273438 329.296875 1142.515625 328.855469 1142.5625 328.363281 C 1142.613281 327.867188 1142.46875 327.382812 1142.15625 327 L 1135.972656 319.421875 C 1135.324219 318.625 1134.152344 318.507812 1133.359375 319.15625 L 1108.183594 339.644531 C 1107.390625 340.292969 1107.269531 341.464844 1107.917969 342.257812 L 1114.09375 349.839844 C 1114.402344 350.214844 1114.855469 350.460938 1115.34375 350.511719 C 1115.828125 350.5625 1116.328125 350.414062 1116.707031 350.105469 L 1115.535156 348.664062 " fill-opacity="1" fill-rule="nonzero"/><path fill="#9f0000" d="M 1177.953125 313.113281 C 1172.554688 317.511719 1164.613281 316.699219 1160.214844 311.304688 C 1155.8125 305.902344 1156.625 297.972656 1162.027344 293.578125 C 1167.425781 289.175781 1175.371094 289.988281 1179.769531 295.386719 C 1184.164062 300.785156 1183.355469 308.722656 1177.953125 313.113281 " fill-opacity="1" fill-rule="nonzero"/><path fill="#ffffff" d="M 1177.953125 313.113281 L 1176.777344 311.675781 C 1174.78125 313.304688 1172.390625 314.089844 1170 314.089844 C 1166.867188 314.089844 1163.78125 312.738281 1161.65625 310.128906 C 1160.023438 308.125 1159.238281 305.738281 1159.234375 303.347656 C 1159.238281 300.226562 1160.582031 297.144531 1163.203125 295.015625 C 1165.203125 293.386719 1167.59375 292.601562 1169.984375 292.601562 C 1173.109375 292.601562 1176.199219 293.949219 1178.328125 296.554688 C 1179.953125 298.558594 1180.742188 300.949219 1180.742188 303.339844 C 1180.742188 306.464844 1179.390625 309.546875 1176.777344 311.675781 L 1177.953125 313.113281 L 1179.128906 314.554688 C 1182.632812 311.699219 1184.464844 307.527344 1184.457031 303.339844 C 1184.457031 300.132812 1183.390625 296.894531 1181.207031 294.214844 C 1178.351562 290.710938 1174.175781 288.882812 1169.984375 288.886719 C 1166.777344 288.882812 1163.53125 289.953125 1160.855469 292.136719 C 1157.347656 294.988281 1155.515625 299.15625 1155.515625 303.347656 C 1155.515625 306.554688 1156.589844 309.796875 1158.773438 312.480469 C 1161.628906 315.980469 1165.804688 317.808594 1170 317.804688 C 1173.207031 317.808594 1176.449219 316.734375 1179.128906 314.554688 L 1177.953125 313.113281 " fill-opacity="1" fill-rule="nonzero"/><path fill="#9f0000" d="M 1064.164062 421.34375 L 1117.574219 377.871094 C 1129.933594 367.8125 1131.800781 349.660156 1121.742188 337.3125 C 1111.675781 324.96875 1093.503906 323.105469 1081.140625 333.171875 L 1027.734375 376.640625 L 1064.164062 421.34375 " fill-opacity="1" fill-rule="nonzero"/><path fill="#ffffff" d="M 1064.164062 421.34375 L 1065.339844 422.78125 L 1118.75 379.3125 C 1126.203125 373.242188 1130.078125 364.394531 1130.074219 355.492188 C 1130.074219 348.6875 1127.816406 341.824219 1123.179688 336.144531 C 1117.117188 328.699219 1108.261719 324.828125 1099.347656 324.828125 C 1092.535156 324.828125 1085.664062 327.09375 1079.96875 331.730469 L 1026.558594 375.199219 C 1025.765625 375.847656 1025.644531 377.019531 1026.292969 377.8125 L 1062.726562 422.511719 C 1063.375 423.308594 1064.546875 423.429688 1065.339844 422.78125 L 1064.164062 421.34375 L 1065.605469 420.171875 L 1030.347656 376.90625 L 1082.316406 334.605469 C 1087.332031 330.523438 1093.351562 328.546875 1099.347656 328.542969 C 1107.195312 328.546875 1114.957031 331.9375 1120.300781 338.484375 C 1124.378906 343.496094 1126.359375 349.503906 1126.359375 355.492188 C 1126.355469 363.328125 1122.960938 371.089844 1116.40625 376.429688 L 1062.996094 419.902344 L 1064.164062 421.34375 L 1065.605469 420.171875 L 1064.164062 421.34375 " fill-opacity="1" fill-rule="nonzero"/><path fill="#9f0000" d="M 1160.265625 263.800781 C 1159.199219 263.914062 1158.140625 264.058594 1157.074219 264.269531 C 1134.847656 268.546875 1120.296875 290.011719 1124.578125 312.230469 C 1128.855469 334.445312 1150.347656 348.992188 1172.5625 344.707031 C 1173.636719 344.507812 1174.667969 344.25 1175.703125 343.96875 L 1160.265625 263.800781 " fill-opacity="1" fill-rule="nonzero"/><path fill="#ffffff" d="M 1160.265625 263.800781 L 1160.070312 261.957031 C 1158.96875 262.074219 1157.847656 262.226562 1156.71875 262.449219 L 1156.726562 262.445312 C 1136.226562 266.394531 1121.96875 284.316406 1121.96875 304.433594 C 1121.96875 307.121094 1122.226562 309.847656 1122.753906 312.582031 C 1126.703125 333.070312 1144.640625 347.3125 1164.765625 347.3125 C 1167.453125 347.3125 1170.183594 347.058594 1172.917969 346.53125 L 1172.90625 346.53125 C 1174.054688 346.316406 1175.132812 346.046875 1176.1875 345.761719 C 1177.128906 345.511719 1177.714844 344.578125 1177.527344 343.621094 L 1162.089844 263.449219 C 1161.910156 262.503906 1161.027344 261.851562 1160.070312 261.957031 L 1160.265625 263.800781 L 1158.441406 264.152344 L 1173.878906 344.320312 L 1175.703125 343.96875 L 1175.222656 342.179688 C 1174.210938 342.449219 1173.226562 342.695312 1172.226562 342.878906 L 1172.214844 342.886719 C 1169.710938 343.367188 1167.222656 343.601562 1164.765625 343.601562 C 1146.402344 343.601562 1130.003906 330.589844 1126.402344 311.878906 C 1125.917969 309.375 1125.6875 306.890625 1125.6875 304.433594 C 1125.6875 286.070312 1138.703125 269.695312 1157.429688 266.097656 L 1157.4375 266.089844 C 1158.429688 265.898438 1159.4375 265.757812 1160.460938 265.644531 L 1160.265625 263.800781 L 1158.441406 264.152344 L 1160.265625 263.800781 " fill-opacity="1" fill-rule="nonzero"/><path fill="#9f0000" d="M 1353.507812 527.542969 C 1375.636719 519.808594 1391.132812 495.984375 1391.132812 471.234375 C 1391.132812 439.933594 1365.738281 414.558594 1334.414062 414.558594 C 1327.945312 414.558594 1321.734375 415.652344 1315.9375 417.652344 C 1303.785156 389.808594 1276 370.347656 1243.664062 370.347656 C 1204.964844 370.347656 1172.804688 398.21875 1166.125 434.96875 L 1165.964844 434.960938 C 1145.601562 434.960938 1128.308594 448.042969 1122.007812 466.253906 C 1119.902344 465.808594 1117.726562 465.566406 1115.484375 465.566406 C 1098.253906 465.566406 1084.289062 479.523438 1084.289062 496.742188 C 1084.289062 512.308594 1095.703125 525.207031 1110.628906 527.542969 L 1353.507812 527.542969 " fill-opacity="1" fill-rule="nonzero"/><g clip-path="url(#16ce0b3620)"><path fill="#ffffff" d="M 1353.507812 527.542969 L 1354.121094 529.292969 C 1365.625 525.269531 1375.332031 517.105469 1382.167969 506.796875 C 1389.003906 496.480469 1392.988281 483.996094 1392.992188 471.234375 C 1392.992188 438.90625 1366.769531 412.699219 1334.414062 412.695312 C 1327.734375 412.695312 1321.320312 413.832031 1315.332031 415.898438 L 1315.9375 417.652344 L 1317.640625 416.90625 C 1305.203125 388.410156 1276.761719 368.488281 1243.664062 368.488281 C 1204.054688 368.492188 1171.136719 397.015625 1164.292969 434.636719 L 1166.125 434.96875 L 1166.175781 433.113281 L 1166.023438 433.105469 L 1165.964844 433.101562 C 1144.785156 433.105469 1126.800781 446.710938 1120.25 465.644531 L 1122.007812 466.253906 L 1122.390625 464.4375 C 1120.164062 463.96875 1117.855469 463.710938 1115.484375 463.710938 C 1097.230469 463.710938 1082.4375 478.5 1082.433594 496.742188 C 1082.4375 513.238281 1094.523438 526.902344 1110.34375 529.375 L 1110.628906 529.398438 L 1353.507812 529.398438 C 1353.714844 529.398438 1353.929688 529.359375 1354.121094 529.292969 L 1353.507812 527.542969 L 1353.507812 525.683594 L 1110.628906 525.683594 L 1110.628906 527.542969 L 1110.917969 525.703125 C 1096.890625 523.511719 1086.148438 511.386719 1086.148438 496.742188 C 1086.152344 488.640625 1089.429688 481.324219 1094.742188 476.011719 C 1100.054688 470.703125 1107.375 467.425781 1115.484375 467.425781 C 1117.589844 467.425781 1119.640625 467.648438 1121.617188 468.066406 C 1122.535156 468.265625 1123.457031 467.746094 1123.761719 466.859375 C 1129.8125 449.378906 1146.414062 436.816406 1165.964844 436.816406 L 1165.964844 434.960938 L 1165.90625 436.816406 L 1166.066406 436.820312 C 1166.984375 436.851562 1167.785156 436.203125 1167.949219 435.296875 C 1174.476562 399.421875 1205.878906 372.199219 1243.664062 372.203125 C 1275.238281 372.203125 1302.359375 391.207031 1314.238281 418.390625 C 1314.628906 419.28125 1315.628906 419.722656 1316.546875 419.40625 C 1322.152344 417.472656 1328.152344 416.414062 1334.414062 416.410156 C 1349.574219 416.414062 1363.273438 422.546875 1373.207031 432.46875 C 1383.140625 442.394531 1389.277344 456.089844 1389.277344 471.234375 C 1389.277344 483.222656 1385.515625 495.027344 1379.070312 504.742188 C 1372.625 514.464844 1363.523438 522.078125 1352.898438 525.785156 L 1353.507812 527.542969 L 1353.507812 525.683594 L 1353.507812 527.542969 " fill-opacity="1" fill-rule="nonzero"/></g><path fill="#9f0000" d="M 1287.804688 524.398438 C 1286.78125 524.398438 1285.949219 523.566406 1285.949219 522.542969 L 1285.949219 374.21875 C 1285.949219 373.195312 1286.78125 372.363281 1287.804688 372.363281 L 1299.949219 372.363281 L 1299.949219 356.730469 C 1299.949219 355.703125 1300.785156 354.871094 1301.808594 354.871094 L 1351.519531 354.871094 C 1352.542969 354.871094 1353.375 355.703125 1353.375 356.730469 L 1353.375 372.363281 L 1365.523438 372.363281 C 1366.546875 372.363281 1367.378906 373.195312 1367.378906 374.21875 L 1367.378906 522.542969 C 1367.378906 523.566406 1366.546875 524.398438 1365.523438 524.398438 L 1287.804688 524.398438 " fill-opacity="1" fill-rule="nonzero"/><path fill="#ffffff" d="M 1351.519531 353.015625 L 1301.808594 353.015625 C 1299.757812 353.015625 1298.09375 354.675781 1298.09375 356.730469 L 1298.09375 370.503906 L 1287.804688 370.503906 C 1285.753906 370.503906 1284.089844 372.164062 1284.089844 374.21875 L 1284.089844 522.542969 C 1284.089844 524.597656 1285.753906 526.253906 1287.804688 526.253906 L 1365.523438 526.253906 C 1367.574219 526.253906 1369.238281 524.597656 1369.238281 522.542969 L 1369.238281 374.21875 C 1369.238281 372.164062 1367.574219 370.503906 1365.523438 370.503906 L 1355.234375 370.503906 L 1355.234375 356.730469 C 1355.234375 354.675781 1353.570312 353.015625 1351.519531 353.015625 Z M 1351.519531 356.730469 L 1351.519531 374.21875 L 1365.523438 374.21875 L 1365.523438 522.542969 L 1287.804688 522.542969 L 1287.804688 374.21875 L 1301.808594 374.21875 L 1301.808594 356.730469 L 1351.519531 356.730469 " fill-opacity="1" fill-rule="nonzero"/><path fill="#9f0000" d="M 1293.230469 411.296875 L 1293.230469 385.582031 L 1359.917969 385.582031 L 1359.917969 411.296875 L 1293.230469 411.296875 " fill-opacity="1" fill-rule="nonzero"/><path fill="#ffffff" d="M 1293.230469 411.296875 L 1295.089844 411.296875 L 1295.089844 387.441406 L 1358.058594 387.441406 L 1358.058594 409.441406 L 1293.230469 409.441406 L 1293.230469 411.296875 L 1295.089844 411.296875 L 1293.230469 411.296875 L 1293.230469 413.15625 L 1359.917969 413.15625 C 1360.40625 413.15625 1360.886719 412.957031 1361.234375 412.609375 C 1361.578125 412.265625 1361.777344 411.785156 1361.777344 411.296875 L 1361.777344 385.582031 C 1361.777344 385.09375 1361.578125 384.617188 1361.234375 384.273438 C 1360.886719 383.925781 1360.40625 383.726562 1359.917969 383.726562 L 1293.230469 383.726562 C 1292.742188 383.726562 1292.265625 383.925781 1291.917969 384.273438 C 1291.570312 384.617188 1291.371094 385.09375 1291.371094 385.582031 L 1291.371094 411.296875 C 1291.371094 411.785156 1291.570312 412.265625 1291.917969 412.609375 C 1292.265625 412.957031 1292.742188 413.15625 1293.230469 413.15625 L 1293.230469 411.296875 " fill-opacity="1" fill-rule="nonzero"/><path fill="#9f0000" d="M 1293.230469 445.582031 L 1293.230469 419.871094 L 1359.917969 419.871094 L 1359.917969 445.582031 L 1293.230469 445.582031 " fill-opacity="1" fill-rule="nonzero"/><path fill="#ffffff" d="M 1293.230469 445.582031 L 1295.089844 445.582031 L 1295.089844 421.722656 L 1358.058594 421.722656 L 1358.058594 443.726562 L 1293.230469 443.726562 L 1293.230469 445.582031 L 1295.089844 445.582031 L 1293.230469 445.582031 L 1293.230469 447.441406 L 1359.917969 447.441406 C 1360.40625 447.441406 1360.886719 447.242188 1361.234375 446.898438 C 1361.578125 446.550781 1361.777344 446.070312 1361.777344 445.582031 L 1361.777344 419.871094 C 1361.777344 419.378906 1361.578125 418.898438 1361.234375 418.558594 C 1360.886719 418.214844 1360.40625 418.011719 1359.917969 418.011719 L 1293.230469 418.011719 C 1292.742188 418.011719 1292.265625 418.214844 1291.917969 418.558594 C 1291.570312 418.898438 1291.371094 419.378906 1291.371094 419.871094 L 1291.371094 445.582031 C 1291.371094 446.070312 1291.570312 446.550781 1291.917969 446.898438 C 1292.265625 447.242188 1292.742188 447.441406 1293.230469 447.441406 L 1293.230469 445.582031 " fill-opacity="1" fill-rule="nonzero"/><path fill="#9f0000" d="M 1293.230469 479.867188 L 1293.230469 454.15625 L 1359.917969 454.15625 L 1359.917969 479.867188 L 1293.230469 479.867188 " fill-opacity="1" fill-rule="nonzero"/><path fill="#ffffff" d="M 1293.230469 479.867188 L 1295.089844 479.867188 L 1295.089844 456.011719 L 1358.058594 456.011719 L 1358.058594 478.003906 L 1293.230469 478.003906 L 1293.230469 479.867188 L 1295.089844 479.867188 L 1293.230469 479.867188 L 1293.230469 481.722656 L 1359.917969 481.722656 C 1360.40625 481.722656 1360.886719 481.519531 1361.234375 481.175781 C 1361.578125 480.835938 1361.777344 480.355469 1361.777344 479.867188 L 1361.777344 454.15625 C 1361.777344 453.664062 1361.578125 453.1875 1361.234375 452.839844 C 1360.886719 452.492188 1360.40625 452.300781 1359.917969 452.300781 L 1293.230469 452.300781 C 1292.742188 452.300781 1292.265625 452.492188 1291.917969 452.839844 C 1291.570312 453.1875 1291.371094 453.664062 1291.371094 454.15625 L 1291.371094 479.867188 C 1291.371094 480.355469 1291.570312 480.835938 1291.917969 481.175781 C 1292.265625 481.519531 1292.742188 481.722656 1293.230469 481.722656 L 1293.230469 479.867188 " fill-opacity="1" fill-rule="nonzero"/><path fill="#9f0000" d="M 1293.230469 514.152344 L 1293.230469 488.4375 L 1359.917969 488.4375 L 1359.917969 514.152344 L 1293.230469 514.152344 " fill-opacity="1" fill-rule="nonzero"/><path fill="#ffffff" d="M 1293.230469 514.152344 L 1295.089844 514.152344 L 1295.089844 490.292969 L 1358.058594 490.292969 L 1358.058594 512.289062 L 1293.230469 512.292969 L 1293.230469 514.152344 L 1295.089844 514.152344 L 1293.230469 514.152344 L 1293.230469 516.007812 L 1359.917969 516.007812 C 1360.40625 516.007812 1360.886719 515.808594 1361.234375 515.460938 C 1361.578125 515.113281 1361.777344 514.640625 1361.777344 514.152344 L 1361.777344 488.4375 C 1361.777344 487.949219 1361.578125 487.46875 1361.234375 487.125 C 1360.886719 486.777344 1360.40625 486.578125 1359.917969 486.578125 L 1293.230469 486.578125 C 1292.742188 486.578125 1292.265625 486.777344 1291.917969 487.125 C 1291.570312 487.46875 1291.371094 487.949219 1291.371094 488.4375 L 1291.371094 514.152344 C 1291.371094 514.640625 1291.570312 515.113281 1291.917969 515.460938 C 1292.265625 515.808594 1292.742188 516.007812 1293.230469 516.007812 L 1293.230469 514.152344 " fill-opacity="1" fill-rule="nonzero"/><g fill="#ffffff" fill-opacity="1"><g transform="translate(99.718225, 298.131938)"><g><path d="M 6.84375 -70.59375 L 24.484375 -70.59375 L 24.484375 0 L 6.84375 0 Z M 6.84375 -70.59375 "/></g></g></g><g fill="#ffffff" fill-opacity="1"><g transform="translate(131.048861, 298.131938)"><g><path d="M 53.546875 -47.09375 C 52.285156 -50.40625 50.300781 -53 47.59375 -54.875 C 44.882812 -56.757812 41.976562 -57.703125 38.875 -57.703125 C 36.425781 -57.703125 34.144531 -57.269531 32.03125 -56.40625 C 29.914062 -55.550781 28.0625 -54.234375 26.46875 -52.453125 C 24.882812 -50.671875 23.644531 -48.359375 22.75 -45.515625 C 21.863281 -42.671875 21.421875 -39.265625 21.421875 -35.296875 C 21.421875 -32.722656 21.703125 -30.113281 22.265625 -27.46875 C 22.828125 -24.820312 23.800781 -22.40625 25.1875 -20.21875 C 26.570312 -18.039062 28.421875 -16.273438 30.734375 -14.921875 C 33.046875 -13.566406 35.957031 -12.890625 39.46875 -12.890625 C 40.65625 -12.890625 41.941406 -13.101562 43.328125 -13.53125 C 44.710938 -13.957031 46.082031 -14.597656 47.4375 -15.453125 C 48.800781 -16.316406 50.039062 -17.359375 51.15625 -18.578125 C 52.28125 -19.804688 53.207031 -21.21875 53.9375 -22.8125 L 67.921875 -16.0625 C 64.878906 -10.507812 60.878906 -6.113281 55.921875 -2.875 C 50.960938 0.363281 45.476562 1.984375 39.46875 1.984375 C 33.84375 1.984375 28.816406 0.976562 24.390625 -1.03125 C 19.960938 -3.050781 16.226562 -5.78125 13.1875 -9.21875 C 10.144531 -12.65625 7.8125 -16.617188 6.1875 -21.109375 C 4.570312 -25.609375 3.765625 -30.335938 3.765625 -35.296875 C 3.765625 -40.253906 4.523438 -44.976562 6.046875 -49.46875 C 7.566406 -53.96875 9.78125 -57.9375 12.6875 -61.375 C 15.601562 -64.8125 19.191406 -67.535156 23.453125 -69.546875 C 27.710938 -71.566406 32.585938 -72.578125 38.078125 -72.578125 C 41.515625 -72.578125 44.6875 -72.164062 47.59375 -71.34375 C 50.5 -70.519531 53.160156 -69.3125 55.578125 -67.71875 C 57.992188 -66.132812 60.191406 -64.203125 62.171875 -61.921875 C 64.148438 -59.640625 65.96875 -57.046875 67.625 -54.140625 Z M 53.546875 -47.09375 "/></g></g></g><g fill="#ffffff" fill-opacity="1"><g transform="translate(200.848752, 298.131938)"><g><path d="M 1.1875 -70.59375 L 55.71875 -70.59375 L 55.71875 -56.921875 L 37.28125 -56.921875 L 37.28125 0 L 19.640625 0 L 19.640625 -56.921875 L 1.1875 -56.921875 Z M 1.1875 -70.59375 "/></g></g></g><g fill="#ffffff" fill-opacity="1"><g transform="translate(257.75946, 298.131938)"><g/></g></g><g fill="#ffffff" fill-opacity="1"><g transform="translate(285.322485, 298.131938)"><g><path d="M 13.6875 -21.125 C 16.789062 -18.34375 19.910156 -16.175781 23.046875 -14.625 C 26.191406 -13.070312 29.878906 -12.296875 34.109375 -12.296875 C 35.296875 -12.296875 36.648438 -12.425781 38.171875 -12.6875 C 39.691406 -12.957031 41.128906 -13.40625 42.484375 -14.03125 C 43.835938 -14.65625 44.976562 -15.492188 45.90625 -16.546875 C 46.832031 -17.609375 47.296875 -18.898438 47.296875 -20.421875 C 47.296875 -22.210938 46.632812 -23.585938 45.3125 -24.546875 C 43.988281 -25.503906 42.003906 -26.210938 39.359375 -26.671875 L 24.6875 -29.046875 C 18.082031 -30.109375 13.0625 -32.304688 9.625 -35.640625 C 6.1875 -38.984375 4.46875 -43.265625 4.46875 -48.484375 C 4.46875 -52.710938 5.257812 -56.363281 6.84375 -59.4375 C 8.425781 -62.519531 10.554688 -65.019531 13.234375 -66.9375 C 15.910156 -68.851562 18.984375 -70.269531 22.453125 -71.1875 C 25.929688 -72.113281 29.550781 -72.578125 33.3125 -72.578125 C 39.195312 -72.578125 44.863281 -71.421875 50.3125 -69.109375 C 55.769531 -66.796875 60.484375 -63.425781 64.453125 -59 L 51.0625 -49.375 C 48.75 -52.21875 45.957031 -54.414062 42.6875 -55.96875 C 39.414062 -57.519531 35.894531 -58.296875 32.125 -58.296875 C 31.132812 -58.296875 30.039062 -58.128906 28.84375 -57.796875 C 27.65625 -57.472656 26.566406 -57.015625 25.578125 -56.421875 C 24.585938 -55.828125 23.757812 -55.082031 23.09375 -54.1875 C 22.4375 -53.289062 22.109375 -52.285156 22.109375 -51.171875 C 22.109375 -49.242188 22.898438 -47.769531 24.484375 -46.75 C 26.078125 -45.726562 28.554688 -44.953125 31.921875 -44.421875 L 38.671875 -43.328125 C 42.171875 -42.734375 45.472656 -41.988281 48.578125 -41.09375 C 51.691406 -40.207031 54.421875 -39.003906 56.765625 -37.484375 C 59.109375 -35.960938 60.957031 -34.046875 62.3125 -31.734375 C 63.675781 -29.421875 64.359375 -26.578125 64.359375 -23.203125 C 64.359375 -17.910156 63.296875 -13.613281 61.171875 -10.3125 C 59.054688 -7.007812 56.378906 -4.445312 53.140625 -2.625 C 49.898438 -0.8125 46.394531 0.40625 42.625 1.03125 C 38.863281 1.664062 35.332031 1.984375 32.03125 1.984375 C 26.007812 1.984375 20.40625 0.910156 15.21875 -1.234375 C 10.03125 -3.390625 5.023438 -7.109375 0.203125 -12.390625 Z M 13.6875 -21.125 "/></g></g></g><g fill="#ffffff" fill-opacity="1"><g transform="translate(353.238589, 298.131938)"><g><path d="M 31.234375 -42.234375 C 29.054688 -42.234375 27.171875 -41.835938 25.578125 -41.046875 C 23.992188 -40.253906 22.6875 -39.144531 21.65625 -37.71875 C 20.632812 -36.300781 19.875 -34.617188 19.375 -32.671875 C 18.882812 -30.722656 18.640625 -28.625 18.640625 -26.375 C 18.640625 -24.125 18.882812 -22.023438 19.375 -20.078125 C 19.875 -18.128906 20.632812 -16.441406 21.65625 -15.015625 C 22.6875 -13.597656 23.992188 -12.492188 25.578125 -11.703125 C 27.171875 -10.910156 29.054688 -10.515625 31.234375 -10.515625 C 33.410156 -10.515625 35.289062 -10.925781 36.875 -11.75 C 38.46875 -12.570312 39.773438 -13.710938 40.796875 -15.171875 C 41.828125 -16.628906 42.585938 -18.363281 43.078125 -20.375 C 43.578125 -22.394531 43.828125 -24.59375 43.828125 -26.96875 C 43.828125 -29.082031 43.578125 -31.066406 43.078125 -32.921875 C 42.585938 -34.773438 41.828125 -36.394531 40.796875 -37.78125 C 39.773438 -39.164062 38.46875 -40.253906 36.875 -41.046875 C 35.289062 -41.835938 33.410156 -42.234375 31.234375 -42.234375 Z M 31.234375 -54.140625 C 35.328125 -54.140625 39.09375 -53.523438 42.53125 -52.296875 C 45.96875 -51.078125 48.925781 -49.273438 51.40625 -46.890625 C 53.882812 -44.515625 55.816406 -41.609375 57.203125 -38.171875 C 58.597656 -34.734375 59.296875 -30.800781 59.296875 -26.375 C 59.296875 -21.945312 58.597656 -18.015625 57.203125 -14.578125 C 55.816406 -11.140625 53.882812 -8.226562 51.40625 -5.84375 C 48.925781 -3.46875 45.96875 -1.664062 42.53125 -0.4375 C 39.09375 0.78125 35.328125 1.390625 31.234375 1.390625 C 27.140625 1.390625 23.375 0.78125 19.9375 -0.4375 C 16.5 -1.664062 13.539062 -3.46875 11.0625 -5.84375 C 8.582031 -8.226562 6.644531 -11.140625 5.25 -14.578125 C 3.863281 -18.015625 3.171875 -21.945312 3.171875 -26.375 C 3.171875 -30.800781 3.863281 -34.734375 5.25 -38.171875 C 6.644531 -41.609375 8.582031 -44.515625 11.0625 -46.890625 C 13.539062 -49.273438 16.5 -51.078125 19.9375 -52.296875 C 23.375 -53.523438 27.140625 -54.140625 31.234375 -54.140625 Z M 31.234375 -54.140625 "/></g></g></g><g fill="#ffffff" fill-opacity="1"><g transform="translate(415.701554, 298.131938)"><g><path d="M 6.9375 0 L 6.9375 -70.59375 L 22.40625 -70.59375 L 22.40625 0 Z M 6.9375 0 "/></g></g></g><g fill="#ffffff" fill-opacity="1"><g transform="translate(445.049237, 298.131938)"><g><path d="M 53.640625 0 L 38.171875 0 L 38.171875 -4.65625 C 37.179688 -3.46875 36.054688 -2.492188 34.796875 -1.734375 C 33.546875 -0.972656 32.222656 -0.363281 30.828125 0.09375 C 29.441406 0.5625 28.070312 0.894531 26.71875 1.09375 C 25.363281 1.289062 24.09375 1.390625 22.90625 1.390625 C 19.800781 1.390625 17.222656 0.972656 15.171875 0.140625 C 13.117188 -0.679688 11.476562 -1.800781 10.25 -3.21875 C 9.03125 -4.644531 8.171875 -6.265625 7.671875 -8.078125 C 7.179688 -9.898438 6.9375 -11.800781 6.9375 -13.78125 L 6.9375 -52.75 L 22.40625 -52.75 L 22.40625 -18.25 C 22.40625 -15.9375 22.914062 -14.164062 23.9375 -12.9375 C 24.96875 -11.71875 26.96875 -11.109375 29.9375 -11.109375 C 32.1875 -11.109375 34.117188 -11.75 35.734375 -13.03125 C 37.359375 -14.320312 38.171875 -16.421875 38.171875 -19.328125 L 38.171875 -52.75 L 53.640625 -52.75 Z M 53.640625 0 "/></g></g></g><g fill="#ffffff" fill-opacity="1"><g transform="translate(505.628402, 298.131938)"><g><path d="M 33.015625 -42.234375 L 23.796875 -42.234375 L 23.796875 -16.359375 C 23.796875 -14.242188 24.257812 -12.835938 25.1875 -12.140625 C 26.113281 -11.453125 27.269531 -11.109375 28.65625 -11.109375 C 29.507812 -11.109375 30.398438 -11.140625 31.328125 -11.203125 C 32.253906 -11.265625 32.914062 -11.332031 33.3125 -11.40625 L 33.3125 0.796875 C 32.320312 0.921875 30.851562 1.050781 28.90625 1.1875 C 26.957031 1.320312 25.125 1.390625 23.40625 1.390625 C 20.09375 1.390625 17.445312 0.925781 15.46875 0 C 13.488281 -0.925781 11.96875 -2.148438 10.90625 -3.671875 C 9.851562 -5.191406 9.160156 -6.890625 8.828125 -8.765625 C 8.492188 -10.648438 8.328125 -12.554688 8.328125 -14.484375 L 8.328125 -42.234375 L 0.796875 -42.234375 L 0.796875 -51.765625 L 8.328125 -51.765625 L 8.328125 -67.03125 L 23.796875 -67.03125 L 23.796875 -51.765625 L 33.015625 -51.765625 Z M 33.015625 -42.234375 "/></g></g></g><g fill="#ffffff" fill-opacity="1"><g transform="translate(540.528342, 298.131938)"><g><path d="M 22.40625 -52.75 L 22.40625 0 L 6.9375 0 L 6.9375 -52.75 Z M 6.9375 -58.703125 L 6.9375 -70.59375 L 22.40625 -70.59375 L 22.40625 -58.703125 Z M 6.9375 -58.703125 "/></g></g></g><g fill="#ffffff" fill-opacity="1"><g transform="translate(569.876001, 298.131938)"><g><path d="M 31.234375 -42.234375 C 29.054688 -42.234375 27.171875 -41.835938 25.578125 -41.046875 C 23.992188 -40.253906 22.6875 -39.144531 21.65625 -37.71875 C 20.632812 -36.300781 19.875 -34.617188 19.375 -32.671875 C 18.882812 -30.722656 18.640625 -28.625 18.640625 -26.375 C 18.640625 -24.125 18.882812 -22.023438 19.375 -20.078125 C 19.875 -18.128906 20.632812 -16.441406 21.65625 -15.015625 C 22.6875 -13.597656 23.992188 -12.492188 25.578125 -11.703125 C 27.171875 -10.910156 29.054688 -10.515625 31.234375 -10.515625 C 33.410156 -10.515625 35.289062 -10.925781 36.875 -11.75 C 38.46875 -12.570312 39.773438 -13.710938 40.796875 -15.171875 C 41.828125 -16.628906 42.585938 -18.363281 43.078125 -20.375 C 43.578125 -22.394531 43.828125 -24.59375 43.828125 -26.96875 C 43.828125 -29.082031 43.578125 -31.066406 43.078125 -32.921875 C 42.585938 -34.773438 41.828125 -36.394531 40.796875 -37.78125 C 39.773438 -39.164062 38.46875 -40.253906 36.875 -41.046875 C 35.289062 -41.835938 33.410156 -42.234375 31.234375 -42.234375 Z M 31.234375 -54.140625 C 35.328125 -54.140625 39.09375 -53.523438 42.53125 -52.296875 C 45.96875 -51.078125 48.925781 -49.273438 51.40625 -46.890625 C 53.882812 -44.515625 55.816406 -41.609375 57.203125 -38.171875 C 58.597656 -34.734375 59.296875 -30.800781 59.296875 -26.375 C 59.296875 -21.945312 58.597656 -18.015625 57.203125 -14.578125 C 55.816406 -11.140625 53.882812 -8.226562 51.40625 -5.84375 C 48.925781 -3.46875 45.96875 -1.664062 42.53125 -0.4375 C 39.09375 0.78125 35.328125 1.390625 31.234375 1.390625 C 27.140625 1.390625 23.375 0.78125 19.9375 -0.4375 C 16.5 -1.664062 13.539062 -3.46875 11.0625 -5.84375 C 8.582031 -8.226562 6.644531 -11.140625 5.25 -14.578125 C 3.863281 -18.015625 3.171875 -21.945312 3.171875 -26.375 C 3.171875 -30.800781 3.863281 -34.734375 5.25 -38.171875 C 6.644531 -41.609375 8.582031 -44.515625 11.0625 -46.890625 C 13.539062 -49.273438 16.5 -51.078125 19.9375 -52.296875 C 23.375 -53.523438 27.140625 -54.140625 31.234375 -54.140625 Z M 31.234375 -54.140625 "/></g></g></g><g fill="#ffffff" fill-opacity="1"><g transform="translate(632.338966, 298.131938)"><g><path d="M 6.9375 -52.75 L 22.40625 -52.75 L 22.40625 -48.09375 C 23.394531 -49.28125 24.519531 -50.253906 25.78125 -51.015625 C 27.039062 -51.773438 28.363281 -52.382812 29.75 -52.84375 C 31.132812 -53.3125 32.503906 -53.644531 33.859375 -53.84375 C 35.210938 -54.039062 36.484375 -54.140625 37.671875 -54.140625 C 40.785156 -54.140625 43.363281 -53.722656 45.40625 -52.890625 C 47.457031 -52.066406 49.09375 -50.941406 50.3125 -49.515625 C 51.539062 -48.097656 52.398438 -46.476562 52.890625 -44.65625 C 53.390625 -42.84375 53.640625 -40.945312 53.640625 -38.96875 L 53.640625 0 L 38.171875 0 L 38.171875 -33.015625 C 38.171875 -35.597656 37.65625 -37.679688 36.625 -39.265625 C 35.601562 -40.847656 33.609375 -41.640625 30.640625 -41.640625 C 27.535156 -41.640625 25.382812 -40.765625 24.1875 -39.015625 C 23 -37.265625 22.40625 -35.203125 22.40625 -32.828125 L 22.40625 0 L 6.9375 0 Z M 6.9375 -52.75 "/></g></g></g><g fill="#ffffff" fill-opacity="1"><g transform="translate(149.042574, 506.30817)"><g><path d="M 2.84375 -32.15625 L 5.546875 -32.15625 L 5.546875 -18.46875 L 5.640625 -18.46875 C 6.335938 -19.851562 7.269531 -20.820312 8.4375 -21.375 C 9.613281 -21.9375 10.835938 -22.21875 12.109375 -22.21875 C 13.429688 -22.21875 14.570312 -22.035156 15.53125 -21.671875 C 16.5 -21.316406 17.289062 -20.804688 17.90625 -20.140625 C 18.519531 -19.472656 18.976562 -18.671875 19.28125 -17.734375 C 19.582031 -16.804688 19.734375 -15.785156 19.734375 -14.671875 L 19.734375 0 L 17.03125 0 L 17.03125 -13.859375 C 17.03125 -16.054688 16.578125 -17.578125 15.671875 -18.421875 C 14.765625 -19.265625 13.453125 -19.6875 11.734375 -19.6875 C 10.921875 -19.6875 10.140625 -19.550781 9.390625 -19.28125 C 8.640625 -19.007812 7.984375 -18.578125 7.421875 -17.984375 C 6.867188 -17.398438 6.414062 -16.664062 6.0625 -15.78125 C 5.71875 -14.894531 5.546875 -13.847656 5.546875 -12.640625 L 5.546875 0 L 2.84375 0 Z M 2.84375 -32.15625 "/></g></g></g><g fill="#ffffff" fill-opacity="1"><g transform="translate(171.621707, 506.30817)"><g><path d="M 0.359375 -21.671875 L 4.78125 -21.671875 L 4.78125 -30.9375 L 7.5 -30.9375 L 7.5 -21.671875 L 12.1875 -21.671875 L 12.1875 -19.421875 L 7.5 -19.421875 L 7.5 -5.109375 C 7.5 -4.679688 7.503906 -4.285156 7.515625 -3.921875 C 7.535156 -3.566406 7.597656 -3.238281 7.703125 -2.9375 C 7.804688 -2.632812 7.960938 -2.398438 8.171875 -2.234375 C 8.378906 -2.066406 8.679688 -1.984375 9.078125 -1.984375 C 9.710938 -1.984375 10.253906 -2.085938 10.703125 -2.296875 C 11.148438 -2.515625 11.601562 -2.773438 12.0625 -3.078125 L 12.0625 -0.359375 C 10.707031 0.242188 9.515625 0.546875 8.484375 0.546875 C 8.003906 0.546875 7.535156 0.476562 7.078125 0.34375 C 6.628906 0.207031 6.238281 -0.0078125 5.90625 -0.3125 C 5.582031 -0.613281 5.3125 -1.003906 5.09375 -1.484375 C 4.882812 -1.972656 4.78125 -2.578125 4.78125 -3.296875 L 4.78125 -19.421875 L 0.359375 -19.421875 Z M 0.359375 -21.671875 "/></g></g></g><g fill="#ffffff" fill-opacity="1"><g transform="translate(184.175698, 506.30817)"><g><path d="M 0.359375 -21.671875 L 4.78125 -21.671875 L 4.78125 -30.9375 L 7.5 -30.9375 L 7.5 -21.671875 L 12.1875 -21.671875 L 12.1875 -19.421875 L 7.5 -19.421875 L 7.5 -5.109375 C 7.5 -4.679688 7.503906 -4.285156 7.515625 -3.921875 C 7.535156 -3.566406 7.597656 -3.238281 7.703125 -2.9375 C 7.804688 -2.632812 7.960938 -2.398438 8.171875 -2.234375 C 8.378906 -2.066406 8.679688 -1.984375 9.078125 -1.984375 C 9.710938 -1.984375 10.253906 -2.085938 10.703125 -2.296875 C 11.148438 -2.515625 11.601562 -2.773438 12.0625 -3.078125 L 12.0625 -0.359375 C 10.707031 0.242188 9.515625 0.546875 8.484375 0.546875 C 8.003906 0.546875 7.535156 0.476562 7.078125 0.34375 C 6.628906 0.207031 6.238281 -0.0078125 5.90625 -0.3125 C 5.582031 -0.613281 5.3125 -1.003906 5.09375 -1.484375 C 4.882812 -1.972656 4.78125 -2.578125 4.78125 -3.296875 L 4.78125 -19.421875 L 0.359375 -19.421875 Z M 0.359375 -21.671875 "/></g></g></g><g fill="#ffffff" fill-opacity="1"><g transform="translate(196.729689, 506.30817)"><g><path d="M 2.84375 -21.671875 L 5.546875 -21.671875 L 5.546875 -18.421875 L 5.640625 -18.421875 C 6.066406 -19.472656 6.847656 -20.367188 7.984375 -21.109375 C 9.128906 -21.847656 10.472656 -22.21875 12.015625 -22.21875 C 13.179688 -22.21875 14.3125 -21.984375 15.40625 -21.515625 C 16.507812 -21.046875 17.484375 -20.351562 18.328125 -19.4375 C 19.171875 -18.519531 19.84375 -17.367188 20.34375 -15.984375 C 20.84375 -14.597656 21.09375 -13.003906 21.09375 -11.203125 C 21.09375 -8.941406 20.828125 -7.054688 20.296875 -5.546875 C 19.765625 -4.046875 19.078125 -2.84375 18.234375 -1.9375 C 17.398438 -1.039062 16.453125 -0.398438 15.390625 -0.015625 C 14.335938 0.359375 13.269531 0.546875 12.1875 0.546875 C 10.59375 0.546875 9.226562 0.253906 8.09375 -0.328125 C 6.96875 -0.921875 6.148438 -1.835938 5.640625 -3.078125 L 5.546875 -3.078125 L 5.546875 11.203125 L 2.84375 11.203125 Z M 18.375 -10.84375 C 18.375 -13.582031 17.769531 -15.738281 16.5625 -17.3125 C 15.363281 -18.894531 13.800781 -19.6875 11.875 -19.6875 C 10.519531 -19.6875 9.425781 -19.421875 8.59375 -18.890625 C 7.769531 -18.367188 7.117188 -17.675781 6.640625 -16.8125 C 6.160156 -15.957031 5.835938 -15.003906 5.671875 -13.953125 C 5.503906 -12.898438 5.421875 -11.863281 5.421875 -10.84375 C 5.421875 -9.78125 5.503906 -8.722656 5.671875 -7.671875 C 5.835938 -6.617188 6.148438 -5.671875 6.609375 -4.828125 C 7.078125 -3.984375 7.734375 -3.296875 8.578125 -2.765625 C 9.421875 -2.242188 10.503906 -1.984375 11.828125 -1.984375 C 13.785156 -1.984375 15.363281 -2.773438 16.5625 -4.359375 C 17.769531 -5.941406 18.375 -8.101562 18.375 -10.84375 Z M 18.375 -10.84375 "/></g></g></g><g fill="#ffffff" fill-opacity="1"><g transform="translate(219.308822, 506.30817)"><g><path d="M 3.75 -6 C 4.351562 -4.4375 5.117188 -3.332031 6.046875 -2.6875 C 6.984375 -2.039062 8.3125 -1.71875 10.03125 -1.71875 C 10.570312 -1.71875 11.15625 -1.773438 11.78125 -1.890625 C 12.414062 -2.015625 12.988281 -2.242188 13.5 -2.578125 C 14.007812 -2.910156 14.4375 -3.359375 14.78125 -3.921875 C 15.132812 -4.492188 15.3125 -5.234375 15.3125 -6.140625 C 15.3125 -7.222656 14.992188 -8.019531 14.359375 -8.53125 C 13.722656 -9.039062 12.929688 -9.429688 11.984375 -9.703125 C 11.035156 -9.972656 10.003906 -10.195312 8.890625 -10.375 C 7.773438 -10.5625 6.742188 -10.847656 5.796875 -11.234375 C 4.847656 -11.628906 4.054688 -12.203125 3.421875 -12.953125 C 2.796875 -13.710938 2.484375 -14.8125 2.484375 -16.25 C 2.484375 -17.039062 2.640625 -17.796875 2.953125 -18.515625 C 3.273438 -19.234375 3.75 -19.863281 4.375 -20.40625 C 5.007812 -20.945312 5.785156 -21.382812 6.703125 -21.71875 C 7.617188 -22.050781 8.679688 -22.21875 9.890625 -22.21875 C 12.023438 -22.21875 13.789062 -21.851562 15.1875 -21.125 C 16.59375 -20.40625 17.550781 -19.128906 18.0625 -17.296875 L 15.484375 -16.65625 C 15.003906 -18.007812 14.332031 -18.894531 13.46875 -19.3125 C 12.613281 -19.738281 11.554688 -19.953125 10.296875 -19.953125 C 9.273438 -19.953125 8.429688 -19.851562 7.765625 -19.65625 C 7.097656 -19.46875 6.578125 -19.207031 6.203125 -18.875 C 5.828125 -18.539062 5.5625 -18.140625 5.40625 -17.671875 C 5.257812 -17.210938 5.1875 -16.710938 5.1875 -16.171875 C 5.1875 -15.234375 5.503906 -14.535156 6.140625 -14.078125 C 6.773438 -13.628906 7.566406 -13.269531 8.515625 -13 C 9.460938 -12.726562 10.492188 -12.488281 11.609375 -12.28125 C 12.722656 -12.070312 13.753906 -11.75 14.703125 -11.3125 C 15.648438 -10.875 16.4375 -10.25 17.0625 -9.4375 C 17.695312 -8.625 18.015625 -7.492188 18.015625 -6.046875 C 18.015625 -5.148438 17.832031 -4.300781 17.46875 -3.5 C 17.113281 -2.695312 16.570312 -1.992188 15.84375 -1.390625 C 15.125 -0.796875 14.242188 -0.328125 13.203125 0.015625 C 12.171875 0.367188 10.976562 0.546875 9.625 0.546875 C 8.8125 0.546875 8.003906 0.46875 7.203125 0.3125 C 6.398438 0.164062 5.640625 -0.109375 4.921875 -0.515625 C 4.203125 -0.921875 3.515625 -1.5 2.859375 -2.25 C 2.210938 -3.007812 1.632812 -3.988281 1.125 -5.1875 Z M 3.75 -6 "/></g></g></g><g fill="#ffffff" fill-opacity="1"><g transform="translate(239.359094, 506.30817)"><g><path d="M 8 0 L 4.5625 0 L 4.5625 -5.234375 L 8 -5.234375 Z M 8 -16.125 L 4.5625 -16.125 L 4.5625 -21.359375 L 8 -21.359375 Z M 8 -16.125 "/></g></g></g><g fill="#ffffff" fill-opacity="1"><g transform="translate(251.913085, 506.30817)"><g><path d="M 17.921875 -32.96875 L 20.3125 -32.96875 L 2.984375 0.8125 L 0.59375 0.8125 Z M 17.921875 -32.96875 "/></g></g></g><g fill="#ffffff" fill-opacity="1"><g transform="translate(272.821357, 506.30817)"><g><path d="M 17.921875 -32.96875 L 20.3125 -32.96875 L 2.984375 0.8125 L 0.59375 0.8125 Z M 17.921875 -32.96875 "/></g></g></g><g fill="#ffffff" fill-opacity="1"><g transform="translate(293.72963, 506.30817)"><g><path d="M 0.09375 -21.671875 L 2.75 -21.671875 L 8.671875 -4.296875 L 8.765625 -4.296875 L 15.484375 -21.671875 L 18.28125 -21.671875 L 9.65625 0 L 7.546875 0 Z M 0.09375 -21.671875 "/></g></g></g><g fill="#ffffff" fill-opacity="1"><g transform="translate(312.109041, 506.30817)"><g><path d="M 4.203125 -5.234375 C 4.203125 -4.628906 4.335938 -4.125 4.609375 -3.71875 C 4.878906 -3.3125 5.222656 -2.976562 5.640625 -2.71875 C 6.066406 -2.46875 6.539062 -2.28125 7.0625 -2.15625 C 7.59375 -2.039062 8.113281 -1.984375 8.625 -1.984375 C 9.289062 -1.984375 10.035156 -2.101562 10.859375 -2.34375 C 11.691406 -2.582031 12.484375 -2.972656 13.234375 -3.515625 C 13.984375 -4.054688 14.613281 -4.769531 15.125 -5.65625 C 15.632812 -6.550781 15.890625 -7.660156 15.890625 -8.984375 L 15.890625 -11.46875 L 8.078125 -9.296875 C 6.992188 -8.992188 6.078125 -8.550781 5.328125 -7.96875 C 4.578125 -7.382812 4.203125 -6.472656 4.203125 -5.234375 Z M 21.71875 0.265625 C 20.875 0.265625 20.117188 0.242188 19.453125 0.203125 C 18.796875 0.160156 18.226562 0.0234375 17.75 -0.203125 C 17.269531 -0.429688 16.882812 -0.800781 16.59375 -1.3125 C 16.3125 -1.820312 16.140625 -2.554688 16.078125 -3.515625 L 15.984375 -3.515625 C 15.140625 -2.046875 14.078125 -1 12.796875 -0.375 C 11.515625 0.238281 10.050781 0.546875 8.40625 0.546875 C 7.53125 0.546875 6.675781 0.429688 5.84375 0.203125 C 5.019531 -0.0234375 4.285156 -0.367188 3.640625 -0.828125 C 2.992188 -1.296875 2.472656 -1.890625 2.078125 -2.609375 C 1.679688 -3.335938 1.484375 -4.195312 1.484375 -5.1875 C 1.484375 -6.332031 1.707031 -7.296875 2.15625 -8.078125 C 2.613281 -8.859375 3.210938 -9.503906 3.953125 -10.015625 C 4.691406 -10.535156 5.523438 -10.953125 6.453125 -11.265625 C 7.390625 -11.578125 8.320312 -11.859375 9.25 -12.109375 L 15.890625 -13.8125 L 15.890625 -15.984375 C 15.890625 -17.398438 15.414062 -18.414062 14.46875 -19.03125 C 13.519531 -19.644531 12.1875 -19.953125 10.46875 -19.953125 C 8.664062 -19.953125 7.332031 -19.515625 6.46875 -18.640625 C 5.613281 -17.773438 5.160156 -16.46875 5.109375 -14.71875 L 2.03125 -15.265625 C 2.9375 -19.898438 5.78125 -22.21875 10.5625 -22.21875 C 12.582031 -22.21875 14.132812 -21.960938 15.21875 -21.453125 C 16.300781 -20.941406 17.085938 -20.332031 17.578125 -19.625 C 18.078125 -18.914062 18.375 -18.175781 18.46875 -17.40625 C 18.5625 -16.632812 18.609375 -15.976562 18.609375 -15.4375 L 18.609375 -4.828125 C 18.609375 -4.140625 18.679688 -3.597656 18.828125 -3.203125 C 18.984375 -2.816406 19.195312 -2.53125 19.46875 -2.34375 C 19.738281 -2.164062 20.066406 -2.0625 20.453125 -2.03125 C 20.847656 -2 21.269531 -1.984375 21.71875 -1.984375 Z M 21.71875 0.265625 "/></g></g></g><g fill="#ffffff" fill-opacity="1"><g transform="translate(333.830162, 506.30817)"><g><path d="M 3.25 -21.671875 L 5.953125 -21.671875 L 5.953125 -18.65625 L 6.046875 -18.65625 C 6.804688 -19.789062 7.617188 -20.664062 8.484375 -21.28125 C 9.359375 -21.90625 10.503906 -22.21875 11.921875 -22.21875 C 12.285156 -22.21875 12.613281 -22.207031 12.90625 -22.1875 C 13.207031 -22.175781 13.523438 -22.15625 13.859375 -22.125 L 13.859375 -19.78125 C 13.285156 -19.894531 12.6875 -19.953125 12.0625 -19.953125 C 9.945312 -19.953125 8.398438 -19.257812 7.421875 -17.875 C 6.441406 -16.488281 5.953125 -14.6875 5.953125 -12.46875 L 5.953125 0 L 3.25 0 Z M 3.25 -21.671875 "/></g></g></g><g fill="#ffffff" fill-opacity="1"><g transform="translate(347.197002, 506.30817)"><g><path d="M 8 0 L 4.5625 0 L 4.5625 -5.234375 L 8 -5.234375 Z M 8 0 "/></g></g></g><g fill="#ffffff" fill-opacity="1"><g transform="translate(359.750993, 506.30817)"><g><path d="M 3.078125 -21.671875 L 5.78125 -21.671875 L 5.78125 -18.203125 L 5.875 -18.203125 C 6.351562 -19.335938 7.085938 -20.289062 8.078125 -21.0625 C 9.078125 -21.832031 10.34375 -22.21875 11.875 -22.21875 C 13.5 -22.21875 14.882812 -21.832031 16.03125 -21.0625 C 17.175781 -20.289062 17.867188 -19.09375 18.109375 -17.46875 L 18.203125 -17.46875 C 18.773438 -18.945312 19.59375 -20.109375 20.65625 -20.953125 C 21.726562 -21.796875 23.164062 -22.21875 24.96875 -22.21875 C 26.53125 -22.21875 27.738281 -21.929688 28.59375 -21.359375 C 29.457031 -20.785156 30.082031 -20.082031 30.46875 -19.25 C 30.863281 -18.425781 31.09375 -17.5625 31.15625 -16.65625 C 31.21875 -15.757812 31.25 -14.976562 31.25 -14.3125 L 31.25 0 L 28.53125 0 L 28.53125 -14 C 28.53125 -14.601562 28.507812 -15.242188 28.46875 -15.921875 C 28.425781 -16.597656 28.269531 -17.210938 28 -17.765625 C 27.726562 -18.328125 27.3125 -18.785156 26.75 -19.140625 C 26.195312 -19.503906 25.410156 -19.6875 24.390625 -19.6875 C 23.421875 -19.6875 22.570312 -19.484375 21.84375 -19.078125 C 21.125 -18.671875 20.515625 -18.117188 20.015625 -17.421875 C 19.523438 -16.734375 19.148438 -15.929688 18.890625 -15.015625 C 18.640625 -14.097656 18.515625 -13.113281 18.515625 -12.0625 L 18.515625 0 L 15.796875 0 L 15.796875 -13.640625 C 15.796875 -14.328125 15.757812 -15.03125 15.6875 -15.75 C 15.613281 -16.476562 15.441406 -17.132812 15.171875 -17.71875 C 14.898438 -18.3125 14.484375 -18.785156 13.921875 -19.140625 C 13.367188 -19.503906 12.613281 -19.6875 11.65625 -19.6875 C 9.96875 -19.6875 8.566406 -18.992188 7.453125 -17.609375 C 6.335938 -16.222656 5.78125 -14.328125 5.78125 -11.921875 L 5.78125 0 L 3.078125 0 Z M 3.078125 -21.671875 "/></g></g></g><g fill="#ffffff" fill-opacity="1"><g transform="translate(394.071256, 506.30817)"><g><path d="M 0.453125 -21.671875 L 2.984375 -21.671875 L 9.25 -3.4375 L 9.34375 -3.4375 L 16.484375 -21.671875 L 19.0625 -21.671875 L 8.359375 5.828125 C 8.117188 6.453125 7.863281 7.082031 7.59375 7.71875 C 7.320312 8.351562 6.988281 8.925781 6.59375 9.4375 C 6.195312 9.945312 5.71875 10.367188 5.15625 10.703125 C 4.601562 11.035156 3.910156 11.203125 3.078125 11.203125 C 2.554688 11.203125 2.054688 11.117188 1.578125 10.953125 C 1.097656 10.785156 0.632812 10.597656 0.1875 10.390625 L 0.1875 7.59375 C 0.601562 7.832031 1.046875 8.070312 1.515625 8.3125 C 1.984375 8.550781 2.472656 8.671875 2.984375 8.671875 C 3.367188 8.671875 3.710938 8.5625 4.015625 8.34375 C 4.316406 8.132812 4.570312 7.878906 4.78125 7.578125 C 5 7.285156 5.179688 6.972656 5.328125 6.640625 C 5.472656 6.304688 5.59375 6.003906 5.6875 5.734375 L 7.90625 0.046875 Z M 0.453125 -21.671875 "/></g></g></g><g fill="#ffffff" fill-opacity="1"><g transform="translate(413.308679, 506.30817)"><g><path d="M 8 0 L 4.5625 0 L 4.5625 -5.234375 L 8 -5.234375 Z M 8 0 "/></g></g></g><g fill="#ffffff" fill-opacity="1"><g transform="translate(425.862659, 506.30817)"><g><path d="M 2.84375 -21.671875 L 5.546875 -21.671875 L 5.546875 0 L 2.84375 0 Z M 2.84375 -30.609375 L 5.546875 -30.609375 L 5.546875 -26.375 L 2.84375 -26.375 Z M 2.84375 -30.609375 "/></g></g></g><g fill="#ffffff" fill-opacity="1"><g transform="translate(434.262079, 506.30817)"><g><path d="M 17.03125 -2.9375 L 16.9375 -2.9375 C 16.300781 -1.644531 15.40625 -0.738281 14.25 -0.21875 C 13.09375 0.289062 11.878906 0.546875 10.609375 0.546875 C 9.585938 0.546875 8.539062 0.34375 7.46875 -0.0625 C 6.40625 -0.46875 5.425781 -1.113281 4.53125 -2 C 3.644531 -2.894531 2.914062 -4.039062 2.34375 -5.4375 C 1.769531 -6.84375 1.484375 -8.550781 1.484375 -10.5625 C 1.484375 -12.457031 1.722656 -14.128906 2.203125 -15.578125 C 2.691406 -17.023438 3.347656 -18.242188 4.171875 -19.234375 C 5.003906 -20.234375 5.96875 -20.976562 7.0625 -21.46875 C 8.164062 -21.96875 9.332031 -22.21875 10.5625 -22.21875 C 12.101562 -22.21875 13.382812 -21.914062 14.40625 -21.3125 C 15.425781 -20.707031 16.269531 -19.878906 16.9375 -18.828125 L 17.03125 -18.828125 L 17.03125 -32.15625 L 19.734375 -32.15625 L 19.734375 0 L 17.03125 0 Z M 4.203125 -10.84375 C 4.203125 -8.101562 4.800781 -5.941406 6 -4.359375 C 7.207031 -2.773438 8.789062 -1.984375 10.75 -1.984375 C 12.007812 -1.984375 13.050781 -2.242188 13.875 -2.765625 C 14.707031 -3.296875 15.363281 -3.984375 15.84375 -4.828125 C 16.332031 -5.671875 16.671875 -6.617188 16.859375 -7.671875 C 17.054688 -8.722656 17.15625 -9.78125 17.15625 -10.84375 C 17.15625 -11.894531 17.070312 -12.945312 16.90625 -14 C 16.738281 -15.050781 16.429688 -16 15.984375 -16.84375 C 15.535156 -17.6875 14.90625 -18.367188 14.09375 -18.890625 C 13.28125 -19.421875 12.222656 -19.6875 10.921875 -19.6875 C 8.878906 -19.6875 7.25 -18.894531 6.03125 -17.3125 C 4.8125 -15.738281 4.203125 -13.582031 4.203125 -10.84375 Z M 4.203125 -10.84375 "/></g></g></g><g fill="#ffffff" fill-opacity="1"><g transform="translate(172.736183, 115.908951)"><g><path d="M 0.640625 -41.046875 L 6.578125 -41.046875 L 17.296875 -7.5 L 17.40625 -7.5 L 28.828125 -41.046875 L 34.53125 -41.046875 L 19.953125 0 L 14.359375 0 Z M 0.640625 -41.046875 "/></g></g></g><g fill="#ffffff" fill-opacity="1"><g transform="translate(207.908032, 115.908951)"><g><path d="M 19.78125 -13.4375 C 17.851562 -13.164062 16.082031 -12.882812 14.46875 -12.59375 C 12.851562 -12.3125 11.46875 -11.945312 10.3125 -11.5 C 9.164062 -11.0625 8.273438 -10.503906 7.640625 -9.828125 C 7.003906 -9.160156 6.6875 -8.285156 6.6875 -7.203125 C 6.6875 -6.359375 6.859375 -5.664062 7.203125 -5.125 C 7.546875 -4.59375 7.976562 -4.160156 8.5 -3.828125 C 9.019531 -3.503906 9.585938 -3.285156 10.203125 -3.171875 C 10.816406 -3.054688 11.414062 -3 12 -3 C 14.226562 -3 16.082031 -3.628906 17.5625 -4.890625 C 19.039062 -6.160156 19.78125 -7.953125 19.78125 -10.265625 Z M 19.78125 -18.96875 C 19.78125 -20.925781 19.296875 -22.347656 18.328125 -23.234375 C 17.367188 -24.117188 15.695312 -24.5625 13.3125 -24.5625 C 9.738281 -24.5625 7.859375 -22.675781 7.671875 -18.90625 L 2.9375 -19.203125 C 3.25 -22.316406 4.296875 -24.601562 6.078125 -26.0625 C 7.867188 -27.519531 10.300781 -28.25 13.375 -28.25 C 14.53125 -28.25 15.757812 -28.144531 17.0625 -27.9375 C 18.375 -27.726562 19.578125 -27.3125 20.671875 -26.6875 C 21.765625 -26.070312 22.675781 -25.207031 23.40625 -24.09375 C 24.132812 -22.976562 24.5 -21.519531 24.5 -19.71875 L 24.5 -6.921875 C 24.5 -5.578125 24.707031 -4.722656 25.125 -4.359375 C 25.550781 -3.992188 26.015625 -3.8125 26.515625 -3.8125 C 26.984375 -3.8125 27.46875 -3.90625 27.96875 -4.09375 L 27.96875 -0.171875 C 27.5 -0.0546875 27.015625 0.0351562 26.515625 0.109375 C 26.015625 0.191406 25.515625 0.234375 25.015625 0.234375 C 23.597656 0.234375 22.523438 -0.0703125 21.796875 -0.6875 C 21.066406 -1.300781 20.546875 -2.265625 20.234375 -3.578125 C 17.660156 -0.734375 14.394531 0.6875 10.4375 0.6875 C 9.207031 0.6875 8.050781 0.492188 6.96875 0.109375 C 5.894531 -0.273438 4.960938 -0.8125 4.171875 -1.5 C 3.390625 -2.1875 2.765625 -2.988281 2.296875 -3.90625 C 1.835938 -4.832031 1.609375 -5.835938 1.609375 -6.921875 C 1.609375 -8.804688 2.019531 -10.34375 2.84375 -11.53125 C 3.675781 -12.71875 4.867188 -13.65625 6.421875 -14.34375 C 7.984375 -15.039062 9.890625 -15.539062 12.140625 -15.84375 C 14.390625 -16.15625 16.9375 -16.390625 19.78125 -16.546875 Z M 19.78125 -18.96875 "/></g></g></g><g fill="#ffffff" fill-opacity="1"><g transform="translate(236.737411, 115.908951)"><g><path d="M 3.625 -27.5625 L 8.359375 -27.5625 L 8.359375 -22.828125 L 8.46875 -22.828125 C 9.582031 -24.710938 10.890625 -26.03125 12.390625 -26.78125 C 13.890625 -27.53125 15.832031 -27.90625 18.21875 -27.90625 L 18.21875 -22.71875 C 17.757812 -22.757812 17.222656 -22.785156 16.609375 -22.796875 C 15.992188 -22.816406 15.472656 -22.828125 15.046875 -22.828125 C 13.890625 -22.828125 12.898438 -22.585938 12.078125 -22.109375 C 11.253906 -21.628906 10.5625 -21.03125 10 -20.3125 C 9.445312 -19.601562 9.035156 -18.816406 8.765625 -17.953125 C 8.492188 -17.085938 8.359375 -16.253906 8.359375 -15.453125 L 8.359375 0 L 3.625 0 Z M 3.625 -27.5625 "/></g></g></g><g fill="#ffffff" fill-opacity="1"><g transform="translate(255.937781, 115.908951)"><g><path d="M 3.515625 -27.5625 L 8.25 -27.5625 L 8.25 0 L 3.515625 0 Z M 3.515625 -41.046875 L 8.25 -41.046875 L 8.25 -35.625 L 3.515625 -35.625 Z M 3.515625 -41.046875 "/></g></g></g><g fill="#ffffff" fill-opacity="1"><g transform="translate(267.700173, 115.908951)"><g><path d="M 19.78125 -13.4375 C 17.851562 -13.164062 16.082031 -12.882812 14.46875 -12.59375 C 12.851562 -12.3125 11.46875 -11.945312 10.3125 -11.5 C 9.164062 -11.0625 8.273438 -10.503906 7.640625 -9.828125 C 7.003906 -9.160156 6.6875 -8.285156 6.6875 -7.203125 C 6.6875 -6.359375 6.859375 -5.664062 7.203125 -5.125 C 7.546875 -4.59375 7.976562 -4.160156 8.5 -3.828125 C 9.019531 -3.503906 9.585938 -3.285156 10.203125 -3.171875 C 10.816406 -3.054688 11.414062 -3 12 -3 C 14.226562 -3 16.082031 -3.628906 17.5625 -4.890625 C 19.039062 -6.160156 19.78125 -7.953125 19.78125 -10.265625 Z M 19.78125 -18.96875 C 19.78125 -20.925781 19.296875 -22.347656 18.328125 -23.234375 C 17.367188 -24.117188 15.695312 -24.5625 13.3125 -24.5625 C 9.738281 -24.5625 7.859375 -22.675781 7.671875 -18.90625 L 2.9375 -19.203125 C 3.25 -22.316406 4.296875 -24.601562 6.078125 -26.0625 C 7.867188 -27.519531 10.300781 -28.25 13.375 -28.25 C 14.53125 -28.25 15.757812 -28.144531 17.0625 -27.9375 C 18.375 -27.726562 19.578125 -27.3125 20.671875 -26.6875 C 21.765625 -26.070312 22.675781 -25.207031 23.40625 -24.09375 C 24.132812 -22.976562 24.5 -21.519531 24.5 -19.71875 L 24.5 -6.921875 C 24.5 -5.578125 24.707031 -4.722656 25.125 -4.359375 C 25.550781 -3.992188 26.015625 -3.8125 26.515625 -3.8125 C 26.984375 -3.8125 27.46875 -3.90625 27.96875 -4.09375 L 27.96875 -0.171875 C 27.5 -0.0546875 27.015625 0.0351562 26.515625 0.109375 C 26.015625 0.191406 25.515625 0.234375 25.015625 0.234375 C 23.597656 0.234375 22.523438 -0.0703125 21.796875 -0.6875 C 21.066406 -1.300781 20.546875 -2.265625 20.234375 -3.578125 C 17.660156 -0.734375 14.394531 0.6875 10.4375 0.6875 C 9.207031 0.6875 8.050781 0.492188 6.96875 0.109375 C 5.894531 -0.273438 4.960938 -0.8125 4.171875 -1.5 C 3.390625 -2.1875 2.765625 -2.988281 2.296875 -3.90625 C 1.835938 -4.832031 1.609375 -5.835938 1.609375 -6.921875 C 1.609375 -8.804688 2.019531 -10.34375 2.84375 -11.53125 C 3.675781 -12.71875 4.867188 -13.65625 6.421875 -14.34375 C 7.984375 -15.039062 9.890625 -15.539062 12.140625 -15.84375 C 14.390625 -16.15625 16.9375 -16.390625 19.78125 -16.546875 Z M 19.78125 -18.96875 "/></g></g></g><g fill="#ffffff" fill-opacity="1"><g transform="translate(296.529552, 115.908951)"><g><path d="M 3.625 -27.5625 L 8.359375 -27.5625 L 8.359375 -23.875 L 8.46875 -23.875 C 9.351562 -25.257812 10.46875 -26.332031 11.8125 -27.09375 C 13.164062 -27.863281 14.742188 -28.25 16.546875 -28.25 C 17.929688 -28.25 19.21875 -28.082031 20.40625 -27.75 C 21.601562 -27.425781 22.632812 -26.867188 23.5 -26.078125 C 24.363281 -25.296875 25.046875 -24.257812 25.546875 -22.96875 C 26.046875 -21.6875 26.296875 -20.082031 26.296875 -18.15625 L 26.296875 0 L 21.5625 0 L 21.5625 -17.703125 C 21.5625 -18.890625 21.414062 -19.878906 21.125 -20.671875 C 20.84375 -21.460938 20.441406 -22.097656 19.921875 -22.578125 C 19.398438 -23.054688 18.785156 -23.390625 18.078125 -23.578125 C 17.367188 -23.773438 16.585938 -23.875 15.734375 -23.875 C 13.546875 -23.875 11.769531 -23.21875 10.40625 -21.90625 C 9.039062 -20.601562 8.359375 -18.835938 8.359375 -16.609375 L 8.359375 0 L 3.625 0 Z M 3.625 -27.5625 "/></g></g></g><g fill="#ffffff" fill-opacity="1"><g transform="translate(326.454451, 115.908951)"><g><path d="M 22.953125 -18.453125 C 22.597656 -20.335938 21.765625 -21.828125 20.453125 -22.921875 C 19.148438 -24.015625 17.539062 -24.5625 15.625 -24.5625 C 13.9375 -24.5625 12.539062 -24.234375 11.4375 -23.578125 C 10.34375 -22.921875 9.46875 -22.070312 8.8125 -21.03125 C 8.164062 -20 7.707031 -18.835938 7.4375 -17.546875 C 7.164062 -16.265625 7.03125 -14.988281 7.03125 -13.71875 C 7.03125 -12.375 7.179688 -11.054688 7.484375 -9.765625 C 7.796875 -8.484375 8.28125 -7.34375 8.9375 -6.34375 C 9.59375 -5.34375 10.457031 -4.535156 11.53125 -3.921875 C 12.601562 -3.304688 13.929688 -3 15.515625 -3 C 17.859375 -3 19.738281 -3.648438 21.15625 -4.953125 C 22.582031 -6.265625 23.332031 -8.09375 23.40625 -10.4375 L 28.484375 -10.03125 C 28.054688 -6.644531 26.6875 -4.007812 24.375 -2.125 C 22.070312 -0.25 19.175781 0.6875 15.6875 0.6875 C 13.457031 0.6875 11.484375 0.34375 9.765625 -0.34375 C 8.054688 -1.039062 6.625 -2.007812 5.46875 -3.25 C 4.320312 -4.5 3.445312 -5.988281 2.84375 -7.71875 C 2.25 -9.457031 1.953125 -11.378906 1.953125 -13.484375 C 1.953125 -15.597656 2.25 -17.554688 2.84375 -19.359375 C 3.445312 -21.171875 4.320312 -22.738281 5.46875 -24.0625 C 6.625 -25.394531 8.046875 -26.425781 9.734375 -27.15625 C 11.429688 -27.882812 13.394531 -28.25 15.625 -28.25 C 17.050781 -28.25 18.445312 -28.054688 19.8125 -27.671875 C 21.175781 -27.285156 22.40625 -26.707031 23.5 -25.9375 C 24.59375 -25.175781 25.53125 -24.21875 26.3125 -23.0625 C 27.101562 -21.90625 27.671875 -20.539062 28.015625 -18.96875 Z M 22.953125 -18.453125 "/></g></g></g><g fill="#ffffff" fill-opacity="1"><g transform="translate(356.37935, 115.908951)"><g><path d="M 7.03125 -12.734375 C 7.03125 -11.359375 7.210938 -10.082031 7.578125 -8.90625 C 7.941406 -7.738281 8.46875 -6.710938 9.15625 -5.828125 C 9.851562 -4.941406 10.71875 -4.25 11.75 -3.75 C 12.789062 -3.25 13.988281 -3 15.34375 -3 C 19.445312 -3 22.019531 -5.054688 23.0625 -9.171875 L 27.734375 -8.59375 C 26.847656 -5.476562 25.300781 -3.148438 23.09375 -1.609375 C 20.882812 -0.078125 18.238281 0.6875 15.15625 0.6875 C 13.050781 0.726562 11.179688 0.375 9.546875 -0.375 C 7.910156 -1.125 6.523438 -2.140625 5.390625 -3.421875 C 4.253906 -4.710938 3.394531 -6.234375 2.8125 -7.984375 C 2.238281 -9.734375 1.953125 -11.585938 1.953125 -13.546875 C 1.953125 -15.773438 2.222656 -17.789062 2.765625 -19.59375 C 3.304688 -21.40625 4.113281 -22.953125 5.1875 -24.234375 C 6.257812 -25.523438 7.625 -26.515625 9.28125 -27.203125 C 10.9375 -27.898438 12.878906 -28.25 15.109375 -28.25 C 17.253906 -28.25 19.132812 -27.882812 20.75 -27.15625 C 22.363281 -26.425781 23.695312 -25.40625 24.75 -24.09375 C 25.8125 -22.789062 26.613281 -21.265625 27.15625 -19.515625 C 27.695312 -17.765625 27.96875 -15.875 27.96875 -13.84375 L 27.96875 -12.734375 Z M 22.890625 -16.4375 C 22.734375 -17.550781 22.460938 -18.609375 22.078125 -19.609375 C 21.691406 -20.609375 21.15625 -21.472656 20.46875 -22.203125 C 19.78125 -22.929688 18.953125 -23.503906 17.984375 -23.921875 C 17.023438 -24.347656 15.894531 -24.5625 14.59375 -24.5625 C 13.4375 -24.5625 12.40625 -24.328125 11.5 -23.859375 C 10.59375 -23.398438 9.820312 -22.796875 9.1875 -22.046875 C 8.5625 -21.296875 8.066406 -20.429688 7.703125 -19.453125 C 7.335938 -18.472656 7.113281 -17.46875 7.03125 -16.4375 Z M 22.890625 -16.4375 "/></g></g></g></svg>