<svg xmlns="http://www.w3.org/2000/svg" xmlns:xlink="http://www.w3.org/1999/xlink" width="1920" zoomAndPan="magnify" viewBox="0 0 1440 675.000002" height="900" preserveAspectRatio="xMidYMid meet" version="1.0"><defs><g/><clipPath id="e83076a547"><path d="M 1.066406 0 L 1438.933594 0 L 1438.933594 674 L 1.066406 674 Z M 1.066406 0 " clip-rule="nonzero"/></clipPath><clipPath id="1a73049633"><path d="M 1.066406 63.421875 L 577 63.421875 L 577 136.691406 L 1.066406 136.691406 Z M 1.066406 63.421875 " clip-rule="nonzero"/></clipPath><clipPath id="33af2ff452"><path d="M 567 127 L 577 127 L 577 136.691406 L 567 136.691406 Z M 567 127 " clip-rule="nonzero"/></clipPath><clipPath id="a217575236"><path d="M 612 118 L 631 118 L 631 136.691406 L 612 136.691406 Z M 612 118 " clip-rule="nonzero"/></clipPath><clipPath id="65fd59680b"><path d="M 603 63.421875 L 613 63.421875 L 613 73 L 603 73 Z M 603 63.421875 " clip-rule="nonzero"/></clipPath><clipPath id="794a916ddc"><path d="M 621 63.421875 L 631 63.421875 L 631 73 L 621 73 Z M 621 63.421875 " clip-rule="nonzero"/></clipPath><clipPath id="e8a8a18d96"><path d="M 648 63.421875 L 668 63.421875 L 668 73 L 648 73 Z M 648 63.421875 " clip-rule="nonzero"/></clipPath><clipPath id="2a1573f83f"><path d="M 667 91 L 676.339844 91 L 676.339844 101 L 667 101 Z M 667 91 " clip-rule="nonzero"/></clipPath><clipPath id="08820de3af"><path d="M 99.71875 69.546875 L 154.203125 69.546875 L 154.203125 116 L 99.71875 116 Z M 99.71875 69.546875 " clip-rule="nonzero"/></clipPath><clipPath id="7c53dff3f6"><path d="M 119 69.546875 L 154.203125 69.546875 L 154.203125 128.726562 L 119 128.726562 Z M 119 69.546875 " clip-rule="nonzero"/></clipPath><clipPath id="17faa7ad98"><path d="M 96.585938 540.0625 L 511.789062 540.0625 L 511.789062 610.515625 L 96.585938 610.515625 Z M 96.585938 540.0625 " clip-rule="nonzero"/></clipPath><clipPath id="d3fb4ed999"><path d="M 942 293.429688 L 1073 293.429688 L 1073 435 L 942 435 Z M 942 293.429688 " clip-rule="nonzero"/></clipPath><clipPath id="d73bfbef8d"><path d="M 1074 449 L 1385.363281 449 L 1385.363281 610.9375 L 1074 610.9375 Z M 1074 449 " clip-rule="nonzero"/></clipPath></defs><g clip-path="url(#e83076a547)"><path fill="#ffffff" d="M 1.066406 0 L 1438.933594 0 L 1438.933594 681.492188 L 1.066406 681.492188 Z M 1.066406 0 " fill-opacity="1" fill-rule="nonzero"/><path fill="#ffffff" d="M 1.066406 0 L 1438.933594 0 L 1438.933594 674 L 1.066406 674 Z M 1.066406 0 " fill-opacity="1" fill-rule="nonzero"/><path fill="#141414" d="M 1.066406 0 L 1438.933594 0 L 1438.933594 674 L 1.066406 674 Z M 1.066406 0 " fill-opacity="1" fill-rule="nonzero"/></g><g clip-path="url(#1a73049633)"><path fill="#9f0000" d="M 549.421875 118.175781 L 540.308594 118.175781 L 540.308594 109.078125 L 549.421875 109.078125 Z M 531.199219 99.984375 L 531.199219 90.886719 L 540.308594 90.886719 L 540.308594 99.984375 Z M 522.089844 99.984375 L 512.984375 99.984375 L 512.984375 90.886719 L 522.089844 90.886719 Z M 522.089844 118.175781 L 503.871094 118.175781 L 503.871094 109.078125 L 494.863281 109.078125 L 494.863281 99.984375 L 503.871094 99.984375 L 503.871094 109.078125 L 522.089844 109.078125 Z M 558.523438 118.175781 L 558.523438 99.984375 L 567.636719 99.984375 L 567.636719 81.789062 L 576.746094 81.789062 L 576.746094 63.597656 L 567.636719 63.597656 L 567.636719 72.699219 L 558.523438 72.699219 L 558.523438 63.597656 L 549.421875 63.597656 L 549.421875 81.789062 L 558.523438 81.789062 L 558.523438 90.886719 L 549.421875 90.886719 L 549.421875 81.789062 L 540.308594 81.789062 L 540.308594 72.699219 L 531.199219 72.699219 L 531.199219 63.597656 L 512.984375 63.597656 L 512.984375 72.699219 L 522.089844 72.699219 L 522.089844 81.789062 L 503.871094 81.789062 L 503.871094 63.597656 L -6.875 63.597656 L -63.921875 136.371094 L 503.871094 136.371094 L 503.871094 127.269531 L 512.984375 127.269531 L 512.984375 136.371094 L 531.199219 136.371094 L 531.199219 127.269531 L 540.308594 127.269531 L 540.308594 136.371094 L 549.421875 136.371094 L 549.421875 127.269531 L 558.523438 127.269531 L 558.523438 127.277344 L 567.636719 127.277344 L 567.636719 118.175781 L 558.523438 118.175781 " fill-opacity="1" fill-rule="nonzero"/></g><g clip-path="url(#33af2ff452)"><path fill="#9f0000" d="M 567.636719 136.371094 L 576.746094 136.371094 L 576.746094 127.277344 L 567.636719 127.277344 L 567.636719 136.371094 " fill-opacity="1" fill-rule="nonzero"/></g><path fill="#9f0000" d="M 585.851562 81.789062 L 603.371094 81.953125 L 603.371094 72.863281 L 585.851562 72.699219 L 585.851562 81.789062 " fill-opacity="1" fill-rule="nonzero"/><g clip-path="url(#a217575236)"><path fill="#9f0000" d="M 621.589844 118.339844 L 612.480469 118.339844 L 612.480469 136.539062 L 630.695312 136.539062 L 630.695312 127.4375 L 621.589844 127.4375 L 621.589844 118.339844 " fill-opacity="1" fill-rule="nonzero"/></g><g clip-path="url(#65fd59680b)"><path fill="#9f0000" d="M 612.480469 63.761719 L 603.371094 63.761719 L 603.371094 72.863281 L 612.480469 72.863281 L 612.480469 63.761719 " fill-opacity="1" fill-rule="nonzero"/></g><g clip-path="url(#794a916ddc)"><path fill="#9f0000" d="M 621.589844 63.761719 L 621.589844 72.863281 L 630.695312 72.863281 L 630.695312 63.761719 L 621.589844 63.761719 " fill-opacity="1" fill-rule="nonzero"/></g><g clip-path="url(#e8a8a18d96)"><path fill="#9f0000" d="M 667.132812 63.761719 L 648.917969 63.761719 L 648.917969 72.863281 L 667.132812 72.863281 L 667.132812 63.761719 " fill-opacity="1" fill-rule="nonzero"/></g><path fill="#9f0000" d="M 648.917969 91.054688 L 658.027344 91.054688 L 658.027344 81.953125 L 648.917969 81.953125 L 648.917969 91.054688 " fill-opacity="1" fill-rule="nonzero"/><path fill="#9f0000" d="M 621.589844 91.054688 L 621.589844 100.152344 L 639.804688 100.152344 L 639.804688 91.054688 L 621.589844 91.054688 " fill-opacity="1" fill-rule="nonzero"/><path fill="#9f0000" d="M 648.917969 127.269531 L 658.027344 127.269531 L 658.027344 118.175781 L 648.917969 118.175781 L 648.917969 127.269531 " fill-opacity="1" fill-rule="nonzero"/><path fill="#9f0000" d="M 594.257812 109.078125 L 585.851562 109.078125 L 585.851562 99.984375 L 594.960938 99.984375 L 594.960938 90.886719 L 576.746094 90.886719 L 576.746094 109.078125 L 567.636719 109.078125 L 567.636719 118.175781 L 576.746094 118.175781 L 576.746094 127.277344 L 585.851562 127.277344 L 585.851562 118.175781 L 594.960938 118.175781 L 594.960938 109.246094 L 603.371094 109.246094 L 603.371094 100.152344 L 594.257812 100.152344 L 594.257812 109.078125 " fill-opacity="1" fill-rule="nonzero"/><path fill="#9f0000" d="M 612.480469 109.246094 L 621.589844 109.246094 L 621.589844 100.152344 L 612.480469 100.152344 L 612.480469 109.246094 " fill-opacity="1" fill-rule="nonzero"/><path fill="#9f0000" d="M 612.480469 81.953125 L 612.480469 91.054688 L 621.589844 91.054688 L 621.589844 81.953125 L 612.480469 81.953125 " fill-opacity="1" fill-rule="nonzero"/><g clip-path="url(#2a1573f83f)"><path fill="#9f0000" d="M 667.132812 91.054688 L 667.132812 100.152344 L 676.242188 100.152344 L 676.242188 91.054688 L 667.132812 91.054688 " fill-opacity="1" fill-rule="nonzero"/></g><path fill="#9f0000" d="M 630.695312 81.953125 L 639.804688 81.953125 L 639.804688 72.863281 L 630.695312 72.863281 L 630.695312 81.953125 " fill-opacity="1" fill-rule="nonzero"/><path fill="#9f0000" d="M 630.695312 127.4375 L 639.804688 127.4375 L 639.804688 118.339844 L 630.695312 118.339844 L 630.695312 127.4375 " fill-opacity="1" fill-rule="nonzero"/><g fill="#ffffff" fill-opacity="1"><g transform="translate(91.895346, 481.065044)"><g><path d="M 6.4375 -70.59375 L 52.453125 -70.59375 L 52.453125 -64.453125 L 13.1875 -64.453125 L 13.1875 -40.859375 L 48.28125 -40.859375 L 48.28125 -34.703125 L 13.1875 -34.703125 L 13.1875 0 L 6.4375 0 Z M 6.4375 -70.59375 "/></g></g></g><g fill="#ffffff" fill-opacity="1"><g transform="translate(147.021396, 481.065044)"><g><path d="M 3.265625 -23.796875 C 3.265625 -27.828125 3.828125 -31.410156 4.953125 -34.546875 C 6.078125 -37.691406 7.613281 -40.304688 9.5625 -42.390625 C 11.519531 -44.472656 13.800781 -46.054688 16.40625 -47.140625 C 19.019531 -48.234375 21.8125 -48.78125 24.78125 -48.78125 C 27.757812 -48.78125 30.550781 -48.234375 33.15625 -47.140625 C 35.769531 -46.054688 38.050781 -44.472656 40 -42.390625 C 41.957031 -40.304688 43.5 -37.691406 44.625 -34.546875 C 45.75 -31.410156 46.3125 -27.828125 46.3125 -23.796875 C 46.3125 -19.703125 45.75 -16.097656 44.625 -12.984375 C 43.5 -9.878906 41.957031 -7.285156 40 -5.203125 C 38.050781 -3.117188 35.769531 -1.53125 33.15625 -0.4375 C 30.550781 0.644531 27.757812 1.1875 24.78125 1.1875 C 21.8125 1.1875 19.019531 0.644531 16.40625 -0.4375 C 13.800781 -1.53125 11.519531 -3.117188 9.5625 -5.203125 C 7.613281 -7.285156 6.078125 -9.878906 4.953125 -12.984375 C 3.828125 -16.097656 3.265625 -19.703125 3.265625 -23.796875 Z M 24.78125 -43.234375 C 22.601562 -43.234375 20.554688 -42.785156 18.640625 -41.890625 C 16.722656 -41.003906 15.066406 -39.734375 13.671875 -38.078125 C 12.285156 -36.421875 11.195312 -34.382812 10.40625 -31.96875 C 9.613281 -29.5625 9.21875 -26.835938 9.21875 -23.796875 C 9.21875 -20.691406 9.613281 -17.945312 10.40625 -15.5625 C 11.195312 -13.1875 12.285156 -11.15625 13.671875 -9.46875 C 15.066406 -7.78125 16.722656 -6.503906 18.640625 -5.640625 C 20.554688 -4.785156 22.601562 -4.359375 24.78125 -4.359375 C 26.96875 -4.359375 29.019531 -4.785156 30.9375 -5.640625 C 32.851562 -6.503906 34.503906 -7.78125 35.890625 -9.46875 C 37.285156 -11.15625 38.378906 -13.1875 39.171875 -15.5625 C 39.960938 -17.945312 40.359375 -20.691406 40.359375 -23.796875 C 40.359375 -26.835938 39.960938 -29.5625 39.171875 -31.96875 C 38.378906 -34.382812 37.285156 -36.421875 35.890625 -38.078125 C 34.503906 -39.734375 32.851562 -41.003906 30.9375 -41.890625 C 29.019531 -42.785156 26.96875 -43.234375 24.78125 -43.234375 Z M 24.78125 -43.234375 "/></g></g></g><g fill="#ffffff" fill-opacity="1"><g transform="translate(196.595177, 481.065044)"><g><path d="M 7.140625 -47.59375 L 13.09375 -47.59375 L 13.09375 -40.953125 L 13.28125 -40.953125 C 14.9375 -43.460938 16.722656 -45.394531 18.640625 -46.75 C 20.554688 -48.101562 23.066406 -48.78125 26.171875 -48.78125 C 26.960938 -48.78125 27.6875 -48.765625 28.34375 -48.734375 C 29.007812 -48.703125 29.707031 -48.65625 30.4375 -48.59375 L 30.4375 -43.4375 C 29.1875 -43.695312 27.863281 -43.828125 26.46875 -43.828125 C 21.84375 -43.828125 18.457031 -42.304688 16.3125 -39.265625 C 14.164062 -36.222656 13.09375 -32.253906 13.09375 -27.359375 L 13.09375 0 L 7.140625 0 Z M 7.140625 -47.59375 "/></g></g></g><g fill="#ffffff" fill-opacity="1"><g transform="translate(225.94286, 481.065044)"><g/></g></g><g fill="#ffffff" fill-opacity="1"><g transform="translate(253.505885, 481.065044)"><g><path d="M 26.875 -29.453125 L 0.296875 -70.59375 L 8.421875 -70.59375 L 30.4375 -35.703125 L 52.453125 -70.59375 L 60.1875 -70.59375 L 33.609375 -29.453125 L 33.609375 0 L 26.875 0 Z M 26.875 -29.453125 "/></g></g></g><g fill="#ffffff" fill-opacity="1"><g transform="translate(313.985897, 481.065044)"><g><path d="M 3.265625 -23.796875 C 3.265625 -27.828125 3.828125 -31.410156 4.953125 -34.546875 C 6.078125 -37.691406 7.613281 -40.304688 9.5625 -42.390625 C 11.519531 -44.472656 13.800781 -46.054688 16.40625 -47.140625 C 19.019531 -48.234375 21.8125 -48.78125 24.78125 -48.78125 C 27.757812 -48.78125 30.550781 -48.234375 33.15625 -47.140625 C 35.769531 -46.054688 38.050781 -44.472656 40 -42.390625 C 41.957031 -40.304688 43.5 -37.691406 44.625 -34.546875 C 45.75 -31.410156 46.3125 -27.828125 46.3125 -23.796875 C 46.3125 -19.703125 45.75 -16.097656 44.625 -12.984375 C 43.5 -9.878906 41.957031 -7.285156 40 -5.203125 C 38.050781 -3.117188 35.769531 -1.53125 33.15625 -0.4375 C 30.550781 0.644531 27.757812 1.1875 24.78125 1.1875 C 21.8125 1.1875 19.019531 0.644531 16.40625 -0.4375 C 13.800781 -1.53125 11.519531 -3.117188 9.5625 -5.203125 C 7.613281 -7.285156 6.078125 -9.878906 4.953125 -12.984375 C 3.828125 -16.097656 3.265625 -19.703125 3.265625 -23.796875 Z M 24.78125 -43.234375 C 22.601562 -43.234375 20.554688 -42.785156 18.640625 -41.890625 C 16.722656 -41.003906 15.066406 -39.734375 13.671875 -38.078125 C 12.285156 -36.421875 11.195312 -34.382812 10.40625 -31.96875 C 9.613281 -29.5625 9.21875 -26.835938 9.21875 -23.796875 C 9.21875 -20.691406 9.613281 -17.945312 10.40625 -15.5625 C 11.195312 -13.1875 12.285156 -11.15625 13.671875 -9.46875 C 15.066406 -7.78125 16.722656 -6.503906 18.640625 -5.640625 C 20.554688 -4.785156 22.601562 -4.359375 24.78125 -4.359375 C 26.96875 -4.359375 29.019531 -4.785156 30.9375 -5.640625 C 32.851562 -6.503906 34.503906 -7.78125 35.890625 -9.46875 C 37.285156 -11.15625 38.378906 -13.1875 39.171875 -15.5625 C 39.960938 -17.945312 40.359375 -20.691406 40.359375 -23.796875 C 40.359375 -26.835938 39.960938 -29.5625 39.171875 -31.96875 C 38.378906 -34.382812 37.285156 -36.421875 35.890625 -38.078125 C 34.503906 -39.734375 32.851562 -41.003906 30.9375 -41.890625 C 29.019531 -42.785156 26.96875 -43.234375 24.78125 -43.234375 Z M 24.78125 -43.234375 "/></g></g></g><g fill="#ffffff" fill-opacity="1"><g transform="translate(363.559666, 481.065044)"><g><path d="M 37.375 -6.9375 L 37.1875 -6.9375 C 35.664062 -3.96875 33.613281 -1.867188 31.03125 -0.640625 C 28.457031 0.578125 25.78125 1.1875 23 1.1875 C 17.113281 1.1875 12.847656 -0.347656 10.203125 -3.421875 C 7.566406 -6.492188 6.25 -10.476562 6.25 -15.375 L 6.25 -47.59375 L 12.203125 -47.59375 L 12.203125 -17.15625 C 12.203125 -12.332031 13.191406 -8.992188 15.171875 -7.140625 C 17.148438 -5.285156 20.023438 -4.359375 23.796875 -4.359375 C 25.578125 -4.359375 27.296875 -4.65625 28.953125 -5.25 C 30.609375 -5.84375 32.046875 -6.785156 33.265625 -8.078125 C 34.484375 -9.367188 35.472656 -10.972656 36.234375 -12.890625 C 36.992188 -14.804688 37.375 -17.117188 37.375 -19.828125 L 37.375 -47.59375 L 43.328125 -47.59375 L 43.328125 0 L 37.375 0 Z M 37.375 -6.9375 "/></g></g></g><g fill="#ffffff" fill-opacity="1"><g transform="translate(413.133436, 481.065044)"><g><path d="M 7.140625 -47.59375 L 13.09375 -47.59375 L 13.09375 -40.953125 L 13.28125 -40.953125 C 14.9375 -43.460938 16.722656 -45.394531 18.640625 -46.75 C 20.554688 -48.101562 23.066406 -48.78125 26.171875 -48.78125 C 26.960938 -48.78125 27.6875 -48.765625 28.34375 -48.734375 C 29.007812 -48.703125 29.707031 -48.65625 30.4375 -48.59375 L 30.4375 -43.4375 C 29.1875 -43.695312 27.863281 -43.828125 26.46875 -43.828125 C 21.84375 -43.828125 18.457031 -42.304688 16.3125 -39.265625 C 14.164062 -36.222656 13.09375 -32.253906 13.09375 -27.359375 L 13.09375 0 L 7.140625 0 Z M 7.140625 -47.59375 "/></g></g></g><g fill="#ffffff" fill-opacity="1"><g transform="translate(442.481119, 481.065044)"><g/></g></g><g fill="#ffffff" fill-opacity="1"><g transform="translate(470.044144, 481.065044)"><g><path d="M 13.1875 -40.859375 L 34.796875 -40.859375 C 39.953125 -40.859375 43.953125 -41.863281 46.796875 -43.875 C 49.640625 -45.894531 51.0625 -48.851562 51.0625 -52.75 C 51.0625 -57.113281 49.769531 -60.15625 47.1875 -61.875 C 44.613281 -63.59375 40.6875 -64.453125 35.40625 -64.453125 L 13.1875 -64.453125 Z M 6.4375 -70.59375 L 36.78125 -70.59375 C 41.414062 -70.59375 45.117188 -69.914062 47.890625 -68.5625 C 50.671875 -67.207031 52.800781 -65.617188 54.28125 -63.796875 C 55.769531 -61.984375 56.726562 -60.148438 57.15625 -58.296875 C 57.59375 -56.453125 57.8125 -55.035156 57.8125 -54.046875 C 57.8125 -49.410156 56.785156 -45.835938 54.734375 -43.328125 C 52.679688 -40.816406 49.410156 -39.132812 44.921875 -38.28125 L 44.921875 -38.078125 C 47.492188 -37.804688 49.753906 -37.140625 51.703125 -36.078125 C 53.660156 -35.023438 55.28125 -33.65625 56.5625 -31.96875 C 57.851562 -30.289062 58.8125 -28.394531 59.4375 -26.28125 C 60.070312 -24.164062 60.390625 -21.953125 60.390625 -19.640625 C 60.390625 -17.054688 59.957031 -14.585938 59.09375 -12.234375 C 58.238281 -9.890625 56.882812 -7.804688 55.03125 -5.984375 C 53.175781 -4.171875 50.796875 -2.71875 47.890625 -1.625 C 44.984375 -0.539062 41.515625 0 37.484375 0 L 6.4375 0 Z M 13.1875 -6.140625 L 37.578125 -6.140625 C 40.421875 -6.140625 42.863281 -6.519531 44.90625 -7.28125 C 46.957031 -8.039062 48.628906 -9.066406 49.921875 -10.359375 C 51.210938 -11.648438 52.15625 -13.085938 52.75 -14.671875 C 53.34375 -16.265625 53.640625 -17.921875 53.640625 -19.640625 C 53.640625 -24.128906 52.066406 -27.757812 48.921875 -30.53125 C 45.785156 -33.3125 41.210938 -34.703125 35.203125 -34.703125 L 13.1875 -34.703125 Z M 13.1875 -6.140625 "/></g></g></g><g fill="#ffffff" fill-opacity="1"><g transform="translate(534.291767, 481.065044)"><g><path d="M 37.375 -6.9375 L 37.1875 -6.9375 C 35.664062 -3.96875 33.613281 -1.867188 31.03125 -0.640625 C 28.457031 0.578125 25.78125 1.1875 23 1.1875 C 17.113281 1.1875 12.847656 -0.347656 10.203125 -3.421875 C 7.566406 -6.492188 6.25 -10.476562 6.25 -15.375 L 6.25 -47.59375 L 12.203125 -47.59375 L 12.203125 -17.15625 C 12.203125 -12.332031 13.191406 -8.992188 15.171875 -7.140625 C 17.148438 -5.285156 20.023438 -4.359375 23.796875 -4.359375 C 25.578125 -4.359375 27.296875 -4.65625 28.953125 -5.25 C 30.609375 -5.84375 32.046875 -6.785156 33.265625 -8.078125 C 34.484375 -9.367188 35.472656 -10.972656 36.234375 -12.890625 C 36.992188 -14.804688 37.375 -17.117188 37.375 -19.828125 L 37.375 -47.59375 L 43.328125 -47.59375 L 43.328125 0 L 37.375 0 Z M 37.375 -6.9375 "/></g></g></g><g fill="#ffffff" fill-opacity="1"><g transform="translate(583.865536, 481.065044)"><g><path d="M 8.234375 -13.1875 C 9.554688 -9.75 11.238281 -7.316406 13.28125 -5.890625 C 15.332031 -4.472656 18.242188 -3.765625 22.015625 -3.765625 C 23.203125 -3.765625 24.488281 -3.894531 25.875 -4.15625 C 27.269531 -4.425781 28.523438 -4.925781 29.640625 -5.65625 C 30.765625 -6.382812 31.707031 -7.375 32.46875 -8.625 C 33.226562 -9.882812 33.609375 -11.503906 33.609375 -13.484375 C 33.609375 -15.867188 32.914062 -17.617188 31.53125 -18.734375 C 30.144531 -19.859375 28.410156 -20.71875 26.328125 -21.3125 C 24.242188 -21.914062 21.976562 -22.414062 19.53125 -22.8125 C 17.082031 -23.207031 14.816406 -23.832031 12.734375 -24.6875 C 10.660156 -25.550781 8.925781 -26.804688 7.53125 -28.453125 C 6.144531 -30.109375 5.453125 -32.523438 5.453125 -35.703125 C 5.453125 -37.421875 5.796875 -39.070312 6.484375 -40.65625 C 7.179688 -42.238281 8.222656 -43.625 9.609375 -44.8125 C 11.003906 -46.007812 12.707031 -46.96875 14.71875 -47.6875 C 16.738281 -48.414062 19.070312 -48.78125 21.71875 -48.78125 C 26.40625 -48.78125 30.285156 -47.988281 33.359375 -46.40625 C 36.441406 -44.820312 38.539062 -42.015625 39.65625 -37.984375 L 34.015625 -36.59375 C 32.953125 -39.5625 31.476562 -41.507812 29.59375 -42.4375 C 27.707031 -43.363281 25.378906 -43.828125 22.609375 -43.828125 C 20.359375 -43.828125 18.503906 -43.609375 17.046875 -43.171875 C 15.597656 -42.742188 14.457031 -42.164062 13.625 -41.4375 C 12.800781 -40.71875 12.222656 -39.84375 11.890625 -38.8125 C 11.566406 -37.789062 11.40625 -36.6875 11.40625 -35.5 C 11.40625 -33.445312 12.097656 -31.925781 13.484375 -30.9375 C 14.867188 -29.945312 16.601562 -29.15625 18.6875 -28.5625 C 20.769531 -27.96875 23.035156 -27.4375 25.484375 -26.96875 C 27.929688 -26.507812 30.195312 -25.800781 32.28125 -24.84375 C 34.363281 -23.882812 36.097656 -22.507812 37.484375 -20.71875 C 38.867188 -18.9375 39.5625 -16.457031 39.5625 -13.28125 C 39.5625 -11.300781 39.164062 -9.4375 38.375 -7.6875 C 37.582031 -5.9375 36.390625 -4.398438 34.796875 -3.078125 C 33.210938 -1.753906 31.28125 -0.710938 29 0.046875 C 26.71875 0.804688 24.09375 1.1875 21.125 1.1875 C 19.332031 1.1875 17.5625 1.019531 15.8125 0.6875 C 14.0625 0.363281 12.390625 -0.242188 10.796875 -1.140625 C 9.210938 -2.035156 7.710938 -3.304688 6.296875 -4.953125 C 4.878906 -6.609375 3.609375 -8.757812 2.484375 -11.40625 Z M 8.234375 -13.1875 "/></g></g></g><g fill="#ffffff" fill-opacity="1"><g transform="translate(627.887073, 481.065044)"><g><path d="M 6.25 -47.59375 L 12.203125 -47.59375 L 12.203125 0 L 6.25 0 Z M 6.25 -67.234375 L 12.203125 -67.234375 L 12.203125 -57.90625 L 6.25 -57.90625 Z M 6.25 -67.234375 "/></g></g></g><g fill="#ffffff" fill-opacity="1"><g transform="translate(646.328548, 481.065044)"><g><path d="M 6.25 -47.59375 L 12.203125 -47.59375 L 12.203125 -40.65625 L 12.390625 -40.65625 C 13.910156 -43.625 15.957031 -45.71875 18.53125 -46.9375 C 21.113281 -48.164062 23.796875 -48.78125 26.578125 -48.78125 C 29.484375 -48.78125 31.992188 -48.382812 34.109375 -47.59375 C 36.222656 -46.800781 37.957031 -45.675781 39.3125 -44.21875 C 40.664062 -42.769531 41.671875 -41.019531 42.328125 -38.96875 C 42.992188 -36.914062 43.328125 -34.664062 43.328125 -32.21875 L 43.328125 0 L 37.375 0 L 37.375 -30.4375 C 37.375 -35.257812 36.382812 -38.597656 34.40625 -40.453125 C 32.425781 -42.304688 29.550781 -43.234375 25.78125 -43.234375 C 24 -43.234375 22.28125 -42.9375 20.625 -42.34375 C 18.96875 -41.75 17.53125 -40.804688 16.3125 -39.515625 C 15.09375 -38.222656 14.101562 -36.601562 13.34375 -34.65625 C 12.582031 -32.707031 12.203125 -30.410156 12.203125 -27.765625 L 12.203125 0 L 6.25 0 Z M 6.25 -47.59375 "/></g></g></g><g fill="#ffffff" fill-opacity="1"><g transform="translate(695.902318, 481.065044)"><g><path d="M 39.5625 -28.953125 C 39.226562 -30.671875 38.726562 -32.390625 38.0625 -34.109375 C 37.40625 -35.828125 36.515625 -37.363281 35.390625 -38.71875 C 34.273438 -40.070312 32.835938 -41.160156 31.078125 -41.984375 C 29.328125 -42.816406 27.226562 -43.234375 24.78125 -43.234375 C 22.664062 -43.234375 20.75 -42.851562 19.03125 -42.09375 C 17.3125 -41.332031 15.820312 -40.304688 14.5625 -39.015625 C 13.3125 -37.722656 12.304688 -36.21875 11.546875 -34.5 C 10.785156 -32.78125 10.273438 -30.929688 10.015625 -28.953125 Z M 10.015625 -24 L 10.015625 -22.703125 C 10.015625 -20.054688 10.3125 -17.609375 10.90625 -15.359375 C 11.5 -13.117188 12.421875 -11.1875 13.671875 -9.5625 C 14.929688 -7.945312 16.519531 -6.675781 18.4375 -5.75 C 20.351562 -4.820312 22.632812 -4.359375 25.28125 -4.359375 C 29.445312 -4.359375 32.703125 -5.25 35.046875 -7.03125 C 37.398438 -8.820312 39.300781 -11.304688 40.75 -14.484375 L 46.3125 -12.984375 C 44.519531 -8.554688 41.804688 -5.085938 38.171875 -2.578125 C 34.535156 -0.0664062 30.070312 1.1875 24.78125 1.1875 C 21.8125 1.1875 19.019531 0.644531 16.40625 -0.4375 C 13.800781 -1.53125 11.519531 -3.117188 9.5625 -5.203125 C 7.613281 -7.285156 6.078125 -9.878906 4.953125 -12.984375 C 3.828125 -16.097656 3.265625 -19.703125 3.265625 -23.796875 C 3.265625 -27.828125 3.828125 -31.410156 4.953125 -34.546875 C 6.078125 -37.691406 7.613281 -40.304688 9.5625 -42.390625 C 11.519531 -44.472656 13.800781 -46.054688 16.40625 -47.140625 C 19.019531 -48.234375 21.8125 -48.78125 24.78125 -48.78125 C 28.289062 -48.78125 31.367188 -48.148438 34.015625 -46.890625 C 36.660156 -45.640625 38.875 -43.90625 40.65625 -41.6875 C 42.4375 -39.476562 43.789062 -36.851562 44.71875 -33.8125 C 45.644531 -30.769531 46.175781 -27.5 46.3125 -24 Z M 10.015625 -24 "/></g></g></g><g fill="#ffffff" fill-opacity="1"><g transform="translate(745.476087, 481.065044)"><g><path d="M 8.234375 -13.1875 C 9.554688 -9.75 11.238281 -7.316406 13.28125 -5.890625 C 15.332031 -4.472656 18.242188 -3.765625 22.015625 -3.765625 C 23.203125 -3.765625 24.488281 -3.894531 25.875 -4.15625 C 27.269531 -4.425781 28.523438 -4.925781 29.640625 -5.65625 C 30.765625 -6.382812 31.707031 -7.375 32.46875 -8.625 C 33.226562 -9.882812 33.609375 -11.503906 33.609375 -13.484375 C 33.609375 -15.867188 32.914062 -17.617188 31.53125 -18.734375 C 30.144531 -19.859375 28.410156 -20.71875 26.328125 -21.3125 C 24.242188 -21.914062 21.976562 -22.414062 19.53125 -22.8125 C 17.082031 -23.207031 14.816406 -23.832031 12.734375 -24.6875 C 10.660156 -25.550781 8.925781 -26.804688 7.53125 -28.453125 C 6.144531 -30.109375 5.453125 -32.523438 5.453125 -35.703125 C 5.453125 -37.421875 5.796875 -39.070312 6.484375 -40.65625 C 7.179688 -42.238281 8.222656 -43.625 9.609375 -44.8125 C 11.003906 -46.007812 12.707031 -46.96875 14.71875 -47.6875 C 16.738281 -48.414062 19.070312 -48.78125 21.71875 -48.78125 C 26.40625 -48.78125 30.285156 -47.988281 33.359375 -46.40625 C 36.441406 -44.820312 38.539062 -42.015625 39.65625 -37.984375 L 34.015625 -36.59375 C 32.953125 -39.5625 31.476562 -41.507812 29.59375 -42.4375 C 27.707031 -43.363281 25.378906 -43.828125 22.609375 -43.828125 C 20.359375 -43.828125 18.503906 -43.609375 17.046875 -43.171875 C 15.597656 -42.742188 14.457031 -42.164062 13.625 -41.4375 C 12.800781 -40.71875 12.222656 -39.84375 11.890625 -38.8125 C 11.566406 -37.789062 11.40625 -36.6875 11.40625 -35.5 C 11.40625 -33.445312 12.097656 -31.925781 13.484375 -30.9375 C 14.867188 -29.945312 16.601562 -29.15625 18.6875 -28.5625 C 20.769531 -27.96875 23.035156 -27.4375 25.484375 -26.96875 C 27.929688 -26.507812 30.195312 -25.800781 32.28125 -24.84375 C 34.363281 -23.882812 36.097656 -22.507812 37.484375 -20.71875 C 38.867188 -18.9375 39.5625 -16.457031 39.5625 -13.28125 C 39.5625 -11.300781 39.164062 -9.4375 38.375 -7.6875 C 37.582031 -5.9375 36.390625 -4.398438 34.796875 -3.078125 C 33.210938 -1.753906 31.28125 -0.710938 29 0.046875 C 26.71875 0.804688 24.09375 1.1875 21.125 1.1875 C 19.332031 1.1875 17.5625 1.019531 15.8125 0.6875 C 14.0625 0.363281 12.390625 -0.242188 10.796875 -1.140625 C 9.210938 -2.035156 7.710938 -3.304688 6.296875 -4.953125 C 4.878906 -6.609375 3.609375 -8.757812 2.484375 -11.40625 Z M 8.234375 -13.1875 "/></g></g></g><g fill="#ffffff" fill-opacity="1"><g transform="translate(789.497624, 481.065044)"><g><path d="M 8.234375 -13.1875 C 9.554688 -9.75 11.238281 -7.316406 13.28125 -5.890625 C 15.332031 -4.472656 18.242188 -3.765625 22.015625 -3.765625 C 23.203125 -3.765625 24.488281 -3.894531 25.875 -4.15625 C 27.269531 -4.425781 28.523438 -4.925781 29.640625 -5.65625 C 30.765625 -6.382812 31.707031 -7.375 32.46875 -8.625 C 33.226562 -9.882812 33.609375 -11.503906 33.609375 -13.484375 C 33.609375 -15.867188 32.914062 -17.617188 31.53125 -18.734375 C 30.144531 -19.859375 28.410156 -20.71875 26.328125 -21.3125 C 24.242188 -21.914062 21.976562 -22.414062 19.53125 -22.8125 C 17.082031 -23.207031 14.816406 -23.832031 12.734375 -24.6875 C 10.660156 -25.550781 8.925781 -26.804688 7.53125 -28.453125 C 6.144531 -30.109375 5.453125 -32.523438 5.453125 -35.703125 C 5.453125 -37.421875 5.796875 -39.070312 6.484375 -40.65625 C 7.179688 -42.238281 8.222656 -43.625 9.609375 -44.8125 C 11.003906 -46.007812 12.707031 -46.96875 14.71875 -47.6875 C 16.738281 -48.414062 19.070312 -48.78125 21.71875 -48.78125 C 26.40625 -48.78125 30.285156 -47.988281 33.359375 -46.40625 C 36.441406 -44.820312 38.539062 -42.015625 39.65625 -37.984375 L 34.015625 -36.59375 C 32.953125 -39.5625 31.476562 -41.507812 29.59375 -42.4375 C 27.707031 -43.363281 25.378906 -43.828125 22.609375 -43.828125 C 20.359375 -43.828125 18.503906 -43.609375 17.046875 -43.171875 C 15.597656 -42.742188 14.457031 -42.164062 13.625 -41.4375 C 12.800781 -40.71875 12.222656 -39.84375 11.890625 -38.8125 C 11.566406 -37.789062 11.40625 -36.6875 11.40625 -35.5 C 11.40625 -33.445312 12.097656 -31.925781 13.484375 -30.9375 C 14.867188 -29.945312 16.601562 -29.15625 18.6875 -28.5625 C 20.769531 -27.96875 23.035156 -27.4375 25.484375 -26.96875 C 27.929688 -26.507812 30.195312 -25.800781 32.28125 -24.84375 C 34.363281 -23.882812 36.097656 -22.507812 37.484375 -20.71875 C 38.867188 -18.9375 39.5625 -16.457031 39.5625 -13.28125 C 39.5625 -11.300781 39.164062 -9.4375 38.375 -7.6875 C 37.582031 -5.9375 36.390625 -4.398438 34.796875 -3.078125 C 33.210938 -1.753906 31.28125 -0.710938 29 0.046875 C 26.71875 0.804688 24.09375 1.1875 21.125 1.1875 C 19.332031 1.1875 17.5625 1.019531 15.8125 0.6875 C 14.0625 0.363281 12.390625 -0.242188 10.796875 -1.140625 C 9.210938 -2.035156 7.710938 -3.304688 6.296875 -4.953125 C 4.878906 -6.609375 3.609375 -8.757812 2.484375 -11.40625 Z M 8.234375 -13.1875 "/></g></g></g><path stroke-linecap="butt" transform="matrix(12.206009, 0, 0, 11.723333, 91.895346, 511.324315)" fill="none" stroke-linejoin="miter" d="M -0.0000667629 -0.0000081826 L 73.41984 -0.0000081826 " stroke="#9f0000" stroke-width="1" stroke-opacity="1" stroke-miterlimit="4"/><g clip-path="url(#08820de3af)"><path fill="#ffffff" d="M 99.726562 78.617188 L 115.070312 109.957031 L 113.214844 115.726562 L 154.195312 69.546875 L 122.5625 99.035156 L 112.648438 78.617188 Z M 99.726562 78.617188 " fill-opacity="1" fill-rule="evenodd"/></g><g clip-path="url(#7c53dff3f6)"><path fill="#ffffff" d="M 154.195312 69.546875 L 119.882812 119.335938 L 124.6875 128.726562 Z M 154.195312 69.546875 " fill-opacity="1" fill-rule="evenodd"/></g><g clip-path="url(#17faa7ad98)"><path fill="#9f0000" d="M 131.84375 540.0625 L 476.53125 540.0625 C 485.878906 540.0625 494.847656 543.773438 501.457031 550.382812 C 508.066406 556.988281 511.78125 565.949219 511.78125 575.289062 C 511.78125 584.632812 508.066406 593.59375 501.457031 600.199219 C 494.847656 606.804688 485.878906 610.515625 476.53125 610.515625 L 131.84375 610.515625 C 122.496094 610.515625 113.53125 606.804688 106.917969 600.199219 C 100.308594 593.59375 96.597656 584.632812 96.597656 575.289062 C 96.597656 565.949219 100.308594 556.988281 106.917969 550.382812 C 113.53125 543.773438 122.496094 540.0625 131.84375 540.0625 " fill-opacity="1" fill-rule="nonzero"/></g><path fill="#9f0000" d="M 1241.253906 381.996094 C 1240.773438 359.460938 1230.351562 338.890625 1212.582031 325.203125 L 1203.316406 335.6875 C 1218.199219 346.777344 1226.9375 363.699219 1227.339844 382.296875 C 1227.734375 400.878906 1219.71875 418.164062 1205.347656 429.890625 L 1215.039062 439.960938 C 1232.210938 425.527344 1241.734375 404.535156 1241.253906 381.996094 " fill-opacity="1" fill-rule="nonzero"/><path fill="#ffffff" d="M 1241.253906 381.996094 L 1243.113281 381.953125 C 1242.625 358.863281 1231.921875 337.746094 1213.714844 323.730469 C 1212.941406 323.132812 1211.832031 323.234375 1211.1875 323.972656 L 1201.925781 334.449219 C 1201.582031 334.84375 1201.414062 335.363281 1201.472656 335.878906 C 1201.523438 336.394531 1201.789062 336.867188 1202.207031 337.179688 C 1216.636719 347.9375 1225.089844 364.304688 1225.484375 382.335938 C 1225.488281 382.761719 1225.492188 383.183594 1225.492188 383.609375 C 1225.488281 401.140625 1217.777344 417.332031 1204.171875 428.445312 C 1203.769531 428.777344 1203.519531 429.261719 1203.488281 429.78125 C 1203.460938 430.296875 1203.648438 430.808594 1204.007812 431.179688 L 1213.703125 441.25 C 1214.378906 441.960938 1215.484375 442.015625 1216.234375 441.386719 C 1233.410156 426.957031 1243.132812 406.070312 1243.125 383.605469 C 1243.125 383.058594 1243.121094 382.503906 1243.113281 381.957031 L 1243.113281 381.953125 L 1241.253906 381.996094 L 1239.394531 382.03125 C 1239.40625 382.558594 1239.410156 383.082031 1239.410156 383.605469 C 1239.410156 404.992188 1230.1875 424.792969 1213.84375 438.539062 L 1215.039062 439.960938 L 1216.375 438.667969 L 1206.683594 428.597656 L 1205.347656 429.890625 L 1206.519531 431.335938 C 1220.976562 419.539062 1229.214844 402.246094 1229.207031 383.609375 C 1229.207031 383.160156 1229.203125 382.707031 1229.195312 382.253906 C 1228.792969 363.097656 1219.757812 345.613281 1204.425781 334.195312 L 1203.316406 335.6875 L 1204.707031 336.917969 L 1213.96875 326.433594 L 1212.582031 325.203125 L 1211.445312 326.675781 C 1228.78125 340.035156 1238.921875 360.050781 1239.394531 382.035156 L 1239.394531 382.03125 L 1241.253906 381.996094 " fill-opacity="1" fill-rule="nonzero"/><path fill="#9f0000" d="M 1219.257812 382.464844 C 1218.917969 366.191406 1211.015625 351.230469 1197.953125 341.765625 L 1188.515625 352.460938 C 1198.664062 359.265625 1204.847656 370.507812 1205.113281 382.777344 C 1205.371094 395.035156 1199.671875 406.519531 1189.835938 413.765625 L 1199.722656 424.042969 C 1212.355469 414.019531 1219.609375 398.742188 1219.257812 382.464844 " fill-opacity="1" fill-rule="nonzero"/><path fill="#ffffff" d="M 1219.257812 382.464844 L 1221.117188 382.425781 C 1220.765625 365.570312 1212.570312 350.058594 1199.046875 340.253906 C 1198.265625 339.691406 1197.199219 339.8125 1196.5625 340.527344 L 1187.121094 351.230469 C 1186.765625 351.632812 1186.601562 352.164062 1186.671875 352.699219 C 1186.742188 353.234375 1187.035156 353.707031 1187.480469 354.007812 C 1197.136719 360.480469 1203 371.148438 1203.257812 382.816406 C 1203.261719 383.0625 1203.261719 383.316406 1203.265625 383.566406 C 1203.261719 394.9375 1197.886719 405.523438 1188.738281 412.265625 C 1188.304688 412.582031 1188.03125 413.066406 1187.988281 413.605469 C 1187.941406 414.144531 1188.128906 414.667969 1188.503906 415.054688 L 1198.382812 425.335938 C 1199.050781 426.027344 1200.125 426.097656 1200.875 425.503906 C 1213.660156 415.359375 1221.132812 400 1221.128906 383.582031 C 1221.128906 383.195312 1221.121094 382.8125 1221.117188 382.425781 L 1217.402344 382.503906 C 1217.40625 382.863281 1217.410156 383.222656 1217.410156 383.582031 C 1217.410156 398.867188 1210.472656 413.136719 1198.566406 422.582031 L 1199.722656 424.042969 L 1201.066406 422.75 L 1191.179688 412.472656 L 1189.835938 413.765625 L 1190.941406 415.265625 C 1201.03125 407.828125 1206.984375 396.121094 1206.984375 383.566406 C 1206.976562 383.289062 1206.976562 383.015625 1206.972656 382.738281 C 1206.699219 369.859375 1200.199219 358.050781 1189.546875 350.914062 L 1188.515625 352.460938 L 1189.90625 353.691406 L 1199.347656 342.996094 L 1197.953125 341.765625 L 1196.863281 343.273438 C 1209.457031 352.398438 1217.066406 366.8125 1217.402344 382.503906 L 1219.257812 382.464844 " fill-opacity="1" fill-rule="nonzero"/><path fill="#9f0000" d="M 1198.027344 382.917969 C 1197.808594 372.53125 1192.359375 363.179688 1183.773438 357.832031 L 1174.324219 368.542969 C 1180.160156 371.121094 1183.976562 376.792969 1184.117188 383.230469 C 1184.253906 389.640625 1180.683594 395.480469 1174.960938 398.296875 L 1184.867188 408.59375 C 1193.207031 402.871094 1198.25 393.308594 1198.027344 382.917969 " fill-opacity="1" fill-rule="nonzero"/><path fill="#ffffff" d="M 1198.027344 382.917969 L 1199.878906 382.878906 C 1199.652344 371.855469 1193.863281 361.929688 1184.757812 356.25 C 1183.980469 355.765625 1182.980469 355.917969 1182.378906 356.59375 L 1172.929688 367.304688 C 1172.539062 367.746094 1172.378906 368.363281 1172.503906 368.9375 C 1172.632812 369.515625 1173.03125 370.003906 1173.574219 370.242188 C 1178.757812 372.535156 1182.132812 377.550781 1182.257812 383.269531 L 1182.257812 383.265625 L 1182.265625 383.578125 C 1182.257812 389.140625 1179.125 394.167969 1174.144531 396.628906 C 1173.613281 396.890625 1173.234375 397.394531 1173.132812 397.976562 C 1173.03125 398.558594 1173.214844 399.164062 1173.625 399.589844 L 1183.527344 409.890625 C 1184.160156 410.542969 1185.167969 410.644531 1185.917969 410.132812 C 1194.574219 404.1875 1199.886719 394.332031 1199.886719 383.585938 C 1199.886719 383.347656 1199.882812 383.109375 1199.878906 382.878906 L 1198.027344 382.917969 L 1196.167969 382.957031 C 1196.167969 383.164062 1196.171875 383.378906 1196.171875 383.585938 C 1196.171875 393.09375 1191.476562 401.800781 1183.816406 407.058594 L 1184.867188 408.59375 L 1186.207031 407.304688 L 1176.300781 397.007812 L 1174.960938 398.296875 L 1175.785156 399.96875 C 1182.027344 396.890625 1185.980469 390.554688 1185.980469 383.578125 C 1185.980469 383.445312 1185.976562 383.320312 1185.976562 383.195312 L 1185.976562 383.1875 C 1185.820312 376.03125 1181.5625 369.699219 1175.070312 366.835938 L 1174.324219 368.542969 L 1175.710938 369.773438 L 1185.164062 359.0625 L 1183.773438 357.832031 L 1182.792969 359.40625 C 1190.847656 364.4375 1195.960938 373.203125 1196.167969 382.957031 L 1198.027344 382.917969 " fill-opacity="1" fill-rule="nonzero"/><path fill="#9f0000" d="M 1041.296875 406.554688 L 1112.984375 494.707031 " fill-opacity="1" fill-rule="nonzero"/><path fill="#ffffff" d="M 1039.859375 407.730469 L 1111.546875 495.882812 C 1112.195312 496.679688 1113.363281 496.800781 1114.160156 496.148438 C 1114.953125 495.5 1115.074219 494.328125 1114.425781 493.527344 L 1042.738281 405.375 C 1042.089844 404.582031 1040.917969 404.460938 1040.125 405.109375 C 1039.324219 405.757812 1039.210938 406.933594 1039.859375 407.730469 " fill-opacity="1" fill-rule="nonzero"/><path fill="#9f0000" d="M 1165.8125 603.707031 L 1083.546875 502.558594 L 1127.585938 466.625 L 1209.855469 567.785156 L 1165.8125 603.707031 " fill-opacity="1" fill-rule="nonzero"/><path fill="#ffffff" d="M 1165.8125 603.707031 L 1167.25 602.535156 L 1086.160156 502.824219 L 1127.320312 469.242188 L 1207.238281 567.515625 L 1164.636719 602.265625 L 1165.8125 603.707031 L 1167.25 602.535156 L 1165.8125 603.707031 L 1166.984375 605.152344 L 1211.027344 569.226562 C 1211.410156 568.914062 1211.652344 568.46875 1211.707031 567.972656 C 1211.753906 567.476562 1211.609375 566.992188 1211.292969 566.605469 L 1129.027344 465.445312 C 1128.378906 464.652344 1127.210938 464.53125 1126.414062 465.179688 L 1082.371094 501.113281 C 1081.578125 501.761719 1081.457031 502.929688 1082.105469 503.730469 L 1164.371094 604.882812 C 1165.019531 605.683594 1166.183594 605.800781 1166.984375 605.152344 L 1165.8125 603.707031 " fill-opacity="1" fill-rule="nonzero"/><path fill="#9f0000" d="M 1145.292969 491.496094 L 1104.285156 524.949219 " fill-opacity="1" fill-rule="nonzero"/><path fill="#ffffff" d="M 1144.117188 490.050781 L 1103.109375 523.507812 C 1102.316406 524.160156 1102.195312 525.332031 1102.84375 526.125 C 1103.492188 526.921875 1104.664062 527.042969 1105.460938 526.394531 L 1146.46875 492.941406 C 1147.261719 492.292969 1147.382812 491.117188 1146.734375 490.320312 C 1146.085938 489.523438 1144.914062 489.402344 1144.117188 490.050781 " fill-opacity="1" fill-rule="nonzero"/><path fill="#9f0000" d="M 1167.457031 518.234375 L 1125.941406 552.101562 " fill-opacity="1" fill-rule="nonzero"/><path fill="#ffffff" d="M 1166.285156 516.792969 L 1124.769531 550.65625 C 1123.972656 551.304688 1123.851562 552.476562 1124.5 553.273438 C 1125.148438 554.074219 1126.320312 554.195312 1127.113281 553.542969 L 1168.628906 519.679688 C 1169.425781 519.03125 1169.546875 517.859375 1168.898438 517.0625 C 1168.25 516.261719 1167.078125 516.140625 1166.285156 516.792969 " fill-opacity="1" fill-rule="nonzero"/><path fill="#9f0000" d="M 1189.363281 545.175781 L 1147.851562 579.039062 " fill-opacity="1" fill-rule="nonzero"/><path fill="#ffffff" d="M 1188.1875 543.730469 L 1146.675781 577.597656 C 1145.882812 578.246094 1145.761719 579.421875 1146.410156 580.214844 C 1147.058594 581.015625 1148.230469 581.132812 1149.023438 580.480469 L 1190.539062 546.617188 C 1191.332031 545.96875 1191.453125 544.796875 1190.804688 544 C 1190.15625 543.203125 1188.984375 543.082031 1188.1875 543.730469 " fill-opacity="1" fill-rule="nonzero"/><path fill="#9f0000" d="M 1105.257812 484.207031 L 1188.140625 586.128906 " fill-opacity="1" fill-rule="nonzero"/><path fill="#ffffff" d="M 1103.816406 485.386719 L 1186.695312 587.300781 C 1187.34375 588.101562 1188.515625 588.21875 1189.308594 587.566406 C 1190.109375 586.917969 1190.230469 585.746094 1189.582031 584.949219 L 1106.695312 483.035156 C 1106.046875 482.238281 1104.875 482.117188 1104.082031 482.769531 C 1103.285156 483.417969 1103.167969 484.585938 1103.816406 485.386719 " fill-opacity="1" fill-rule="nonzero"/><path fill="#9f0000" d="M 1026.628906 432.5625 L 944.367188 331.410156 L 988.414062 295.484375 L 1070.675781 396.632812 L 1026.628906 432.5625 " fill-opacity="1" fill-rule="nonzero"/><g clip-path="url(#d3fb4ed999)"><path fill="#ffffff" d="M 1026.628906 432.5625 L 1028.070312 431.390625 L 946.984375 331.679688 L 988.148438 298.101562 L 1068.0625 396.367188 L 1025.457031 431.121094 L 1026.628906 432.5625 L 1028.070312 431.390625 L 1026.628906 432.5625 L 1027.804688 434.007812 L 1071.84375 398.078125 C 1072.230469 397.761719 1072.46875 397.316406 1072.523438 396.828125 C 1072.570312 396.328125 1072.429688 395.84375 1072.117188 395.460938 L 989.855469 294.304688 C 989.207031 293.507812 988.035156 293.390625 987.242188 294.039062 L 943.195312 329.96875 C 942.398438 330.617188 942.28125 331.789062 942.929688 332.585938 L 1025.191406 433.738281 C 1025.496094 434.117188 1025.957031 434.363281 1026.445312 434.417969 C 1026.929688 434.464844 1027.425781 434.316406 1027.804688 434.007812 L 1026.628906 432.5625 " fill-opacity="1" fill-rule="nonzero"/></g><path fill="#9f0000" d="M 1006.128906 320.359375 L 965.113281 353.8125 " fill-opacity="1" fill-rule="nonzero"/><path fill="#ffffff" d="M 1004.953125 318.917969 L 963.9375 352.367188 C 963.144531 353.019531 963.023438 354.191406 963.671875 354.992188 C 964.320312 355.785156 965.492188 355.90625 966.285156 355.257812 L 1007.300781 321.804688 C 1008.09375 321.15625 1008.214844 319.984375 1007.566406 319.1875 C 1006.917969 318.390625 1005.746094 318.265625 1004.953125 318.917969 " fill-opacity="1" fill-rule="nonzero"/><path fill="#9f0000" d="M 1028.28125 347.09375 L 986.769531 380.964844 " fill-opacity="1" fill-rule="nonzero"/><path fill="#ffffff" d="M 1027.113281 345.652344 L 985.59375 379.519531 C 984.792969 380.167969 984.675781 381.34375 985.324219 382.136719 C 985.972656 382.933594 987.144531 383.054688 987.9375 382.402344 L 1029.453125 348.535156 C 1030.253906 347.886719 1030.375 346.71875 1029.726562 345.917969 C 1029.078125 345.121094 1027.90625 345 1027.113281 345.652344 " fill-opacity="1" fill-rule="nonzero"/><path fill="#9f0000" d="M 966.085938 313.066406 L 1048.964844 414.988281 " fill-opacity="1" fill-rule="nonzero"/><path fill="#ffffff" d="M 964.644531 314.238281 L 1047.523438 416.164062 C 1048.171875 416.960938 1049.34375 417.082031 1050.140625 416.433594 C 1050.933594 415.78125 1051.054688 414.609375 1050.40625 413.808594 L 967.523438 311.894531 C 966.875 311.09375 965.703125 310.972656 964.910156 311.621094 C 964.109375 312.273438 963.996094 313.445312 964.644531 314.238281 " fill-opacity="1" fill-rule="nonzero"/><path fill="#9f0000" d="M 1107.726562 429.730469 L 1101.550781 422.136719 L 1126.730469 401.597656 L 1132.910156 409.191406 L 1107.726562 429.730469 " fill-opacity="1" fill-rule="nonzero"/><path fill="#ffffff" d="M 1107.726562 429.730469 L 1109.167969 428.558594 L 1104.160156 422.402344 L 1126.460938 404.21875 L 1130.296875 408.925781 L 1106.554688 428.292969 L 1107.726562 429.730469 L 1109.167969 428.558594 L 1107.726562 429.730469 L 1108.898438 431.175781 L 1134.082031 410.636719 C 1134.46875 410.320312 1134.710938 409.878906 1134.757812 409.386719 C 1134.808594 408.886719 1134.660156 408.402344 1134.351562 408.019531 L 1128.167969 400.421875 C 1127.519531 399.625 1126.347656 399.507812 1125.554688 400.15625 L 1100.375 420.691406 C 1099.582031 421.339844 1099.460938 422.515625 1100.109375 423.308594 L 1106.285156 430.910156 C 1106.59375 431.285156 1107.050781 431.535156 1107.539062 431.582031 C 1108.023438 431.636719 1108.519531 431.484375 1108.898438 431.175781 L 1107.726562 429.730469 " fill-opacity="1" fill-rule="nonzero"/><path fill="#9f0000" d="M 1170.152344 394.097656 C 1164.75 398.507812 1156.8125 397.695312 1152.410156 392.285156 C 1148.007812 386.871094 1148.820312 378.921875 1154.222656 374.519531 C 1159.621094 370.109375 1167.566406 370.921875 1171.964844 376.332031 C 1176.359375 381.746094 1175.550781 389.699219 1170.152344 394.097656 " fill-opacity="1" fill-rule="nonzero"/><path fill="#ffffff" d="M 1170.152344 394.097656 L 1168.976562 392.660156 C 1166.976562 394.292969 1164.585938 395.078125 1162.195312 395.078125 C 1159.066406 395.078125 1155.976562 393.726562 1153.855469 391.109375 C 1152.21875 389.101562 1151.433594 386.707031 1151.429688 384.3125 C 1151.433594 381.183594 1152.78125 378.09375 1155.398438 375.960938 C 1157.402344 374.328125 1159.792969 373.539062 1162.183594 373.539062 C 1165.308594 373.539062 1168.394531 374.890625 1170.523438 377.503906 C 1172.152344 379.511719 1172.9375 381.910156 1172.9375 384.304688 C 1172.9375 387.433594 1171.589844 390.527344 1168.976562 392.660156 L 1170.152344 394.097656 L 1171.328125 395.542969 C 1174.832031 392.683594 1176.660156 388.5 1176.65625 384.304688 C 1176.65625 381.089844 1175.585938 377.84375 1173.402344 375.15625 C 1170.550781 371.644531 1166.371094 369.8125 1162.183594 369.816406 C 1158.972656 369.8125 1155.726562 370.886719 1153.050781 373.074219 C 1149.542969 375.933594 1147.714844 380.109375 1147.714844 384.3125 C 1147.714844 387.527344 1148.789062 390.773438 1150.96875 393.464844 C 1153.824219 396.972656 1158 398.804688 1162.195312 398.800781 C 1165.40625 398.804688 1168.648438 397.730469 1171.328125 395.542969 L 1170.152344 394.097656 " fill-opacity="1" fill-rule="nonzero"/><path fill="#9f0000" d="M 1056.355469 502.578125 L 1109.769531 459.003906 C 1122.128906 448.925781 1123.996094 430.730469 1113.9375 418.355469 C 1103.871094 405.984375 1085.695312 404.117188 1073.332031 414.203125 L 1019.921875 457.773438 L 1056.355469 502.578125 " fill-opacity="1" fill-rule="nonzero"/><path fill="#ffffff" d="M 1056.355469 502.578125 L 1057.53125 504.019531 L 1110.945312 460.449219 C 1118.398438 454.367188 1122.273438 445.496094 1122.269531 436.574219 C 1122.269531 429.753906 1120.007812 422.878906 1115.371094 417.183594 C 1109.308594 409.71875 1100.453125 405.84375 1091.539062 405.84375 C 1084.726562 405.84375 1077.855469 408.109375 1072.160156 412.757812 L 1018.746094 456.328125 C 1017.953125 456.980469 1017.832031 458.152344 1018.480469 458.945312 L 1054.917969 503.75 C 1055.566406 504.550781 1056.738281 504.671875 1057.53125 504.019531 L 1056.355469 502.578125 L 1057.796875 501.402344 L 1022.535156 458.039062 L 1074.507812 415.640625 C 1079.523438 411.550781 1085.542969 409.570312 1091.539062 409.5625 C 1099.390625 409.570312 1107.152344 412.964844 1112.492188 419.527344 C 1116.574219 424.550781 1118.550781 430.574219 1118.550781 436.574219 C 1118.546875 444.429688 1115.15625 452.210938 1108.597656 457.5625 L 1055.183594 501.132812 L 1056.355469 502.578125 L 1057.796875 501.402344 L 1056.355469 502.578125 " fill-opacity="1" fill-rule="nonzero"/><path fill="#9f0000" d="M 1152.460938 344.671875 C 1151.394531 344.789062 1150.335938 344.933594 1149.269531 345.140625 C 1127.039062 349.429688 1112.488281 370.945312 1116.773438 393.214844 C 1121.050781 415.480469 1142.542969 430.0625 1164.761719 425.765625 C 1165.835938 425.566406 1166.867188 425.304688 1167.902344 425.023438 L 1152.460938 344.671875 " fill-opacity="1" fill-rule="nonzero"/><path fill="#ffffff" d="M 1152.460938 344.671875 L 1152.265625 342.824219 C 1151.164062 342.941406 1150.046875 343.097656 1148.914062 343.320312 L 1148.921875 343.316406 C 1128.417969 347.273438 1114.164062 365.238281 1114.164062 385.398438 C 1114.164062 388.09375 1114.417969 390.828125 1114.945312 393.566406 C 1118.894531 414.101562 1136.835938 428.378906 1156.960938 428.378906 C 1159.652344 428.378906 1162.378906 428.121094 1165.113281 427.59375 L 1165.105469 427.59375 C 1166.25 427.378906 1167.332031 427.109375 1168.386719 426.824219 C 1169.324219 426.570312 1169.910156 425.636719 1169.726562 424.675781 L 1154.285156 344.324219 C 1154.105469 343.375 1153.226562 342.71875 1152.265625 342.824219 L 1152.460938 344.671875 L 1150.636719 345.027344 L 1166.078125 425.378906 L 1167.902344 425.023438 L 1167.417969 423.230469 C 1166.40625 423.503906 1165.425781 423.75 1164.421875 423.933594 L 1164.414062 423.9375 C 1161.90625 424.425781 1159.417969 424.65625 1156.960938 424.65625 C 1138.597656 424.65625 1122.195312 411.613281 1118.597656 392.863281 C 1118.113281 390.351562 1117.878906 387.859375 1117.878906 385.398438 C 1117.878906 366.996094 1130.898438 350.582031 1149.625 346.972656 L 1149.632812 346.96875 C 1150.625 346.777344 1151.632812 346.636719 1152.660156 346.523438 L 1152.460938 344.671875 L 1150.636719 345.027344 L 1152.460938 344.671875 " fill-opacity="1" fill-rule="nonzero"/><path fill="#9f0000" d="M 1345.714844 609.019531 C 1367.84375 601.269531 1383.34375 577.390625 1383.34375 552.585938 C 1383.34375 521.210938 1357.949219 495.777344 1326.621094 495.777344 C 1320.152344 495.777344 1313.941406 496.871094 1308.144531 498.878906 C 1295.988281 470.972656 1268.203125 451.464844 1235.867188 451.464844 C 1197.164062 451.464844 1165.003906 479.398438 1158.320312 516.234375 L 1158.160156 516.226562 C 1137.796875 516.226562 1120.503906 529.339844 1114.203125 547.59375 C 1112.097656 547.144531 1109.917969 546.902344 1107.679688 546.902344 C 1090.445312 546.902344 1076.480469 560.890625 1076.480469 578.152344 C 1076.480469 593.753906 1087.894531 606.679688 1102.820312 609.019531 L 1345.714844 609.019531 " fill-opacity="1" fill-rule="nonzero"/><g clip-path="url(#d73bfbef8d)"><path fill="#ffffff" d="M 1345.714844 609.019531 L 1346.332031 610.773438 C 1357.832031 606.742188 1367.539062 598.558594 1374.378906 588.226562 C 1381.214844 577.890625 1385.199219 565.375 1385.203125 552.585938 C 1385.203125 520.179688 1358.980469 493.914062 1326.621094 493.910156 C 1319.941406 493.910156 1313.527344 495.050781 1307.539062 497.121094 L 1308.144531 498.878906 L 1309.847656 498.132812 C 1297.40625 469.570312 1268.96875 449.601562 1235.867188 449.601562 C 1196.253906 449.605469 1163.332031 478.191406 1156.492188 515.898438 L 1158.320312 516.234375 L 1158.375 514.375 L 1158.21875 514.367188 L 1158.160156 514.363281 C 1136.980469 514.367188 1118.992188 528.003906 1112.445312 546.980469 L 1114.203125 547.59375 L 1114.585938 545.769531 C 1112.359375 545.300781 1110.050781 545.042969 1107.679688 545.042969 C 1089.421875 545.042969 1074.628906 559.863281 1074.621094 578.152344 C 1074.628906 594.683594 1086.714844 608.378906 1102.535156 610.855469 L 1102.820312 610.878906 L 1345.714844 610.878906 C 1345.925781 610.878906 1346.136719 610.839844 1346.332031 610.773438 L 1345.714844 609.019531 L 1345.714844 607.15625 L 1102.820312 607.15625 L 1102.820312 609.019531 L 1103.109375 607.175781 C 1089.082031 604.980469 1078.339844 592.828125 1078.339844 578.152344 C 1078.34375 570.027344 1081.621094 562.695312 1086.933594 557.371094 C 1092.246094 552.050781 1099.570312 548.765625 1107.679688 548.765625 C 1109.785156 548.765625 1111.835938 548.988281 1113.808594 549.410156 C 1114.730469 549.609375 1115.648438 549.085938 1115.953125 548.199219 C 1122.007812 530.675781 1138.609375 518.085938 1158.160156 518.085938 L 1158.160156 516.226562 L 1158.101562 518.085938 L 1158.261719 518.089844 C 1159.183594 518.121094 1159.980469 517.46875 1160.144531 516.5625 C 1166.671875 480.605469 1198.078125 453.320312 1235.867188 453.324219 C 1267.441406 453.324219 1294.566406 472.371094 1306.445312 499.621094 C 1306.832031 500.511719 1307.835938 500.953125 1308.753906 500.636719 C 1314.359375 498.699219 1320.359375 497.636719 1326.621094 497.632812 C 1341.78125 497.636719 1355.480469 503.785156 1365.417969 513.730469 C 1375.351562 523.679688 1381.488281 537.40625 1381.488281 552.585938 C 1381.488281 564.597656 1377.726562 576.429688 1371.28125 586.167969 C 1364.835938 595.914062 1355.734375 603.542969 1345.105469 607.257812 L 1345.714844 609.019531 L 1345.714844 607.15625 L 1345.714844 609.019531 " fill-opacity="1" fill-rule="nonzero"/></g><path fill="#9f0000" d="M 1280.011719 605.867188 C 1278.984375 605.867188 1278.152344 605.035156 1278.152344 604.007812 L 1278.152344 455.347656 C 1278.152344 454.316406 1278.984375 453.484375 1280.011719 453.484375 L 1292.15625 453.484375 L 1292.15625 437.816406 C 1292.15625 436.789062 1292.988281 435.953125 1294.015625 435.953125 L 1343.726562 435.953125 C 1344.753906 435.953125 1345.585938 436.789062 1345.585938 437.816406 L 1345.585938 453.484375 L 1357.730469 453.484375 C 1358.757812 453.484375 1359.589844 454.316406 1359.589844 455.347656 L 1359.589844 604.007812 C 1359.589844 605.035156 1358.757812 605.867188 1357.730469 605.867188 L 1280.011719 605.867188 " fill-opacity="1" fill-rule="nonzero"/><path fill="#ffffff" d="M 1343.726562 434.09375 L 1294.015625 434.09375 C 1291.964844 434.09375 1290.296875 435.753906 1290.296875 437.816406 L 1290.296875 451.625 L 1280.011719 451.625 C 1277.957031 451.625 1276.292969 453.285156 1276.292969 455.347656 L 1276.292969 604.007812 C 1276.292969 606.066406 1277.957031 607.730469 1280.011719 607.730469 L 1357.730469 607.730469 C 1359.785156 607.730469 1361.449219 606.066406 1361.449219 604.007812 L 1361.449219 455.347656 C 1361.449219 453.285156 1359.785156 451.625 1357.730469 451.625 L 1347.445312 451.625 L 1347.445312 437.816406 C 1347.445312 435.753906 1345.777344 434.09375 1343.726562 434.09375 Z M 1343.726562 437.816406 L 1343.726562 455.347656 L 1357.730469 455.347656 L 1357.730469 604.007812 L 1280.011719 604.007812 L 1280.011719 455.347656 L 1294.015625 455.347656 L 1294.015625 437.816406 L 1343.726562 437.816406 " fill-opacity="1" fill-rule="nonzero"/><path fill="#9f0000" d="M 1285.433594 492.511719 L 1285.433594 466.734375 L 1352.128906 466.734375 L 1352.128906 492.511719 L 1285.433594 492.511719 " fill-opacity="1" fill-rule="nonzero"/><path fill="#ffffff" d="M 1285.433594 492.511719 L 1287.292969 492.511719 L 1287.292969 468.597656 L 1350.269531 468.597656 L 1350.269531 490.648438 L 1285.433594 490.648438 L 1285.433594 492.511719 L 1287.292969 492.511719 L 1285.433594 492.511719 L 1285.433594 494.371094 L 1352.128906 494.371094 C 1352.617188 494.371094 1353.097656 494.171875 1353.445312 493.824219 C 1353.789062 493.480469 1353.984375 493 1353.984375 492.511719 L 1353.984375 466.734375 C 1353.984375 466.246094 1353.789062 465.765625 1353.445312 465.421875 C 1353.097656 465.074219 1352.617188 464.875 1352.128906 464.875 L 1285.433594 464.875 C 1284.945312 464.875 1284.472656 465.074219 1284.125 465.421875 C 1283.773438 465.765625 1283.578125 466.246094 1283.578125 466.734375 L 1283.578125 492.511719 C 1283.578125 493 1283.773438 493.480469 1284.125 493.824219 C 1284.472656 494.171875 1284.945312 494.371094 1285.433594 494.371094 L 1285.433594 492.511719 " fill-opacity="1" fill-rule="nonzero"/><path fill="#9f0000" d="M 1285.433594 526.871094 L 1285.433594 501.101562 L 1352.128906 501.101562 L 1352.128906 526.871094 L 1285.433594 526.871094 " fill-opacity="1" fill-rule="nonzero"/><path fill="#ffffff" d="M 1285.433594 526.871094 L 1287.292969 526.871094 L 1287.292969 502.960938 L 1350.269531 502.960938 L 1350.269531 525.011719 L 1285.433594 525.011719 L 1285.433594 526.871094 L 1287.292969 526.871094 L 1285.433594 526.871094 L 1285.433594 528.734375 L 1352.128906 528.734375 C 1352.617188 528.734375 1353.097656 528.535156 1353.445312 528.191406 C 1353.789062 527.84375 1353.984375 527.363281 1353.984375 526.871094 L 1353.984375 501.101562 C 1353.984375 500.609375 1353.789062 500.128906 1353.445312 499.785156 C 1353.097656 499.441406 1352.617188 499.238281 1352.128906 499.238281 L 1285.433594 499.238281 C 1284.945312 499.238281 1284.472656 499.441406 1284.125 499.785156 C 1283.773438 500.128906 1283.578125 500.609375 1283.578125 501.101562 L 1283.578125 526.871094 C 1283.578125 527.363281 1283.773438 527.84375 1284.125 528.191406 C 1284.472656 528.535156 1284.945312 528.734375 1285.433594 528.734375 L 1285.433594 526.871094 " fill-opacity="1" fill-rule="nonzero"/><path fill="#9f0000" d="M 1285.433594 561.234375 L 1285.433594 535.464844 L 1352.128906 535.464844 L 1352.128906 561.234375 L 1285.433594 561.234375 " fill-opacity="1" fill-rule="nonzero"/><path fill="#ffffff" d="M 1285.433594 561.234375 L 1287.292969 561.234375 L 1287.292969 537.328125 L 1350.269531 537.328125 L 1350.269531 559.371094 L 1285.433594 559.371094 L 1285.433594 561.234375 L 1287.292969 561.234375 L 1285.433594 561.234375 L 1285.433594 563.097656 L 1352.128906 563.097656 C 1352.617188 563.097656 1353.097656 562.894531 1353.445312 562.550781 C 1353.789062 562.203125 1353.984375 561.726562 1353.984375 561.234375 L 1353.984375 535.464844 C 1353.984375 534.972656 1353.789062 534.496094 1353.445312 534.148438 C 1353.097656 533.796875 1352.617188 533.605469 1352.128906 533.605469 L 1285.433594 533.605469 C 1284.945312 533.605469 1284.472656 533.796875 1284.125 534.148438 C 1283.773438 534.496094 1283.578125 534.972656 1283.578125 535.464844 L 1283.578125 561.234375 C 1283.578125 561.726562 1283.773438 562.203125 1284.125 562.550781 C 1284.472656 562.894531 1284.945312 563.097656 1285.433594 563.097656 L 1285.433594 561.234375 " fill-opacity="1" fill-rule="nonzero"/><path fill="#9f0000" d="M 1285.433594 595.597656 L 1285.433594 569.824219 L 1352.128906 569.824219 L 1352.128906 595.597656 L 1285.433594 595.597656 " fill-opacity="1" fill-rule="nonzero"/><path fill="#ffffff" d="M 1285.433594 595.597656 L 1287.292969 595.597656 L 1287.292969 571.683594 L 1350.269531 571.683594 L 1350.269531 593.734375 L 1285.433594 593.738281 L 1285.433594 595.597656 L 1287.292969 595.597656 L 1285.433594 595.597656 L 1285.433594 597.460938 L 1352.128906 597.460938 C 1352.617188 597.460938 1353.097656 597.261719 1353.445312 596.910156 C 1353.789062 596.5625 1353.984375 596.089844 1353.984375 595.597656 L 1353.984375 569.824219 C 1353.984375 569.335938 1353.789062 568.855469 1353.445312 568.511719 C 1353.097656 568.160156 1352.617188 567.960938 1352.128906 567.960938 L 1285.433594 567.960938 C 1284.945312 567.960938 1284.472656 568.160156 1284.125 568.511719 C 1283.773438 568.855469 1283.578125 569.335938 1283.578125 569.824219 L 1283.578125 595.597656 C 1283.578125 596.089844 1283.773438 596.5625 1284.125 596.910156 C 1284.472656 597.261719 1284.945312 597.460938 1285.433594 597.460938 L 1285.433594 595.597656 " fill-opacity="1" fill-rule="nonzero"/><g fill="#ffffff" fill-opacity="1"><g transform="translate(91.895346, 378.887888)"><g><path d="M 6.84375 -70.59375 L 24.484375 -70.59375 L 24.484375 0 L 6.84375 0 Z M 6.84375 -70.59375 "/></g></g></g><g fill="#ffffff" fill-opacity="1"><g transform="translate(123.225982, 378.887888)"><g><path d="M 53.546875 -47.09375 C 52.285156 -50.40625 50.300781 -53 47.59375 -54.875 C 44.882812 -56.757812 41.976562 -57.703125 38.875 -57.703125 C 36.425781 -57.703125 34.144531 -57.269531 32.03125 -56.40625 C 29.914062 -55.550781 28.0625 -54.234375 26.46875 -52.453125 C 24.882812 -50.671875 23.644531 -48.359375 22.75 -45.515625 C 21.863281 -42.671875 21.421875 -39.265625 21.421875 -35.296875 C 21.421875 -32.722656 21.703125 -30.113281 22.265625 -27.46875 C 22.828125 -24.820312 23.800781 -22.40625 25.1875 -20.21875 C 26.570312 -18.039062 28.421875 -16.273438 30.734375 -14.921875 C 33.046875 -13.566406 35.957031 -12.890625 39.46875 -12.890625 C 40.65625 -12.890625 41.941406 -13.101562 43.328125 -13.53125 C 44.710938 -13.957031 46.082031 -14.597656 47.4375 -15.453125 C 48.800781 -16.316406 50.039062 -17.359375 51.15625 -18.578125 C 52.28125 -19.804688 53.207031 -21.21875 53.9375 -22.8125 L 67.921875 -16.0625 C 64.878906 -10.507812 60.878906 -6.113281 55.921875 -2.875 C 50.960938 0.363281 45.476562 1.984375 39.46875 1.984375 C 33.84375 1.984375 28.816406 0.976562 24.390625 -1.03125 C 19.960938 -3.050781 16.226562 -5.78125 13.1875 -9.21875 C 10.144531 -12.65625 7.8125 -16.617188 6.1875 -21.109375 C 4.570312 -25.609375 3.765625 -30.335938 3.765625 -35.296875 C 3.765625 -40.253906 4.523438 -44.976562 6.046875 -49.46875 C 7.566406 -53.96875 9.78125 -57.9375 12.6875 -61.375 C 15.601562 -64.8125 19.191406 -67.535156 23.453125 -69.546875 C 27.710938 -71.566406 32.585938 -72.578125 38.078125 -72.578125 C 41.515625 -72.578125 44.6875 -72.164062 47.59375 -71.34375 C 50.5 -70.519531 53.160156 -69.3125 55.578125 -67.71875 C 57.992188 -66.132812 60.191406 -64.203125 62.171875 -61.921875 C 64.148438 -59.640625 65.96875 -57.046875 67.625 -54.140625 Z M 53.546875 -47.09375 "/></g></g></g><g fill="#ffffff" fill-opacity="1"><g transform="translate(193.025873, 378.887888)"><g><path d="M 1.1875 -70.59375 L 55.71875 -70.59375 L 55.71875 -56.921875 L 37.28125 -56.921875 L 37.28125 0 L 19.640625 0 L 19.640625 -56.921875 L 1.1875 -56.921875 Z M 1.1875 -70.59375 "/></g></g></g><g fill="#ffffff" fill-opacity="1"><g transform="translate(249.936581, 378.887888)"><g/></g></g><g fill="#ffffff" fill-opacity="1"><g transform="translate(277.499606, 378.887888)"><g><path d="M 13.6875 -21.125 C 16.789062 -18.34375 19.910156 -16.175781 23.046875 -14.625 C 26.191406 -13.070312 29.878906 -12.296875 34.109375 -12.296875 C 35.296875 -12.296875 36.648438 -12.425781 38.171875 -12.6875 C 39.691406 -12.957031 41.128906 -13.40625 42.484375 -14.03125 C 43.835938 -14.65625 44.976562 -15.492188 45.90625 -16.546875 C 46.832031 -17.609375 47.296875 -18.898438 47.296875 -20.421875 C 47.296875 -22.210938 46.632812 -23.585938 45.3125 -24.546875 C 43.988281 -25.503906 42.003906 -26.210938 39.359375 -26.671875 L 24.6875 -29.046875 C 18.082031 -30.109375 13.0625 -32.304688 9.625 -35.640625 C 6.1875 -38.984375 4.46875 -43.265625 4.46875 -48.484375 C 4.46875 -52.710938 5.257812 -56.363281 6.84375 -59.4375 C 8.425781 -62.519531 10.554688 -65.019531 13.234375 -66.9375 C 15.910156 -68.851562 18.984375 -70.269531 22.453125 -71.1875 C 25.929688 -72.113281 29.550781 -72.578125 33.3125 -72.578125 C 39.195312 -72.578125 44.863281 -71.421875 50.3125 -69.109375 C 55.769531 -66.796875 60.484375 -63.425781 64.453125 -59 L 51.0625 -49.375 C 48.75 -52.21875 45.957031 -54.414062 42.6875 -55.96875 C 39.414062 -57.519531 35.894531 -58.296875 32.125 -58.296875 C 31.132812 -58.296875 30.039062 -58.128906 28.84375 -57.796875 C 27.65625 -57.472656 26.566406 -57.015625 25.578125 -56.421875 C 24.585938 -55.828125 23.757812 -55.082031 23.09375 -54.1875 C 22.4375 -53.289062 22.109375 -52.285156 22.109375 -51.171875 C 22.109375 -49.242188 22.898438 -47.769531 24.484375 -46.75 C 26.078125 -45.726562 28.554688 -44.953125 31.921875 -44.421875 L 38.671875 -43.328125 C 42.171875 -42.734375 45.472656 -41.988281 48.578125 -41.09375 C 51.691406 -40.207031 54.421875 -39.003906 56.765625 -37.484375 C 59.109375 -35.960938 60.957031 -34.046875 62.3125 -31.734375 C 63.675781 -29.421875 64.359375 -26.578125 64.359375 -23.203125 C 64.359375 -17.910156 63.296875 -13.613281 61.171875 -10.3125 C 59.054688 -7.007812 56.378906 -4.445312 53.140625 -2.625 C 49.898438 -0.8125 46.394531 0.40625 42.625 1.03125 C 38.863281 1.664062 35.332031 1.984375 32.03125 1.984375 C 26.007812 1.984375 20.40625 0.910156 15.21875 -1.234375 C 10.03125 -3.390625 5.023438 -7.109375 0.203125 -12.390625 Z M 13.6875 -21.125 "/></g></g></g><g fill="#ffffff" fill-opacity="1"><g transform="translate(345.41571, 378.887888)"><g><path d="M 31.234375 -42.234375 C 29.054688 -42.234375 27.171875 -41.835938 25.578125 -41.046875 C 23.992188 -40.253906 22.6875 -39.144531 21.65625 -37.71875 C 20.632812 -36.300781 19.875 -34.617188 19.375 -32.671875 C 18.882812 -30.722656 18.640625 -28.625 18.640625 -26.375 C 18.640625 -24.125 18.882812 -22.023438 19.375 -20.078125 C 19.875 -18.128906 20.632812 -16.441406 21.65625 -15.015625 C 22.6875 -13.597656 23.992188 -12.492188 25.578125 -11.703125 C 27.171875 -10.910156 29.054688 -10.515625 31.234375 -10.515625 C 33.410156 -10.515625 35.289062 -10.925781 36.875 -11.75 C 38.46875 -12.570312 39.773438 -13.710938 40.796875 -15.171875 C 41.828125 -16.628906 42.585938 -18.363281 43.078125 -20.375 C 43.578125 -22.394531 43.828125 -24.59375 43.828125 -26.96875 C 43.828125 -29.082031 43.578125 -31.066406 43.078125 -32.921875 C 42.585938 -34.773438 41.828125 -36.394531 40.796875 -37.78125 C 39.773438 -39.164062 38.46875 -40.253906 36.875 -41.046875 C 35.289062 -41.835938 33.410156 -42.234375 31.234375 -42.234375 Z M 31.234375 -54.140625 C 35.328125 -54.140625 39.09375 -53.523438 42.53125 -52.296875 C 45.96875 -51.078125 48.925781 -49.273438 51.40625 -46.890625 C 53.882812 -44.515625 55.816406 -41.609375 57.203125 -38.171875 C 58.597656 -34.734375 59.296875 -30.800781 59.296875 -26.375 C 59.296875 -21.945312 58.597656 -18.015625 57.203125 -14.578125 C 55.816406 -11.140625 53.882812 -8.226562 51.40625 -5.84375 C 48.925781 -3.46875 45.96875 -1.664062 42.53125 -0.4375 C 39.09375 0.78125 35.328125 1.390625 31.234375 1.390625 C 27.140625 1.390625 23.375 0.78125 19.9375 -0.4375 C 16.5 -1.664062 13.539062 -3.46875 11.0625 -5.84375 C 8.582031 -8.226562 6.644531 -11.140625 5.25 -14.578125 C 3.863281 -18.015625 3.171875 -21.945312 3.171875 -26.375 C 3.171875 -30.800781 3.863281 -34.734375 5.25 -38.171875 C 6.644531 -41.609375 8.582031 -44.515625 11.0625 -46.890625 C 13.539062 -49.273438 16.5 -51.078125 19.9375 -52.296875 C 23.375 -53.523438 27.140625 -54.140625 31.234375 -54.140625 Z M 31.234375 -54.140625 "/></g></g></g><g fill="#ffffff" fill-opacity="1"><g transform="translate(407.878675, 378.887888)"><g><path d="M 6.9375 0 L 6.9375 -70.59375 L 22.40625 -70.59375 L 22.40625 0 Z M 6.9375 0 "/></g></g></g><g fill="#ffffff" fill-opacity="1"><g transform="translate(437.226358, 378.887888)"><g><path d="M 53.640625 0 L 38.171875 0 L 38.171875 -4.65625 C 37.179688 -3.46875 36.054688 -2.492188 34.796875 -1.734375 C 33.546875 -0.972656 32.222656 -0.363281 30.828125 0.09375 C 29.441406 0.5625 28.070312 0.894531 26.71875 1.09375 C 25.363281 1.289062 24.09375 1.390625 22.90625 1.390625 C 19.800781 1.390625 17.222656 0.972656 15.171875 0.140625 C 13.117188 -0.679688 11.476562 -1.800781 10.25 -3.21875 C 9.03125 -4.644531 8.171875 -6.265625 7.671875 -8.078125 C 7.179688 -9.898438 6.9375 -11.800781 6.9375 -13.78125 L 6.9375 -52.75 L 22.40625 -52.75 L 22.40625 -18.25 C 22.40625 -15.9375 22.914062 -14.164062 23.9375 -12.9375 C 24.96875 -11.71875 26.96875 -11.109375 29.9375 -11.109375 C 32.1875 -11.109375 34.117188 -11.75 35.734375 -13.03125 C 37.359375 -14.320312 38.171875 -16.421875 38.171875 -19.328125 L 38.171875 -52.75 L 53.640625 -52.75 Z M 53.640625 0 "/></g></g></g><g fill="#ffffff" fill-opacity="1"><g transform="translate(497.805523, 378.887888)"><g><path d="M 33.015625 -42.234375 L 23.796875 -42.234375 L 23.796875 -16.359375 C 23.796875 -14.242188 24.257812 -12.835938 25.1875 -12.140625 C 26.113281 -11.453125 27.269531 -11.109375 28.65625 -11.109375 C 29.507812 -11.109375 30.398438 -11.140625 31.328125 -11.203125 C 32.253906 -11.265625 32.914062 -11.332031 33.3125 -11.40625 L 33.3125 0.796875 C 32.320312 0.921875 30.851562 1.050781 28.90625 1.1875 C 26.957031 1.320312 25.125 1.390625 23.40625 1.390625 C 20.09375 1.390625 17.445312 0.925781 15.46875 0 C 13.488281 -0.925781 11.96875 -2.148438 10.90625 -3.671875 C 9.851562 -5.191406 9.160156 -6.890625 8.828125 -8.765625 C 8.492188 -10.648438 8.328125 -12.554688 8.328125 -14.484375 L 8.328125 -42.234375 L 0.796875 -42.234375 L 0.796875 -51.765625 L 8.328125 -51.765625 L 8.328125 -67.03125 L 23.796875 -67.03125 L 23.796875 -51.765625 L 33.015625 -51.765625 Z M 33.015625 -42.234375 "/></g></g></g><g fill="#ffffff" fill-opacity="1"><g transform="translate(532.705463, 378.887888)"><g><path d="M 22.40625 -52.75 L 22.40625 0 L 6.9375 0 L 6.9375 -52.75 Z M 6.9375 -58.703125 L 6.9375 -70.59375 L 22.40625 -70.59375 L 22.40625 -58.703125 Z M 6.9375 -58.703125 "/></g></g></g><g fill="#ffffff" fill-opacity="1"><g transform="translate(562.053122, 378.887888)"><g><path d="M 31.234375 -42.234375 C 29.054688 -42.234375 27.171875 -41.835938 25.578125 -41.046875 C 23.992188 -40.253906 22.6875 -39.144531 21.65625 -37.71875 C 20.632812 -36.300781 19.875 -34.617188 19.375 -32.671875 C 18.882812 -30.722656 18.640625 -28.625 18.640625 -26.375 C 18.640625 -24.125 18.882812 -22.023438 19.375 -20.078125 C 19.875 -18.128906 20.632812 -16.441406 21.65625 -15.015625 C 22.6875 -13.597656 23.992188 -12.492188 25.578125 -11.703125 C 27.171875 -10.910156 29.054688 -10.515625 31.234375 -10.515625 C 33.410156 -10.515625 35.289062 -10.925781 36.875 -11.75 C 38.46875 -12.570312 39.773438 -13.710938 40.796875 -15.171875 C 41.828125 -16.628906 42.585938 -18.363281 43.078125 -20.375 C 43.578125 -22.394531 43.828125 -24.59375 43.828125 -26.96875 C 43.828125 -29.082031 43.578125 -31.066406 43.078125 -32.921875 C 42.585938 -34.773438 41.828125 -36.394531 40.796875 -37.78125 C 39.773438 -39.164062 38.46875 -40.253906 36.875 -41.046875 C 35.289062 -41.835938 33.410156 -42.234375 31.234375 -42.234375 Z M 31.234375 -54.140625 C 35.328125 -54.140625 39.09375 -53.523438 42.53125 -52.296875 C 45.96875 -51.078125 48.925781 -49.273438 51.40625 -46.890625 C 53.882812 -44.515625 55.816406 -41.609375 57.203125 -38.171875 C 58.597656 -34.734375 59.296875 -30.800781 59.296875 -26.375 C 59.296875 -21.945312 58.597656 -18.015625 57.203125 -14.578125 C 55.816406 -11.140625 53.882812 -8.226562 51.40625 -5.84375 C 48.925781 -3.46875 45.96875 -1.664062 42.53125 -0.4375 C 39.09375 0.78125 35.328125 1.390625 31.234375 1.390625 C 27.140625 1.390625 23.375 0.78125 19.9375 -0.4375 C 16.5 -1.664062 13.539062 -3.46875 11.0625 -5.84375 C 8.582031 -8.226562 6.644531 -11.140625 5.25 -14.578125 C 3.863281 -18.015625 3.171875 -21.945312 3.171875 -26.375 C 3.171875 -30.800781 3.863281 -34.734375 5.25 -38.171875 C 6.644531 -41.609375 8.582031 -44.515625 11.0625 -46.890625 C 13.539062 -49.273438 16.5 -51.078125 19.9375 -52.296875 C 23.375 -53.523438 27.140625 -54.140625 31.234375 -54.140625 Z M 31.234375 -54.140625 "/></g></g></g><g fill="#ffffff" fill-opacity="1"><g transform="translate(624.516087, 378.887888)"><g><path d="M 6.9375 -52.75 L 22.40625 -52.75 L 22.40625 -48.09375 C 23.394531 -49.28125 24.519531 -50.253906 25.78125 -51.015625 C 27.039062 -51.773438 28.363281 -52.382812 29.75 -52.84375 C 31.132812 -53.3125 32.503906 -53.644531 33.859375 -53.84375 C 35.210938 -54.039062 36.484375 -54.140625 37.671875 -54.140625 C 40.785156 -54.140625 43.363281 -53.722656 45.40625 -52.890625 C 47.457031 -52.066406 49.09375 -50.941406 50.3125 -49.515625 C 51.539062 -48.097656 52.398438 -46.476562 52.890625 -44.65625 C 53.390625 -42.84375 53.640625 -40.945312 53.640625 -38.96875 L 53.640625 0 L 38.171875 0 L 38.171875 -33.015625 C 38.171875 -35.597656 37.65625 -37.679688 36.625 -39.265625 C 35.601562 -40.847656 33.609375 -41.640625 30.640625 -41.640625 C 27.535156 -41.640625 25.382812 -40.765625 24.1875 -39.015625 C 23 -37.265625 22.40625 -35.203125 22.40625 -32.828125 L 22.40625 0 L 6.9375 0 Z M 6.9375 -52.75 "/></g></g></g><g fill="#ffffff" fill-opacity="1"><g transform="translate(141.219695, 587.064065)"><g><path d="M 2.84375 -32.15625 L 5.546875 -32.15625 L 5.546875 -18.46875 L 5.640625 -18.46875 C 6.335938 -19.851562 7.269531 -20.820312 8.4375 -21.375 C 9.613281 -21.9375 10.835938 -22.21875 12.109375 -22.21875 C 13.429688 -22.21875 14.570312 -22.035156 15.53125 -21.671875 C 16.5 -21.316406 17.289062 -20.804688 17.90625 -20.140625 C 18.519531 -19.472656 18.976562 -18.671875 19.28125 -17.734375 C 19.582031 -16.804688 19.734375 -15.785156 19.734375 -14.671875 L 19.734375 0 L 17.03125 0 L 17.03125 -13.859375 C 17.03125 -16.054688 16.578125 -17.578125 15.671875 -18.421875 C 14.765625 -19.265625 13.453125 -19.6875 11.734375 -19.6875 C 10.921875 -19.6875 10.140625 -19.550781 9.390625 -19.28125 C 8.640625 -19.007812 7.984375 -18.578125 7.421875 -17.984375 C 6.867188 -17.398438 6.414062 -16.664062 6.0625 -15.78125 C 5.71875 -14.894531 5.546875 -13.847656 5.546875 -12.640625 L 5.546875 0 L 2.84375 0 Z M 2.84375 -32.15625 "/></g></g></g><g fill="#ffffff" fill-opacity="1"><g transform="translate(163.798828, 587.064065)"><g><path d="M 0.359375 -21.671875 L 4.78125 -21.671875 L 4.78125 -30.9375 L 7.5 -30.9375 L 7.5 -21.671875 L 12.1875 -21.671875 L 12.1875 -19.421875 L 7.5 -19.421875 L 7.5 -5.109375 C 7.5 -4.679688 7.503906 -4.285156 7.515625 -3.921875 C 7.535156 -3.566406 7.597656 -3.238281 7.703125 -2.9375 C 7.804688 -2.632812 7.960938 -2.398438 8.171875 -2.234375 C 8.378906 -2.066406 8.679688 -1.984375 9.078125 -1.984375 C 9.710938 -1.984375 10.253906 -2.085938 10.703125 -2.296875 C 11.148438 -2.515625 11.601562 -2.773438 12.0625 -3.078125 L 12.0625 -0.359375 C 10.707031 0.242188 9.515625 0.546875 8.484375 0.546875 C 8.003906 0.546875 7.535156 0.476562 7.078125 0.34375 C 6.628906 0.207031 6.238281 -0.0078125 5.90625 -0.3125 C 5.582031 -0.613281 5.3125 -1.003906 5.09375 -1.484375 C 4.882812 -1.972656 4.78125 -2.578125 4.78125 -3.296875 L 4.78125 -19.421875 L 0.359375 -19.421875 Z M 0.359375 -21.671875 "/></g></g></g><g fill="#ffffff" fill-opacity="1"><g transform="translate(176.352819, 587.064065)"><g><path d="M 0.359375 -21.671875 L 4.78125 -21.671875 L 4.78125 -30.9375 L 7.5 -30.9375 L 7.5 -21.671875 L 12.1875 -21.671875 L 12.1875 -19.421875 L 7.5 -19.421875 L 7.5 -5.109375 C 7.5 -4.679688 7.503906 -4.285156 7.515625 -3.921875 C 7.535156 -3.566406 7.597656 -3.238281 7.703125 -2.9375 C 7.804688 -2.632812 7.960938 -2.398438 8.171875 -2.234375 C 8.378906 -2.066406 8.679688 -1.984375 9.078125 -1.984375 C 9.710938 -1.984375 10.253906 -2.085938 10.703125 -2.296875 C 11.148438 -2.515625 11.601562 -2.773438 12.0625 -3.078125 L 12.0625 -0.359375 C 10.707031 0.242188 9.515625 0.546875 8.484375 0.546875 C 8.003906 0.546875 7.535156 0.476562 7.078125 0.34375 C 6.628906 0.207031 6.238281 -0.0078125 5.90625 -0.3125 C 5.582031 -0.613281 5.3125 -1.003906 5.09375 -1.484375 C 4.882812 -1.972656 4.78125 -2.578125 4.78125 -3.296875 L 4.78125 -19.421875 L 0.359375 -19.421875 Z M 0.359375 -21.671875 "/></g></g></g><g fill="#ffffff" fill-opacity="1"><g transform="translate(188.90681, 587.064065)"><g><path d="M 2.84375 -21.671875 L 5.546875 -21.671875 L 5.546875 -18.421875 L 5.640625 -18.421875 C 6.066406 -19.472656 6.847656 -20.367188 7.984375 -21.109375 C 9.128906 -21.847656 10.472656 -22.21875 12.015625 -22.21875 C 13.179688 -22.21875 14.3125 -21.984375 15.40625 -21.515625 C 16.507812 -21.046875 17.484375 -20.351562 18.328125 -19.4375 C 19.171875 -18.519531 19.84375 -17.367188 20.34375 -15.984375 C 20.84375 -14.597656 21.09375 -13.003906 21.09375 -11.203125 C 21.09375 -8.941406 20.828125 -7.054688 20.296875 -5.546875 C 19.765625 -4.046875 19.078125 -2.84375 18.234375 -1.9375 C 17.398438 -1.039062 16.453125 -0.398438 15.390625 -0.015625 C 14.335938 0.359375 13.269531 0.546875 12.1875 0.546875 C 10.59375 0.546875 9.226562 0.253906 8.09375 -0.328125 C 6.96875 -0.921875 6.148438 -1.835938 5.640625 -3.078125 L 5.546875 -3.078125 L 5.546875 11.203125 L 2.84375 11.203125 Z M 18.375 -10.84375 C 18.375 -13.582031 17.769531 -15.738281 16.5625 -17.3125 C 15.363281 -18.894531 13.800781 -19.6875 11.875 -19.6875 C 10.519531 -19.6875 9.425781 -19.421875 8.59375 -18.890625 C 7.769531 -18.367188 7.117188 -17.675781 6.640625 -16.8125 C 6.160156 -15.957031 5.835938 -15.003906 5.671875 -13.953125 C 5.503906 -12.898438 5.421875 -11.863281 5.421875 -10.84375 C 5.421875 -9.78125 5.503906 -8.722656 5.671875 -7.671875 C 5.835938 -6.617188 6.148438 -5.671875 6.609375 -4.828125 C 7.078125 -3.984375 7.734375 -3.296875 8.578125 -2.765625 C 9.421875 -2.242188 10.503906 -1.984375 11.828125 -1.984375 C 13.785156 -1.984375 15.363281 -2.773438 16.5625 -4.359375 C 17.769531 -5.941406 18.375 -8.101562 18.375 -10.84375 Z M 18.375 -10.84375 "/></g></g></g><g fill="#ffffff" fill-opacity="1"><g transform="translate(211.485943, 587.064065)"><g><path d="M 3.75 -6 C 4.351562 -4.4375 5.117188 -3.332031 6.046875 -2.6875 C 6.984375 -2.039062 8.3125 -1.71875 10.03125 -1.71875 C 10.570312 -1.71875 11.15625 -1.773438 11.78125 -1.890625 C 12.414062 -2.015625 12.988281 -2.242188 13.5 -2.578125 C 14.007812 -2.910156 14.4375 -3.359375 14.78125 -3.921875 C 15.132812 -4.492188 15.3125 -5.234375 15.3125 -6.140625 C 15.3125 -7.222656 14.992188 -8.019531 14.359375 -8.53125 C 13.722656 -9.039062 12.929688 -9.429688 11.984375 -9.703125 C 11.035156 -9.972656 10.003906 -10.195312 8.890625 -10.375 C 7.773438 -10.5625 6.742188 -10.847656 5.796875 -11.234375 C 4.847656 -11.628906 4.054688 -12.203125 3.421875 -12.953125 C 2.796875 -13.710938 2.484375 -14.8125 2.484375 -16.25 C 2.484375 -17.039062 2.640625 -17.796875 2.953125 -18.515625 C 3.273438 -19.234375 3.75 -19.863281 4.375 -20.40625 C 5.007812 -20.945312 5.785156 -21.382812 6.703125 -21.71875 C 7.617188 -22.050781 8.679688 -22.21875 9.890625 -22.21875 C 12.023438 -22.21875 13.789062 -21.851562 15.1875 -21.125 C 16.59375 -20.40625 17.550781 -19.128906 18.0625 -17.296875 L 15.484375 -16.65625 C 15.003906 -18.007812 14.332031 -18.894531 13.46875 -19.3125 C 12.613281 -19.738281 11.554688 -19.953125 10.296875 -19.953125 C 9.273438 -19.953125 8.429688 -19.851562 7.765625 -19.65625 C 7.097656 -19.46875 6.578125 -19.207031 6.203125 -18.875 C 5.828125 -18.539062 5.5625 -18.140625 5.40625 -17.671875 C 5.257812 -17.210938 5.1875 -16.710938 5.1875 -16.171875 C 5.1875 -15.234375 5.503906 -14.535156 6.140625 -14.078125 C 6.773438 -13.628906 7.566406 -13.269531 8.515625 -13 C 9.460938 -12.726562 10.492188 -12.488281 11.609375 -12.28125 C 12.722656 -12.070312 13.753906 -11.75 14.703125 -11.3125 C 15.648438 -10.875 16.4375 -10.25 17.0625 -9.4375 C 17.695312 -8.625 18.015625 -7.492188 18.015625 -6.046875 C 18.015625 -5.148438 17.832031 -4.300781 17.46875 -3.5 C 17.113281 -2.695312 16.570312 -1.992188 15.84375 -1.390625 C 15.125 -0.796875 14.242188 -0.328125 13.203125 0.015625 C 12.171875 0.367188 10.976562 0.546875 9.625 0.546875 C 8.8125 0.546875 8.003906 0.46875 7.203125 0.3125 C 6.398438 0.164062 5.640625 -0.109375 4.921875 -0.515625 C 4.203125 -0.921875 3.515625 -1.5 2.859375 -2.25 C 2.210938 -3.007812 1.632812 -3.988281 1.125 -5.1875 Z M 3.75 -6 "/></g></g></g><g fill="#ffffff" fill-opacity="1"><g transform="translate(231.536215, 587.064065)"><g><path d="M 8 0 L 4.5625 0 L 4.5625 -5.234375 L 8 -5.234375 Z M 8 -16.125 L 4.5625 -16.125 L 4.5625 -21.359375 L 8 -21.359375 Z M 8 -16.125 "/></g></g></g><g fill="#ffffff" fill-opacity="1"><g transform="translate(244.090206, 587.064065)"><g><path d="M 17.921875 -32.96875 L 20.3125 -32.96875 L 2.984375 0.8125 L 0.59375 0.8125 Z M 17.921875 -32.96875 "/></g></g></g><g fill="#ffffff" fill-opacity="1"><g transform="translate(264.998478, 587.064065)"><g><path d="M 17.921875 -32.96875 L 20.3125 -32.96875 L 2.984375 0.8125 L 0.59375 0.8125 Z M 17.921875 -32.96875 "/></g></g></g><g fill="#ffffff" fill-opacity="1"><g transform="translate(285.906751, 587.064065)"><g><path d="M 0.09375 -21.671875 L 2.75 -21.671875 L 8.671875 -4.296875 L 8.765625 -4.296875 L 15.484375 -21.671875 L 18.28125 -21.671875 L 9.65625 0 L 7.546875 0 Z M 0.09375 -21.671875 "/></g></g></g><g fill="#ffffff" fill-opacity="1"><g transform="translate(304.286162, 587.064065)"><g><path d="M 4.203125 -5.234375 C 4.203125 -4.628906 4.335938 -4.125 4.609375 -3.71875 C 4.878906 -3.3125 5.222656 -2.976562 5.640625 -2.71875 C 6.066406 -2.46875 6.539062 -2.28125 7.0625 -2.15625 C 7.59375 -2.039062 8.113281 -1.984375 8.625 -1.984375 C 9.289062 -1.984375 10.035156 -2.101562 10.859375 -2.34375 C 11.691406 -2.582031 12.484375 -2.972656 13.234375 -3.515625 C 13.984375 -4.054688 14.613281 -4.769531 15.125 -5.65625 C 15.632812 -6.550781 15.890625 -7.660156 15.890625 -8.984375 L 15.890625 -11.46875 L 8.078125 -9.296875 C 6.992188 -8.992188 6.078125 -8.550781 5.328125 -7.96875 C 4.578125 -7.382812 4.203125 -6.472656 4.203125 -5.234375 Z M 21.71875 0.265625 C 20.875 0.265625 20.117188 0.242188 19.453125 0.203125 C 18.796875 0.160156 18.226562 0.0234375 17.75 -0.203125 C 17.269531 -0.429688 16.882812 -0.800781 16.59375 -1.3125 C 16.3125 -1.820312 16.140625 -2.554688 16.078125 -3.515625 L 15.984375 -3.515625 C 15.140625 -2.046875 14.078125 -1 12.796875 -0.375 C 11.515625 0.238281 10.050781 0.546875 8.40625 0.546875 C 7.53125 0.546875 6.675781 0.429688 5.84375 0.203125 C 5.019531 -0.0234375 4.285156 -0.367188 3.640625 -0.828125 C 2.992188 -1.296875 2.472656 -1.890625 2.078125 -2.609375 C 1.679688 -3.335938 1.484375 -4.195312 1.484375 -5.1875 C 1.484375 -6.332031 1.707031 -7.296875 2.15625 -8.078125 C 2.613281 -8.859375 3.210938 -9.503906 3.953125 -10.015625 C 4.691406 -10.535156 5.523438 -10.953125 6.453125 -11.265625 C 7.390625 -11.578125 8.320312 -11.859375 9.25 -12.109375 L 15.890625 -13.8125 L 15.890625 -15.984375 C 15.890625 -17.398438 15.414062 -18.414062 14.46875 -19.03125 C 13.519531 -19.644531 12.1875 -19.953125 10.46875 -19.953125 C 8.664062 -19.953125 7.332031 -19.515625 6.46875 -18.640625 C 5.613281 -17.773438 5.160156 -16.46875 5.109375 -14.71875 L 2.03125 -15.265625 C 2.9375 -19.898438 5.78125 -22.21875 10.5625 -22.21875 C 12.582031 -22.21875 14.132812 -21.960938 15.21875 -21.453125 C 16.300781 -20.941406 17.085938 -20.332031 17.578125 -19.625 C 18.078125 -18.914062 18.375 -18.175781 18.46875 -17.40625 C 18.5625 -16.632812 18.609375 -15.976562 18.609375 -15.4375 L 18.609375 -4.828125 C 18.609375 -4.140625 18.679688 -3.597656 18.828125 -3.203125 C 18.984375 -2.816406 19.195312 -2.53125 19.46875 -2.34375 C 19.738281 -2.164062 20.066406 -2.0625 20.453125 -2.03125 C 20.847656 -2 21.269531 -1.984375 21.71875 -1.984375 Z M 21.71875 0.265625 "/></g></g></g><g fill="#ffffff" fill-opacity="1"><g transform="translate(326.007283, 587.064065)"><g><path d="M 3.25 -21.671875 L 5.953125 -21.671875 L 5.953125 -18.65625 L 6.046875 -18.65625 C 6.804688 -19.789062 7.617188 -20.664062 8.484375 -21.28125 C 9.359375 -21.90625 10.503906 -22.21875 11.921875 -22.21875 C 12.285156 -22.21875 12.613281 -22.207031 12.90625 -22.1875 C 13.207031 -22.175781 13.523438 -22.15625 13.859375 -22.125 L 13.859375 -19.78125 C 13.285156 -19.894531 12.6875 -19.953125 12.0625 -19.953125 C 9.945312 -19.953125 8.398438 -19.257812 7.421875 -17.875 C 6.441406 -16.488281 5.953125 -14.6875 5.953125 -12.46875 L 5.953125 0 L 3.25 0 Z M 3.25 -21.671875 "/></g></g></g><g fill="#ffffff" fill-opacity="1"><g transform="translate(339.374123, 587.064065)"><g><path d="M 8 0 L 4.5625 0 L 4.5625 -5.234375 L 8 -5.234375 Z M 8 0 "/></g></g></g><g fill="#ffffff" fill-opacity="1"><g transform="translate(351.928114, 587.064065)"><g><path d="M 3.078125 -21.671875 L 5.78125 -21.671875 L 5.78125 -18.203125 L 5.875 -18.203125 C 6.351562 -19.335938 7.085938 -20.289062 8.078125 -21.0625 C 9.078125 -21.832031 10.34375 -22.21875 11.875 -22.21875 C 13.5 -22.21875 14.882812 -21.832031 16.03125 -21.0625 C 17.175781 -20.289062 17.867188 -19.09375 18.109375 -17.46875 L 18.203125 -17.46875 C 18.773438 -18.945312 19.59375 -20.109375 20.65625 -20.953125 C 21.726562 -21.796875 23.164062 -22.21875 24.96875 -22.21875 C 26.53125 -22.21875 27.738281 -21.929688 28.59375 -21.359375 C 29.457031 -20.785156 30.082031 -20.082031 30.46875 -19.25 C 30.863281 -18.425781 31.09375 -17.5625 31.15625 -16.65625 C 31.21875 -15.757812 31.25 -14.976562 31.25 -14.3125 L 31.25 0 L 28.53125 0 L 28.53125 -14 C 28.53125 -14.601562 28.507812 -15.242188 28.46875 -15.921875 C 28.425781 -16.597656 28.269531 -17.210938 28 -17.765625 C 27.726562 -18.328125 27.3125 -18.785156 26.75 -19.140625 C 26.195312 -19.503906 25.410156 -19.6875 24.390625 -19.6875 C 23.421875 -19.6875 22.570312 -19.484375 21.84375 -19.078125 C 21.125 -18.671875 20.515625 -18.117188 20.015625 -17.421875 C 19.523438 -16.734375 19.148438 -15.929688 18.890625 -15.015625 C 18.640625 -14.097656 18.515625 -13.113281 18.515625 -12.0625 L 18.515625 0 L 15.796875 0 L 15.796875 -13.640625 C 15.796875 -14.328125 15.757812 -15.03125 15.6875 -15.75 C 15.613281 -16.476562 15.441406 -17.132812 15.171875 -17.71875 C 14.898438 -18.3125 14.484375 -18.785156 13.921875 -19.140625 C 13.367188 -19.503906 12.613281 -19.6875 11.65625 -19.6875 C 9.96875 -19.6875 8.566406 -18.992188 7.453125 -17.609375 C 6.335938 -16.222656 5.78125 -14.328125 5.78125 -11.921875 L 5.78125 0 L 3.078125 0 Z M 3.078125 -21.671875 "/></g></g></g><g fill="#ffffff" fill-opacity="1"><g transform="translate(386.248377, 587.064065)"><g><path d="M 0.453125 -21.671875 L 2.984375 -21.671875 L 9.25 -3.4375 L 9.34375 -3.4375 L 16.484375 -21.671875 L 19.0625 -21.671875 L 8.359375 5.828125 C 8.117188 6.453125 7.863281 7.082031 7.59375 7.71875 C 7.320312 8.351562 6.988281 8.925781 6.59375 9.4375 C 6.195312 9.945312 5.71875 10.367188 5.15625 10.703125 C 4.601562 11.035156 3.910156 11.203125 3.078125 11.203125 C 2.554688 11.203125 2.054688 11.117188 1.578125 10.953125 C 1.097656 10.785156 0.632812 10.597656 0.1875 10.390625 L 0.1875 7.59375 C 0.601562 7.832031 1.046875 8.070312 1.515625 8.3125 C 1.984375 8.550781 2.472656 8.671875 2.984375 8.671875 C 3.367188 8.671875 3.710938 8.5625 4.015625 8.34375 C 4.316406 8.132812 4.570312 7.878906 4.78125 7.578125 C 5 7.285156 5.179688 6.972656 5.328125 6.640625 C 5.472656 6.304688 5.59375 6.003906 5.6875 5.734375 L 7.90625 0.046875 Z M 0.453125 -21.671875 "/></g></g></g><g fill="#ffffff" fill-opacity="1"><g transform="translate(405.4858, 587.064065)"><g><path d="M 8 0 L 4.5625 0 L 4.5625 -5.234375 L 8 -5.234375 Z M 8 0 "/></g></g></g><g fill="#ffffff" fill-opacity="1"><g transform="translate(418.039779, 587.064065)"><g><path d="M 2.84375 -21.671875 L 5.546875 -21.671875 L 5.546875 0 L 2.84375 0 Z M 2.84375 -30.609375 L 5.546875 -30.609375 L 5.546875 -26.375 L 2.84375 -26.375 Z M 2.84375 -30.609375 "/></g></g></g><g fill="#ffffff" fill-opacity="1"><g transform="translate(426.4392, 587.064065)"><g><path d="M 17.03125 -2.9375 L 16.9375 -2.9375 C 16.300781 -1.644531 15.40625 -0.738281 14.25 -0.21875 C 13.09375 0.289062 11.878906 0.546875 10.609375 0.546875 C 9.585938 0.546875 8.539062 0.34375 7.46875 -0.0625 C 6.40625 -0.46875 5.425781 -1.113281 4.53125 -2 C 3.644531 -2.894531 2.914062 -4.039062 2.34375 -5.4375 C 1.769531 -6.84375 1.484375 -8.550781 1.484375 -10.5625 C 1.484375 -12.457031 1.722656 -14.128906 2.203125 -15.578125 C 2.691406 -17.023438 3.347656 -18.242188 4.171875 -19.234375 C 5.003906 -20.234375 5.96875 -20.976562 7.0625 -21.46875 C 8.164062 -21.96875 9.332031 -22.21875 10.5625 -22.21875 C 12.101562 -22.21875 13.382812 -21.914062 14.40625 -21.3125 C 15.425781 -20.707031 16.269531 -19.878906 16.9375 -18.828125 L 17.03125 -18.828125 L 17.03125 -32.15625 L 19.734375 -32.15625 L 19.734375 0 L 17.03125 0 Z M 4.203125 -10.84375 C 4.203125 -8.101562 4.800781 -5.941406 6 -4.359375 C 7.207031 -2.773438 8.789062 -1.984375 10.75 -1.984375 C 12.007812 -1.984375 13.050781 -2.242188 13.875 -2.765625 C 14.707031 -3.296875 15.363281 -3.984375 15.84375 -4.828125 C 16.332031 -5.671875 16.671875 -6.617188 16.859375 -7.671875 C 17.054688 -8.722656 17.15625 -9.78125 17.15625 -10.84375 C 17.15625 -11.894531 17.070312 -12.945312 16.90625 -14 C 16.738281 -15.050781 16.429688 -16 15.984375 -16.84375 C 15.535156 -17.6875 14.90625 -18.367188 14.09375 -18.890625 C 13.28125 -19.421875 12.222656 -19.6875 10.921875 -19.6875 C 8.878906 -19.6875 7.25 -18.894531 6.03125 -17.3125 C 4.8125 -15.738281 4.203125 -13.582031 4.203125 -10.84375 Z M 4.203125 -10.84375 "/></g></g></g><g fill="#ffffff" fill-opacity="1"><g transform="translate(172.736183, 115.908942)"><g><path d="M 0.640625 -41.046875 L 6.578125 -41.046875 L 17.296875 -7.5 L 17.40625 -7.5 L 28.828125 -41.046875 L 34.53125 -41.046875 L 19.953125 0 L 14.359375 0 Z M 0.640625 -41.046875 "/></g></g></g><g fill="#ffffff" fill-opacity="1"><g transform="translate(207.908032, 115.908942)"><g><path d="M 19.78125 -13.4375 C 17.851562 -13.164062 16.082031 -12.882812 14.46875 -12.59375 C 12.851562 -12.3125 11.46875 -11.945312 10.3125 -11.5 C 9.164062 -11.0625 8.273438 -10.503906 7.640625 -9.828125 C 7.003906 -9.160156 6.6875 -8.285156 6.6875 -7.203125 C 6.6875 -6.359375 6.859375 -5.664062 7.203125 -5.125 C 7.546875 -4.59375 7.976562 -4.160156 8.5 -3.828125 C 9.019531 -3.503906 9.585938 -3.285156 10.203125 -3.171875 C 10.816406 -3.054688 11.414062 -3 12 -3 C 14.226562 -3 16.082031 -3.628906 17.5625 -4.890625 C 19.039062 -6.160156 19.78125 -7.953125 19.78125 -10.265625 Z M 19.78125 -18.96875 C 19.78125 -20.925781 19.296875 -22.347656 18.328125 -23.234375 C 17.367188 -24.117188 15.695312 -24.5625 13.3125 -24.5625 C 9.738281 -24.5625 7.859375 -22.675781 7.671875 -18.90625 L 2.9375 -19.203125 C 3.25 -22.316406 4.296875 -24.601562 6.078125 -26.0625 C 7.867188 -27.519531 10.300781 -28.25 13.375 -28.25 C 14.53125 -28.25 15.757812 -28.144531 17.0625 -27.9375 C 18.375 -27.726562 19.578125 -27.3125 20.671875 -26.6875 C 21.765625 -26.070312 22.675781 -25.207031 23.40625 -24.09375 C 24.132812 -22.976562 24.5 -21.519531 24.5 -19.71875 L 24.5 -6.921875 C 24.5 -5.578125 24.707031 -4.722656 25.125 -4.359375 C 25.550781 -3.992188 26.015625 -3.8125 26.515625 -3.8125 C 26.984375 -3.8125 27.46875 -3.90625 27.96875 -4.09375 L 27.96875 -0.171875 C 27.5 -0.0546875 27.015625 0.0351562 26.515625 0.109375 C 26.015625 0.191406 25.515625 0.234375 25.015625 0.234375 C 23.597656 0.234375 22.523438 -0.0703125 21.796875 -0.6875 C 21.066406 -1.300781 20.546875 -2.265625 20.234375 -3.578125 C 17.660156 -0.734375 14.394531 0.6875 10.4375 0.6875 C 9.207031 0.6875 8.050781 0.492188 6.96875 0.109375 C 5.894531 -0.273438 4.960938 -0.8125 4.171875 -1.5 C 3.390625 -2.1875 2.765625 -2.988281 2.296875 -3.90625 C 1.835938 -4.832031 1.609375 -5.835938 1.609375 -6.921875 C 1.609375 -8.804688 2.019531 -10.34375 2.84375 -11.53125 C 3.675781 -12.71875 4.867188 -13.65625 6.421875 -14.34375 C 7.984375 -15.039062 9.890625 -15.539062 12.140625 -15.84375 C 14.390625 -16.15625 16.9375 -16.390625 19.78125 -16.546875 Z M 19.78125 -18.96875 "/></g></g></g><g fill="#ffffff" fill-opacity="1"><g transform="translate(236.737411, 115.908942)"><g><path d="M 3.625 -27.5625 L 8.359375 -27.5625 L 8.359375 -22.828125 L 8.46875 -22.828125 C 9.582031 -24.710938 10.890625 -26.03125 12.390625 -26.78125 C 13.890625 -27.53125 15.832031 -27.90625 18.21875 -27.90625 L 18.21875 -22.71875 C 17.757812 -22.757812 17.222656 -22.785156 16.609375 -22.796875 C 15.992188 -22.816406 15.472656 -22.828125 15.046875 -22.828125 C 13.890625 -22.828125 12.898438 -22.585938 12.078125 -22.109375 C 11.253906 -21.628906 10.5625 -21.03125 10 -20.3125 C 9.445312 -19.601562 9.035156 -18.816406 8.765625 -17.953125 C 8.492188 -17.085938 8.359375 -16.253906 8.359375 -15.453125 L 8.359375 0 L 3.625 0 Z M 3.625 -27.5625 "/></g></g></g><g fill="#ffffff" fill-opacity="1"><g transform="translate(255.937781, 115.908942)"><g><path d="M 3.515625 -27.5625 L 8.25 -27.5625 L 8.25 0 L 3.515625 0 Z M 3.515625 -41.046875 L 8.25 -41.046875 L 8.25 -35.625 L 3.515625 -35.625 Z M 3.515625 -41.046875 "/></g></g></g><g fill="#ffffff" fill-opacity="1"><g transform="translate(267.700173, 115.908942)"><g><path d="M 3.625 -27.5625 L 8.359375 -27.5625 L 8.359375 -23.875 L 8.46875 -23.875 C 9.351562 -25.257812 10.46875 -26.332031 11.8125 -27.09375 C 13.164062 -27.863281 14.742188 -28.25 16.546875 -28.25 C 17.929688 -28.25 19.21875 -28.082031 20.40625 -27.75 C 21.601562 -27.425781 22.632812 -26.867188 23.5 -26.078125 C 24.363281 -25.296875 25.046875 -24.257812 25.546875 -22.96875 C 26.046875 -21.6875 26.296875 -20.082031 26.296875 -18.15625 L 26.296875 0 L 21.5625 0 L 21.5625 -17.703125 C 21.5625 -18.890625 21.414062 -19.878906 21.125 -20.671875 C 20.84375 -21.460938 20.441406 -22.097656 19.921875 -22.578125 C 19.398438 -23.054688 18.785156 -23.390625 18.078125 -23.578125 C 17.367188 -23.773438 16.585938 -23.875 15.734375 -23.875 C 13.546875 -23.875 11.769531 -23.21875 10.40625 -21.90625 C 9.039062 -20.601562 8.359375 -18.835938 8.359375 -16.609375 L 8.359375 0 L 3.625 0 Z M 3.625 -27.5625 "/></g></g></g><g fill="#ffffff" fill-opacity="1"><g transform="translate(297.625072, 115.908942)"><g><path d="M 19.78125 -13.4375 C 17.851562 -13.164062 16.082031 -12.882812 14.46875 -12.59375 C 12.851562 -12.3125 11.46875 -11.945312 10.3125 -11.5 C 9.164062 -11.0625 8.273438 -10.503906 7.640625 -9.828125 C 7.003906 -9.160156 6.6875 -8.285156 6.6875 -7.203125 C 6.6875 -6.359375 6.859375 -5.664062 7.203125 -5.125 C 7.546875 -4.59375 7.976562 -4.160156 8.5 -3.828125 C 9.019531 -3.503906 9.585938 -3.285156 10.203125 -3.171875 C 10.816406 -3.054688 11.414062 -3 12 -3 C 14.226562 -3 16.082031 -3.628906 17.5625 -4.890625 C 19.039062 -6.160156 19.78125 -7.953125 19.78125 -10.265625 Z M 19.78125 -18.96875 C 19.78125 -20.925781 19.296875 -22.347656 18.328125 -23.234375 C 17.367188 -24.117188 15.695312 -24.5625 13.3125 -24.5625 C 9.738281 -24.5625 7.859375 -22.675781 7.671875 -18.90625 L 2.9375 -19.203125 C 3.25 -22.316406 4.296875 -24.601562 6.078125 -26.0625 C 7.867188 -27.519531 10.300781 -28.25 13.375 -28.25 C 14.53125 -28.25 15.757812 -28.144531 17.0625 -27.9375 C 18.375 -27.726562 19.578125 -27.3125 20.671875 -26.6875 C 21.765625 -26.070312 22.675781 -25.207031 23.40625 -24.09375 C 24.132812 -22.976562 24.5 -21.519531 24.5 -19.71875 L 24.5 -6.921875 C 24.5 -5.578125 24.707031 -4.722656 25.125 -4.359375 C 25.550781 -3.992188 26.015625 -3.8125 26.515625 -3.8125 C 26.984375 -3.8125 27.46875 -3.90625 27.96875 -4.09375 L 27.96875 -0.171875 C 27.5 -0.0546875 27.015625 0.0351562 26.515625 0.109375 C 26.015625 0.191406 25.515625 0.234375 25.015625 0.234375 C 23.597656 0.234375 22.523438 -0.0703125 21.796875 -0.6875 C 21.066406 -1.300781 20.546875 -2.265625 20.234375 -3.578125 C 17.660156 -0.734375 14.394531 0.6875 10.4375 0.6875 C 9.207031 0.6875 8.050781 0.492188 6.96875 0.109375 C 5.894531 -0.273438 4.960938 -0.8125 4.171875 -1.5 C 3.390625 -2.1875 2.765625 -2.988281 2.296875 -3.90625 C 1.835938 -4.832031 1.609375 -5.835938 1.609375 -6.921875 C 1.609375 -8.804688 2.019531 -10.34375 2.84375 -11.53125 C 3.675781 -12.71875 4.867188 -13.65625 6.421875 -14.34375 C 7.984375 -15.039062 9.890625 -15.539062 12.140625 -15.84375 C 14.390625 -16.15625 16.9375 -16.390625 19.78125 -16.546875 Z M 19.78125 -18.96875 "/></g></g></g><g fill="#ffffff" fill-opacity="1"><g transform="translate(326.454451, 115.908942)"><g><path d="M 0.40625 -27.5625 L 4.953125 -27.5625 L 4.953125 -36.15625 L 9.6875 -36.15625 L 9.6875 -27.5625 L 14.8125 -27.5625 L 14.8125 -23.53125 L 9.6875 -23.53125 L 9.6875 -6 C 9.6875 -5.34375 9.757812 -4.734375 9.90625 -4.171875 C 10.0625 -3.617188 10.625 -3.34375 11.59375 -3.34375 C 12.125 -3.34375 12.617188 -3.390625 13.078125 -3.484375 C 13.546875 -3.578125 14.03125 -3.722656 14.53125 -3.921875 L 14.53125 0.109375 C 13.757812 0.304688 12.976562 0.453125 12.1875 0.546875 C 11.40625 0.640625 10.628906 0.6875 9.859375 0.6875 C 8.628906 0.6875 7.6875 0.550781 7.03125 0.28125 C 6.375 0.0195312 5.890625 -0.347656 5.578125 -0.828125 C 5.273438 -1.316406 5.09375 -1.894531 5.03125 -2.5625 C 4.976562 -3.238281 4.953125 -3.960938 4.953125 -4.734375 L 4.953125 -23.53125 L 0.40625 -23.53125 Z M 0.40625 -27.5625 "/></g></g></g><g fill="#ffffff" fill-opacity="1"><g transform="translate(342.483587, 115.908942)"><g><path d="M 3.515625 -27.5625 L 8.25 -27.5625 L 8.25 0 L 3.515625 0 Z M 3.515625 -41.046875 L 8.25 -41.046875 L 8.25 -35.625 L 3.515625 -35.625 Z M 3.515625 -41.046875 "/></g></g></g><g fill="#ffffff" fill-opacity="1"><g transform="translate(354.245978, 115.908942)"><g><path d="M 1.953125 -13.78125 C 1.953125 -15.851562 2.257812 -17.773438 2.875 -19.546875 C 3.5 -21.316406 4.382812 -22.84375 5.53125 -24.125 C 6.6875 -25.414062 8.097656 -26.425781 9.765625 -27.15625 C 11.441406 -27.882812 13.335938 -28.25 15.453125 -28.25 C 17.566406 -28.25 19.457031 -27.882812 21.125 -27.15625 C 22.800781 -26.425781 24.210938 -25.414062 25.359375 -24.125 C 26.515625 -22.84375 27.398438 -21.316406 28.015625 -19.546875 C 28.628906 -17.773438 28.9375 -15.851562 28.9375 -13.78125 C 28.9375 -11.707031 28.628906 -9.785156 28.015625 -8.015625 C 27.398438 -6.242188 26.515625 -4.710938 25.359375 -3.421875 C 24.210938 -2.140625 22.800781 -1.132812 21.125 -0.40625 C 19.457031 0.320312 17.566406 0.6875 15.453125 0.6875 C 13.335938 0.6875 11.441406 0.320312 9.765625 -0.40625 C 8.097656 -1.132812 6.6875 -2.140625 5.53125 -3.421875 C 4.382812 -4.710938 3.5 -6.242188 2.875 -8.015625 C 2.257812 -9.785156 1.953125 -11.707031 1.953125 -13.78125 Z M 7.03125 -13.78125 C 7.03125 -12.625 7.144531 -11.421875 7.375 -10.171875 C 7.601562 -8.921875 8.035156 -7.757812 8.671875 -6.6875 C 9.304688 -5.613281 10.171875 -4.726562 11.265625 -4.03125 C 12.367188 -3.34375 13.765625 -3 15.453125 -3 C 17.140625 -3 18.53125 -3.34375 19.625 -4.03125 C 20.726562 -4.726562 21.59375 -5.613281 22.21875 -6.6875 C 22.851562 -7.757812 23.285156 -8.921875 23.515625 -10.171875 C 23.753906 -11.421875 23.875 -12.625 23.875 -13.78125 C 23.875 -14.9375 23.753906 -16.132812 23.515625 -17.375 C 23.285156 -18.625 22.851562 -19.785156 22.21875 -20.859375 C 21.59375 -21.941406 20.726562 -22.828125 19.625 -23.515625 C 18.53125 -24.210938 17.140625 -24.5625 15.453125 -24.5625 C 13.765625 -24.5625 12.367188 -24.210938 11.265625 -23.515625 C 10.171875 -22.828125 9.304688 -21.941406 8.671875 -20.859375 C 8.035156 -19.785156 7.601562 -18.625 7.375 -17.375 C 7.144531 -16.132812 7.03125 -14.9375 7.03125 -13.78125 Z M 7.03125 -13.78125 "/></g></g></g><g fill="#ffffff" fill-opacity="1"><g transform="translate(385.151072, 115.908942)"><g><path d="M 3.625 -27.5625 L 8.359375 -27.5625 L 8.359375 -23.875 L 8.46875 -23.875 C 9.351562 -25.257812 10.46875 -26.332031 11.8125 -27.09375 C 13.164062 -27.863281 14.742188 -28.25 16.546875 -28.25 C 17.929688 -28.25 19.21875 -28.082031 20.40625 -27.75 C 21.601562 -27.425781 22.632812 -26.867188 23.5 -26.078125 C 24.363281 -25.296875 25.046875 -24.257812 25.546875 -22.96875 C 26.046875 -21.6875 26.296875 -20.082031 26.296875 -18.15625 L 26.296875 0 L 21.5625 0 L 21.5625 -17.703125 C 21.5625 -18.890625 21.414062 -19.878906 21.125 -20.671875 C 20.84375 -21.460938 20.441406 -22.097656 19.921875 -22.578125 C 19.398438 -23.054688 18.785156 -23.390625 18.078125 -23.578125 C 17.367188 -23.773438 16.585938 -23.875 15.734375 -23.875 C 13.546875 -23.875 11.769531 -23.21875 10.40625 -21.90625 C 9.039062 -20.601562 8.359375 -18.835938 8.359375 -16.609375 L 8.359375 0 L 3.625 0 Z M 3.625 -27.5625 "/></g></g></g></svg>